<svg width="411" height="2423" viewBox="0 0 411 2423" fill="none" xmlns="http://www.w3.org/2000/svg">
<path d="M241.21 25.4197C257.027 23.7953 290.692 10.992 305.547 4.79337C353.482 -10.8153 395.12 15.6741 410.067 31.0803V127.269H0V22.6411C21.4599 39.6551 61.0238 27.7353 78.1233 19.6487C110.869 7.42251 143.778 10.3508 156.14 13.3432C196.324 27.1938 229.596 27.1653 241.21 25.4197Z" fill="#FAFBFF"/>
<path d="M168.964 2397.1C153.147 2398.73 119.483 2411.53 104.628 2417.73C56.6927 2433.34 15.0545 2406.85 0.106936 2391.44L0.107134 126.781L410.174 126.781L410.174 2399.88C388.714 2382.87 349.15 2394.79 332.051 2402.88C299.305 2415.1 266.396 2412.17 254.035 2409.18C213.851 2395.33 180.578 2395.36 168.964 2397.1Z" fill="#FAFBFF"/>
</svg>
