<svg width="1920" height="1291" viewBox="0 0 1920 1291" fill="none" xmlns="http://www.w3.org/2000/svg">
<path d="M1129 118.762C1203 111.162 1360.5 51.2614 1430 22.2613C1654.26 -50.7639 1849.07 73.1669 1919 145.245V595.262H0.5V105.762C100.9 185.362 286 129.595 366 91.7617C519.2 34.5617 673.167 48.2617 731 62.2617C919 127.062 1074.67 126.928 1129 118.762Z" fill="#FAFBFF"/>
<path d="M791 1171.76C717 1179.36 559.5 1239.26 490 1268.26C265.737 1341.29 70.9324 1217.36 1.00001 1145.28L1.00006 555.262L1919.5 555.262L1919.5 1184.76C1819.1 1105.16 1634 1160.93 1554 1198.76C1400.8 1255.96 1246.83 1242.26 1189 1228.26C1001 1163.46 845.333 1163.6 791 1171.76Z" fill="#FAFBFF"/>
</svg>
