<svg width="631" height="310" viewBox="0 0 631 310" fill="none" xmlns="http://www.w3.org/2000/svg">
<path d="M176.107 310.678C176.107 310.678 222.225 236.04 135.902 202.017C112.778 192.909 0.5 180.068 0.5 180.068L336.938 182.81C336.938 182.81 462.809 193.593 550.868 216.943C644.159 241.681 763.5 309.153 763.5 309.153L178.472 311.225L176.107 310.678Z" fill="url(#paint0_linear_1_33)"/>
<path d="M481.953 236.922L446.104 238.851C381.832 212.759 270.149 195.398 111.67 182.202L122.61 182.653C283.208 193.853 406.926 210.366 481.953 236.922ZM563.907 310.282C563.907 285.243 544.714 264.703 508.626 247.753L470.746 250.584C499.936 267.082 513.378 286.692 510.964 310.282H563.907Z" fill="#95CBEE"/>
<path d="M497.785 232.374L497.99 233.304C507.885 235.248 517.883 237.564 528.253 239.786L528.299 238.828L497.785 232.374Z" fill="url(#paint1_linear_1_33)"/>
<path d="M497.795 232.374C506.519 234.383 520.804 237.555 528.309 238.829C533.536 238.41 553.42 232.449 553.42 232.449C550.509 231.872 530.076 229.25 528.021 229.259C527.388 229.259 524.319 229.556 520.348 229.966C514.591 230.552 506.946 231.379 502.203 231.9C499.543 232.179 497.795 232.374 497.795 232.374Z" fill="url(#paint2_linear_1_33)"/>
<path d="M528.254 239.786L528.3 238.828L553.42 232.448L553.281 233.09L528.254 239.786Z" fill="url(#paint3_linear_1_33)"/>
<path d="M502.203 231.89L514.61 234.913L533.424 232.783L520.348 229.965C514.591 230.551 506.946 231.369 502.203 231.89Z" fill="url(#paint4_linear_1_33)"/>
<path d="M536.363 235.49C540.371 234.644 542.994 233.203 542.222 231.175C541.84 230.04 541.45 228.915 541.069 227.78C540.473 226.004 539.887 224.237 539.311 222.451C538.446 219.81 537.609 217.15 536.772 214.453C535.479 210.231 534.224 205.897 532.996 201.377C532.298 198.791 531.61 196.15 530.931 193.435C530.457 191.537 529.992 189.593 529.527 187.613C529.48 187.408 529.276 187.231 528.969 187.101C527.964 186.664 525.816 186.617 524.114 186.822C522.849 186.98 521.836 187.278 521.715 187.668C521.157 189.51 520.636 191.351 520.134 193.183C519.417 195.825 518.748 198.466 518.106 201.117C517.065 205.385 516.107 209.691 515.084 214.081C514.293 217.504 513.475 220.982 512.582 224.544C512.014 226.795 511.419 229.064 510.778 231.389C509.299 236.188 526.802 237.518 536.363 235.49Z" fill="url(#paint5_linear_1_33)"/>
<path d="M520.135 193.192C523.753 193.471 527.324 193.564 530.942 193.434C531.612 196.159 532.3 198.8 533.007 201.377C528.05 201.646 523.065 201.563 518.117 201.116C518.75 198.475 519.41 195.834 520.135 193.192ZM512.574 224.553C516.555 225.371 520.572 226.004 524.627 226.041C529.752 226.078 534.932 225.037 539.303 222.46C538.438 219.819 537.601 217.159 536.764 214.462C529.594 215.727 522.191 215.587 515.076 214.09C514.295 217.513 513.476 220.991 512.574 224.553Z" fill="white"/>
<path d="M526.683 187.185C526.72 187.185 526.767 187.185 526.804 187.185C526.832 187.185 526.86 187.194 526.888 187.204C526.916 187.204 526.934 187.204 526.962 187.204C526.999 187.194 527.074 187.204 527.092 187.204C527.195 187.204 527.288 187.213 527.39 187.213C527.464 187.213 527.529 187.213 527.604 187.222C527.65 187.222 527.697 187.232 527.753 187.241C527.762 187.241 527.762 187.241 527.771 187.241C527.994 187.259 528.227 187.278 528.441 187.362C528.366 187.343 528.292 187.325 528.208 187.297C528.311 187.315 528.422 187.334 528.534 187.343C528.617 187.352 528.692 187.371 528.757 187.408C528.785 187.427 528.878 187.473 528.859 187.52C528.85 187.548 528.85 187.566 528.85 187.594C528.85 187.604 528.841 187.613 528.841 187.631C528.831 187.65 528.841 187.678 528.831 187.697C528.803 187.762 528.71 187.808 528.645 187.827C528.543 187.864 528.45 187.892 528.329 187.892C528.199 187.892 528.069 187.873 527.939 187.864C527.808 187.845 527.678 187.817 527.548 187.78C527.418 187.743 527.297 187.697 527.176 187.641C527.185 187.65 527.325 187.697 527.241 187.669C527.222 187.659 527.204 187.659 527.185 187.65C527.102 187.622 527.018 187.576 526.943 187.529C526.943 187.529 526.943 187.529 526.925 187.52C526.906 187.511 526.888 187.501 526.869 187.492C526.767 187.436 526.674 187.38 526.599 187.287C526.525 187.213 526.609 187.176 526.683 187.185Z" fill="white"/>
<path d="M380.676 51.3165C378.137 42.5463 370.511 35.9431 361.089 36.5941C360.485 36.6313 359.88 36.6964 359.276 36.7801C351.557 37.831 342.777 43.839 338.08 49.7168C336.76 51.363 335.458 53.0928 334.36 54.8692C334.332 54.9157 334.305 54.9529 334.286 54.9994C327.153 65.8528 325.32 82.7421 335.049 92.5446C340.006 97.5389 347.26 99.8267 354.523 98.9897C355.128 98.9153 355.723 98.8316 356.328 98.72C359.48 98.1155 362.615 96.8972 365.581 95.0371C365.814 94.8976 366.037 94.7488 366.27 94.6C367.534 93.7537 368.753 92.7864 369.878 91.7076C377.328 84.5464 381.364 74.3161 382.024 64.1043C382.294 59.6588 381.81 55.2319 380.676 51.3165Z" fill="#2659CD"/>
<path d="M380.509 63.4608C379.849 73.6725 375.812 83.9028 368.363 91.064C367.238 92.1429 366.019 93.1101 364.754 93.9564C364.522 94.1145 364.289 94.254 364.066 94.3935C361.109 96.2443 357.965 97.4626 354.812 98.0765C354.217 98.1881 353.613 98.2811 353.008 98.3462C345.745 99.1925 338.5 96.8953 333.543 91.9011C323.815 82.0986 325.647 65.2092 332.78 54.3558C332.808 54.3093 332.836 54.2721 332.854 54.2256C333.952 52.4493 335.254 50.7194 336.575 49.0732C341.271 43.1955 350.051 37.1875 357.77 36.1365C358.374 36.0528 358.979 35.9877 359.584 35.9505C369.014 35.2995 376.631 41.9027 379.17 50.6729C380.305 54.579 380.797 59.0153 380.509 63.4608Z" fill="#2659CD"/>
<path d="M378.09 51.4543C375.449 42.3865 367.181 36.0995 357.574 37.5038C356.802 37.6154 356.002 37.7549 355.23 37.941C348.655 39.522 342.275 43.8466 337.308 49.7895C336.016 51.3427 334.788 53.0167 333.756 54.728C327.627 64.9118 324.688 81.4942 334.379 90.8968C338.722 95.1098 344.832 97.5465 351.575 97.1373C352.645 97.0722 353.723 96.942 354.774 96.7374C358.113 96.0957 361.331 94.7471 364.298 92.7569C365.498 91.957 366.66 91.0177 367.739 89.9854C374.844 83.1776 378.723 73.3844 379.346 63.6284C379.643 59.2758 379.16 55.1093 378.09 51.4543ZM365.107 85.9862C364.214 86.7954 363.266 87.5673 362.28 88.2183C359.834 89.8459 357.183 90.9619 354.44 91.5199C353.575 91.6966 352.682 91.8268 351.808 91.8919C346.246 92.3104 341.066 90.5341 337.625 87.093C329.896 79.3644 331.524 66.5858 337.048 57.8529C337.913 56.4857 338.899 55.1279 339.959 53.891C344.042 49.1292 349.287 45.7253 354.7 44.5349C355.351 44.3954 356.002 44.2838 356.634 44.2C364.53 43.2421 371.031 47.4551 373.561 55.4069C374.491 58.3272 374.789 61.6288 374.63 65.0327C374.296 72.1102 370.427 81.1687 365.107 85.9862Z" fill="#FAFBFF"/>
<path d="M360.355 86.703C362.633 75.8681 367.098 61.8154 364.121 50.8783C362.326 48.9996 346.376 49.8738 343.121 54.7379C339.866 59.5926 344.182 75.4496 344.182 75.4496C346.042 75.1148 346.981 74.9474 348.841 74.6126C348.841 74.6126 346.544 59.4531 348.264 57.6396C349.976 55.8167 357.797 56.1515 358.839 57.0443C360.55 66.5399 357.537 77.4957 355.835 86.8983C357.639 86.8053 358.541 86.7681 360.355 86.703Z" fill="#FAFBFF"/>
<path d="M341.746 75.0675C345.234 74.1933 346.973 73.7469 350.46 72.8447C349.093 76.0812 348.414 77.6902 347.047 80.8802C344.927 78.5086 343.867 77.3461 341.746 75.0675Z" fill="#FAFBFF"/>
<path opacity="0.1" d="M338.129 55.127C347.773 66.4733 356.822 78.1452 365.546 90.2077C367.267 88.5615 368.122 87.7338 369.843 86.0505C361.854 73.0673 353.558 60.4003 344.704 47.9844C342.072 50.8954 340.752 52.3183 338.129 55.127Z" fill="#FAFBFF"/>
<path d="M484.245 35.7833C484.106 35.774 483.325 36.5831 482.283 37.8386C476.312 45.0278 470.704 52.5796 465.096 60.0105C460.055 66.6881 455.898 72.4357 456.065 72.8449C458.26 78.2856 475.522 91.2223 481.995 91.8268C482.367 91.864 485.947 87.837 490.188 82.5916C492.448 79.8015 494.95 76.6022 497.387 73.4029C503.553 65.3117 509.719 56.6066 509.486 55.751C507.859 49.7058 490.942 36.4529 484.245 35.7833Z" fill="#2659CD"/>
<path d="M507.628 54.9043C507.861 55.76 501.685 64.465 495.529 72.5563C493.092 75.7649 490.581 78.9549 488.33 81.745C484.089 86.9903 480.509 91.0173 480.137 90.9801C473.673 90.3756 456.402 77.4389 454.207 71.9983C454.049 71.5983 458.207 65.8415 463.238 59.1639C468.846 51.7236 474.454 44.1811 480.425 36.992C481.467 35.7364 482.248 34.9273 482.387 34.9366C489.074 35.6155 505.992 48.8684 507.628 54.9043Z" fill="#FAFBFF"/>
<path d="M482.222 37.1035C472.968 48.1151 464.151 59.6381 456.162 71.3937C463.416 77.7086 471.582 84.0793 480.129 89.0084C489.68 78.6851 498.506 67.2644 505.733 55.5646C499.325 48.4034 490.982 41.8932 482.222 37.1035ZM480.148 87.911C472.084 82.8702 464.421 77.0297 457.25 71.0496C465.072 59.8892 473.442 48.9149 482.166 38.2754C490.499 43.0557 498.348 49.1288 504.682 55.9087C497.455 67.0132 489.141 77.8574 480.148 87.911Z" fill="#2659CD"/>
<path d="M477.029 78.444C477.029 78.444 469.822 65.1446 471.198 61.285C472.575 57.4254 486.823 52.2451 486.823 52.2451C486.674 54.6353 486.599 55.835 486.451 58.2252C486.451 58.2252 476.434 61.4152 475.588 63.1544C474.751 64.8935 482.312 76.9746 482.312 76.9746C480.201 77.5698 479.141 77.8581 477.029 78.444Z" fill="#2659CD"/>
<path d="M484.898 49.668C485.373 53.4532 485.549 57.2663 485.391 61.0794C488.758 58.4288 491.874 55.6016 494.599 52.5325C491.809 51.0723 488.516 50.1795 484.898 49.668Z" fill="#2659CD"/>
<path d="M98.1341 48.3016C98.2643 48.2737 99.092 48.9805 100.217 50.0965C106.635 56.4672 112.726 63.2099 118.818 69.8503C124.287 75.8118 128.825 80.9642 128.704 81.3641C127.104 86.7955 111.703 100.83 105.546 102.001C105.193 102.067 101.371 98.5324 96.8042 93.873C94.3675 91.3898 91.6611 88.5532 89.0198 85.698C82.3236 78.4717 75.5716 70.6688 75.7111 69.8224C76.7248 63.8703 91.7541 49.5664 98.1341 48.3016Z" fill="#2659CD"/>
<path d="M77.4318 68.8474C77.2923 69.6937 84.035 77.4966 90.7219 84.7137C93.3632 87.5689 96.0696 90.4147 98.5063 92.8886C103.073 97.5481 106.895 101.082 107.249 101.017C113.415 99.8452 128.807 85.8111 130.406 80.3797C130.527 79.9798 125.989 74.8275 120.52 68.866C114.428 62.2256 108.337 55.4829 101.919 49.1122C100.794 47.9961 99.9664 47.2893 99.8362 47.3172C93.4655 48.5913 78.4362 62.8859 77.4318 68.8474Z" fill="#2659CD"/>
<path d="M79.3105 69.2938C87.3553 79.8868 96.9067 90.052 107.063 99.1105C114.828 93.5861 122.083 86.7039 128.472 79.9705C119.683 69.3961 110.132 59.1192 100.199 49.3818C92.2286 54.8039 84.807 61.8256 79.3105 69.2938ZM80.3615 69.5356C85.8207 62.4394 92.8053 55.8734 100.366 50.5072C109.741 59.9284 118.818 69.7216 127.384 79.738C121.05 86.1552 114.215 92.4701 106.942 98.0595C97.3624 89.2243 88.3411 79.552 80.3615 69.5356Z" fill="white"/>
<path d="M109.062 88.6757C109.062 88.6757 114.754 75.2275 113.071 71.6376C111.388 68.0569 97.1953 64.374 97.1953 64.374C97.558 66.6619 97.744 67.8058 98.116 70.0937C98.116 70.0937 108.049 72.2421 109.016 73.8417C109.983 75.4414 103.836 87.7549 103.836 87.7549C105.928 88.127 106.97 88.3037 109.062 88.6757Z" fill="white"/>
<path d="M98.8041 61.7236C98.7018 65.4065 98.8878 69.0895 99.39 72.7445C95.9024 70.5031 92.638 68.0757 89.7363 65.3693C92.2939 63.7046 95.3723 62.5421 98.8041 61.7236Z" fill="white"/>
<path d="M117.451 96.1516C118.335 118.37 120.539 153.748 121.776 154.669C122.427 155.143 132.638 155.794 145.529 156.352C154.448 156.734 164.669 157.078 173.867 157.282C186.878 157.589 197.871 157.636 200.344 157.189C200.651 157.087 200.856 157.022 200.856 157.022C201.73 155.869 199.573 127.187 197.601 110.241C196.82 103.517 196.048 98.6347 195.518 98.0581C195.174 97.6861 192.346 96.7654 187.966 95.5098C179.233 93.008 164.352 89.1763 150.486 85.791C133.336 81.6059 117.739 78.0811 117.246 78.5089L117.228 78.5368C116.921 79.1041 117.06 86.349 117.451 96.1516Z" fill="#FAFBFF"/>
<path d="M115.525 80.128C115.525 80.128 118.315 153.619 120.027 155.488C121.943 157.581 195.787 158.111 197.638 157.878C198.447 157.785 199.665 157.404 200.344 157.181C193.573 158.409 123.505 155.935 121.775 154.661C119.99 153.34 116.214 80.4535 117.218 78.5098L115.525 80.128Z" fill="url(#paint6_linear_1_33)"/>
<path d="M117.451 96.1526C132.49 99.0357 186.654 108.355 197.601 110.233C196.82 103.509 196.048 98.6264 195.518 98.0498C193.648 96.0317 118.344 77.5427 117.246 78.4913L117.228 78.5192C116.921 79.1051 117.06 86.3501 117.451 96.1526Z" fill="#2659CD"/>
<path d="M172.621 103.1C172.054 102.998 171.523 102.644 171.096 102.04C170.212 100.803 169.942 98.8682 169.849 97.8545C169.729 96.4688 169.942 95.362 170.445 94.7947C170.826 94.3669 171.347 94.246 171.951 94.3948C173.886 94.8691 174.574 97.064 174.667 98.2637C174.23 98.1707 174.007 98.1242 173.57 98.0405C173.542 97.7057 173.318 96.0689 172.054 95.7526C171.756 95.6782 171.505 95.7526 171.31 95.9759C171.003 96.3479 170.872 97.1105 170.947 98.0777C171.058 99.3705 171.365 100.524 171.784 101.11C171.998 101.417 172.249 101.584 172.547 101.63C172.956 101.696 173.263 101.612 173.439 101.361C173.709 100.979 173.653 100.3 173.653 100.291C174.09 100.338 174.304 100.366 174.741 100.412C174.76 100.542 174.872 101.733 174.314 102.505C173.942 103.025 173.384 103.221 172.658 103.109C172.649 103.1 172.63 103.1 172.621 103.1Z" fill="#FAF3ED"/>
<path d="M179.362 104.085C177.948 103.834 177.232 103.713 175.8 103.462C175.642 100.244 175.512 98.2166 175.279 95.3242C176.739 95.6776 177.456 95.845 178.897 96.1891C178.934 96.6821 178.953 96.9425 178.99 97.4819C177.986 97.2494 177.483 97.1378 176.479 96.9053C176.628 98.9048 176.702 100.077 176.814 102.206C177.809 102.392 178.302 102.485 179.288 102.671C179.325 103.248 179.334 103.536 179.362 104.085Z" fill="#FAF3ED"/>
<path d="M176.609 100.44C176.562 99.8445 176.534 99.5469 176.479 98.9609C177.325 99.1097 177.743 99.1841 178.58 99.333C178.627 99.9096 178.655 100.207 178.701 100.793C177.864 100.654 177.446 100.579 176.609 100.44Z" fill="#FAF3ED"/>
<path d="M187.741 105.732C187.193 105.639 186.69 105.323 186.291 104.784C185.454 103.677 185.23 101.928 185.165 101.008C185.072 99.7521 185.295 98.757 185.779 98.264C186.142 97.892 186.635 97.799 187.211 97.9385C189.043 98.3849 189.676 100.338 189.75 101.417C189.332 101.333 189.127 101.287 188.709 101.203C188.681 100.896 188.485 99.4266 187.295 99.129C187.016 99.0546 186.774 99.1197 186.588 99.315C186.291 99.6405 186.151 100.329 186.216 101.212C186.3 102.384 186.579 103.426 186.979 103.956C187.183 104.226 187.425 104.384 187.704 104.43C188.095 104.486 188.392 104.421 188.569 104.198C188.839 103.854 188.783 103.24 188.783 103.24C189.202 103.286 189.406 103.314 189.815 103.361C189.825 103.482 189.927 104.551 189.388 105.23C189.025 105.686 188.485 105.844 187.788 105.741C187.76 105.732 187.751 105.732 187.741 105.732Z" fill="#FAF3ED"/>
<path d="M194.235 106.691C192.868 106.449 192.189 106.337 190.813 106.096C190.682 103.296 190.571 101.334 190.348 98.8135C191.724 99.1483 192.403 99.3064 193.752 99.6319C193.789 100.06 193.817 100.292 193.854 100.776C192.905 100.553 192.431 100.45 191.482 100.227C191.622 102.013 191.687 103.11 191.789 105.007C192.738 105.184 193.212 105.277 194.161 105.445C194.189 105.956 194.207 106.207 194.235 106.691Z" fill="#FAF3ED"/>
<path d="M191.584 103.408C191.537 102.868 191.519 102.598 191.463 102.068C192.263 102.208 192.663 102.282 193.462 102.422C193.509 102.943 193.537 103.212 193.583 103.742C192.784 103.612 192.384 103.547 191.584 103.408Z" fill="#FAF3ED"/>
<path d="M184.681 104.82C184.253 104.736 184.049 104.69 183.621 104.606C183.528 101.76 183.435 99.9282 183.268 97.3613C183.695 97.4729 183.909 97.5194 184.328 97.631C184.495 100.179 184.588 102.002 184.681 104.82Z" fill="#FAF3ED"/>
<path d="M180.403 104.058C180.208 101.119 180.069 99.259 179.799 96.5898C180.227 96.6828 180.441 96.7201 180.878 96.8131C181.147 99.4543 181.287 101.305 181.473 104.225C181.045 104.16 180.831 104.123 180.403 104.058Z" fill="#FAF3ED"/>
<path d="M183.658 104.533C182.254 101.77 181.519 100.069 180.031 97.3157C180.375 97.111 180.543 97.018 180.887 96.832C182.375 99.464 183.11 101.147 184.523 103.956C184.179 104.198 184.002 104.309 183.658 104.533Z" fill="#FAF3ED"/>
<path d="M169.542 102.244C169.105 102.169 168.882 102.123 168.436 102.048C168.222 98.7096 168.073 96.7193 167.775 93.7061C168.222 93.8084 168.445 93.8642 168.901 93.9665C169.189 96.9519 169.338 98.9328 169.542 102.244Z" fill="#FAF3ED"/>
<path d="M167.859 101.937C166.464 101.686 165.757 101.565 164.343 101.314C164.055 97.8267 163.851 95.79 163.479 92.6465C163.934 92.7395 164.157 92.786 164.613 92.879C164.911 95.4459 165.069 97.0269 165.329 99.9379C166.306 100.124 166.789 100.217 167.757 100.394C167.803 101.017 167.822 101.324 167.859 101.937Z" fill="#FAF3ED"/>
<path d="M148.141 98.2922C146.588 98.0131 145.807 97.8736 144.235 97.5946C143.919 93.5211 143.705 91.3727 143.314 87.7363C144.896 88.1176 145.686 88.3129 147.258 88.6943C147.323 89.3174 147.36 89.6429 147.425 90.2939C146.328 90.0428 145.779 89.9126 144.682 89.6522C144.933 92.0796 145.063 93.4095 145.277 96.0136C146.365 96.2182 146.904 96.3205 147.992 96.5251C148.048 97.2412 148.086 97.5946 148.141 98.2922Z" fill="#FAF3ED"/>
<path d="M144.97 93.8833C144.887 93.1764 144.849 92.823 144.766 92.1162C145.686 92.2743 146.142 92.358 147.063 92.5161C147.146 93.2043 147.184 93.5578 147.258 94.2553C146.347 94.1065 145.891 94.0321 144.97 93.8833Z" fill="#FAF3ED"/>
<path d="M158.531 100.422C158.521 100.422 158.521 100.422 158.531 100.422C157.629 100.263 156.912 99.7612 156.401 98.9428C155.713 97.8453 155.675 96.627 155.675 96.4968C156.14 96.6549 156.373 96.7293 156.838 96.8874C156.838 96.8967 156.866 97.5012 157.173 97.9941C157.433 98.4034 157.842 98.6638 158.4 98.7661C158.828 98.8498 159.284 98.4313 159.396 97.8639C159.479 97.4361 159.312 97.1478 159.182 96.9711C158.893 96.5712 158.428 96.3945 158.056 96.2829C157.982 96.2643 157.954 96.255 157.88 96.2364C157.284 96.069 156.55 95.8551 155.927 94.8413C155.192 93.6509 155.238 92.7395 155.341 92.3117C155.545 91.3909 156.317 90.9073 157.266 91.0375C158.038 91.1398 158.819 91.5955 159.358 92.2559C159.768 92.7581 160.028 93.3626 160.112 94.0229C159.656 93.9578 159.433 93.9206 158.977 93.8462C158.949 93.6044 158.865 93.3998 158.717 93.2138C158.438 92.8697 157.973 92.6093 157.517 92.5442C157.024 92.4791 156.568 92.7395 156.485 93.1394C156.466 93.2231 156.419 93.4556 156.726 93.9485C156.968 94.3298 157.294 94.4414 157.815 94.5995C157.889 94.6181 157.926 94.6367 158.001 94.6553C158.559 94.8227 159.275 95.1204 159.861 95.9016C160.456 96.7014 160.707 97.7337 160.521 98.6545C160.27 99.8356 159.423 100.58 158.531 100.422Z" fill="#FAF3ED"/>
<path d="M136.413 96.0507C135.93 95.9577 135.679 95.9205 135.195 95.8275C134.879 91.6517 134.674 89.5312 134.293 85.7832C134.777 85.8948 135.018 85.9506 135.502 86.0622C135.883 89.7823 136.097 91.9028 136.413 96.0507Z" fill="#FAF3ED"/>
<path d="M139.791 97.0373C138.424 92.7034 137.68 90.4248 136.238 86.3885C136.666 86.249 136.88 86.1839 137.299 86.0537C138.489 89.3274 139.103 91.141 140.265 94.7216C140.768 91.4758 140.981 89.8482 141.437 87.0395C141.911 87.365 142.153 87.5232 142.628 87.8487C142.088 91.234 141.828 93.2521 141.205 97.149C140.637 97.1025 140.349 97.0839 139.791 97.0373Z" fill="#FAF3ED"/>
<path d="M123.655 94.0043C123.636 94.0043 123.618 93.995 123.608 93.995C123.367 93.9485 123.246 93.9206 123.013 93.8741C122.669 89.2239 122.437 86.9547 122.027 82.7695C122.269 82.7974 122.381 82.816 122.623 82.8439C124.194 83.0485 127.319 84.5273 127.97 89.4006C128.147 90.712 127.989 91.7908 127.505 92.5999C126.426 94.3949 124.027 94.0694 123.655 94.0043ZM123.441 84.8435C123.72 87.6243 123.869 89.0844 124.12 92.0698C124.883 92.0977 125.999 91.9396 126.501 91.0933C126.761 90.6562 126.836 90.0796 126.743 89.3169C126.333 86.1455 124.436 85.1783 123.441 84.8435Z" fill="#FAF3ED"/>
<path d="M129.019 94.2731C128.684 89.9577 128.461 87.8093 128.07 83.9404C128.303 83.9776 128.414 83.9869 128.647 84.0241C128.926 84.0613 131.437 84.4612 132.786 86.3399C133.251 86.9909 133.539 87.7814 133.623 88.6278C133.92 91.948 131.037 92.3386 130.088 92.3572C130.163 93.1942 130.2 93.622 130.265 94.4684C129.763 94.394 129.512 94.3475 129.019 94.2731ZM129.465 85.9214C129.642 87.6698 129.735 88.572 129.912 90.4227C130.712 90.3855 132.544 90.0879 132.395 88.3488C132.367 87.9954 132.265 87.7164 132.069 87.4466C131.474 86.6003 130.256 86.1353 129.465 85.9214Z" fill="#FAF3ED"/>
<path d="M132.88 95.3707C132.285 93.6688 131.987 92.8131 131.383 91.1298C131.801 90.9066 132.015 90.795 132.434 90.5811C133.038 92.2458 133.345 93.0921 133.94 94.7848C133.522 95.008 133.308 95.1289 132.88 95.3707Z" fill="#FAF3ED"/>
<path d="M149.149 98.3943C148.777 94.5346 148.544 92.4607 148.098 89.001C148.321 89.0289 148.432 89.0475 148.656 89.0847C148.925 89.1219 151.353 89.5032 152.655 91.2144C153.111 91.8097 153.38 92.5258 153.455 93.2977C153.743 96.3296 151.018 96.6737 150.125 96.683C150.2 97.4456 150.237 97.8269 150.311 98.5803C149.846 98.4966 149.614 98.4594 149.149 98.3943ZM149.465 90.7959C149.66 92.377 149.753 93.2233 149.939 94.9067C150.702 94.8788 152.441 94.6184 152.283 93.0187C152.255 92.7025 152.153 92.4421 151.967 92.191C151.399 91.4284 150.237 90.9912 149.465 90.7959Z" fill="#FAF3ED"/>
<path d="M152.786 99.3798C152.228 97.8732 151.939 97.092 151.354 95.5481C151.753 95.3435 151.949 95.2505 152.349 95.0459C152.935 96.5711 153.223 97.3431 153.781 98.859C153.381 99.0729 153.186 99.1752 152.786 99.3798Z" fill="#FAF3ED"/>
<path d="M153.539 90.3965C153.744 91.2893 153.837 91.7636 154.041 92.7123C154.339 92.796 154.478 92.8425 154.776 92.9262C154.767 91.9961 154.757 91.5311 154.748 90.6662C154.264 90.5639 154.023 90.5081 153.539 90.3965Z" fill="#FAF3ED"/>
<path d="M175.279 110.383L177.642 134.508L178.237 140.572L195.693 141.195C195.647 139.446 195.591 137.698 195.517 135.959C195.228 128.425 194.726 120.948 194.057 113.508L175.279 110.383Z" fill="url(#paint7_linear_1_33)"/>
<path d="M170.174 110.484L170.304 116.669L123.663 110.707L122.584 102.337L170.174 110.484ZM142.533 117.292L143.017 122.295L169.755 124.965L169.885 121.003L142.533 117.292ZM170.88 134.702L160.371 133.642L160.557 140.012L171.048 140.487L170.88 134.702ZM155.023 133.112L156.037 139.808L143.919 139.259L143.472 131.949L155.023 133.112ZM136.934 131.289L138.599 139.017L125.495 138.506L125.095 130.089L136.934 131.289Z" fill="#2659CD"/>
<path d="M177.641 134.507L178.236 140.571L195.692 141.194C195.646 139.445 195.59 137.697 195.516 135.958C190.261 132.219 182.942 131.438 177.641 134.507Z" fill="#38D070"/>
<path d="M184.552 135.13C184.003 133.54 182.804 129.243 185.454 128.918C187.435 128.676 188.97 129.401 189.146 130.936C189.332 132.619 189.472 134.349 188.802 135.846C188.477 136.563 187.854 137.307 186.886 137.279C186.282 137.269 185.705 136.944 185.315 136.525C184.933 136.116 184.719 135.623 184.552 135.13Z" fill="#C7D0FF"/>
<path d="M185.11 131.885C179.111 129.699 177.567 113.172 185.407 114.512C188.012 114.958 189.806 115.879 190.848 118.836C192.104 122.398 192.485 127.625 190.048 130.527C188.849 131.968 186.849 132.517 185.11 131.885Z" fill="#C7D0FF"/>
<path d="M181.233 122.277C181.4 120.751 181.949 119.412 182.842 118.212C182.423 119.328 182.674 120.649 183.176 121.793C185.994 121.179 188.533 119.542 190.235 117.227C191.026 116.148 189.166 114.306 187.854 113.832C186.543 113.358 185.129 113.544 183.79 113.739C182.442 113.934 180.963 114.195 180.117 115.246C179.382 116.157 179.298 117.459 179.335 118.668C179.41 121.263 179.893 123.867 180.768 126.35C180.73 125.095 181.102 123.504 181.233 122.277Z" fill="#26264F"/>
<path d="M192.103 125.448C190.978 122.714 189.843 119.989 188.718 117.255C188.532 116.809 190.466 116.25 190.792 116.362C191.582 116.641 192.001 118.352 192.205 119.059C192.81 121.18 192.791 123.44 192.103 125.448Z" fill="#26264F"/>
<path d="M535.817 66.503C535.64 66.3077 533.594 64.8383 533.455 64.6895C531.957 63.0247 488.404 77.2077 466.511 83.69C450.989 88.2843 435.467 92.8507 419.926 97.3893C409.026 100.57 402.516 101.9 401.679 102.858C400.842 103.816 401.716 134.06 402.646 135.102C402.795 135.26 404.897 136.795 405.008 136.916C405.938 137.957 430.593 136.664 443.242 136.32C450.077 136.134 457.388 135.93 464.735 135.706C485.791 135.055 528.804 133.428 529.548 132.321C530.293 131.224 537.314 68.1678 535.817 66.503Z" fill="#2659CD"/>
<path d="M527.196 130.517C526.452 131.615 483.438 133.252 462.382 133.903C455.035 134.126 447.725 134.34 440.889 134.517C428.232 134.851 403.577 136.144 402.656 135.112C401.726 134.07 400.852 103.826 401.689 102.868C402.526 101.91 409.036 100.58 419.936 97.3991C435.467 92.8698 451.008 88.2941 466.521 83.6997C488.414 77.2174 531.967 63.0345 533.464 64.6992C534.952 66.3547 527.931 129.411 527.196 130.517Z" fill="#FAFBFF"/>
<path d="M495.099 129.076C465.273 130.695 435.298 132.573 405.426 132.834C404.263 123.412 404.161 113.656 404.57 104.179C443.947 92.8982 483.427 81.5147 523.046 71.2285C527.529 70.066 529.64 69.6103 530.626 69.4336C530.496 88.3039 528.431 108.299 524.72 126.798C514.927 128.174 504.957 128.565 495.099 129.076Z" fill="#2659CD"/>
<path d="M409.799 108.495C410.069 115.424 410.199 118.921 410.478 125.952C442.164 123.096 473.859 120.427 505.573 117.935C505.713 120.26 505.778 121.432 505.917 123.766C512.521 116.103 518.873 108.374 525.141 100.441C518.501 93.5029 511.86 86.6393 504.69 80.25C504.745 82.7518 504.773 83.998 504.838 86.5091C473.208 94.0423 441.531 101.38 409.799 108.495Z" fill="#FAFBFF"/>
<path d="M489.979 110.039C487.301 110.337 482.892 110.839 482.464 110.922C482.446 110.476 482.437 110.253 482.427 109.797C482.269 109.258 482.185 108.988 482.027 108.439C482.269 108.309 482.362 108.253 490.053 107.323C490.026 108.411 490.007 108.951 489.979 110.039Z" fill="#2659CD"/>
<path d="M490.191 113.415C488.73 107.788 488.005 105.017 486.554 99.5669C486.322 99.6041 486.21 99.632 485.977 99.6692C484.629 105.538 483.959 108.43 482.601 114.15C481.737 113.982 481.309 113.899 480.453 113.731C481.997 107.268 482.76 103.994 484.294 97.3348C485.857 97.0372 486.647 96.8884 488.21 96.5908C489.846 102.776 490.674 105.919 492.32 112.336C491.474 112.764 491.046 112.978 490.191 113.415Z" fill="#2659CD"/>
<path d="M478.101 113.945C476.836 114.103 476.213 114.177 474.948 114.335C474.176 110.848 473.795 109.118 473.023 105.686C472.335 109.35 471.991 111.173 471.303 114.791C470.047 114.949 469.415 115.023 468.159 115.182C466.727 109.815 466.011 107.174 464.588 101.994C465.444 101.557 465.881 101.333 466.736 100.887C467.908 105.165 468.494 107.332 469.666 111.74C470.401 107.909 470.773 105.974 471.498 102.077C472.698 101.864 473.293 101.752 474.493 101.538C475.311 105.202 475.72 107.053 476.548 110.792C477.608 105.881 478.138 103.398 479.199 98.376C480.064 98.4504 480.501 98.4876 481.366 98.5713C480.064 104.793 479.413 107.872 478.101 113.945Z" fill="#2659CD"/>
<path d="M427.714 120.864C426.198 121.05 424.933 120.753 423.947 120.018C422.162 118.679 421.92 116.288 421.938 114.977C421.966 113.173 422.664 111.48 423.929 110.169C424.998 109.053 426.356 108.299 427.956 108.03C431.453 107.435 433.694 109.257 433.88 113.015C434.057 116.614 432.587 119.32 429.834 120.371C429.23 120.604 428.56 120.762 427.807 120.864C427.779 120.855 427.742 120.855 427.714 120.864ZM427.816 110.057C426.877 110.225 426.096 110.643 425.473 111.285C424.663 112.122 424.189 113.331 424.18 114.596C424.161 116.344 424.654 117.711 425.547 118.381C426.124 118.818 426.896 118.985 427.826 118.827C428.384 118.744 428.858 118.632 429.267 118.465C431.397 117.628 431.741 115.284 431.648 113.48C431.555 111.629 430.82 109.536 427.872 110.029C427.853 110.048 427.835 110.048 427.816 110.057Z" fill="#2659CD"/>
<path d="M496.691 111.666C496.672 108.663 496.653 107.165 496.635 104.161C497.528 104.003 497.974 103.919 498.867 103.752C498.885 106.775 498.904 108.29 498.923 111.322C498.03 111.462 497.583 111.527 496.691 111.666Z" fill="#2659CD"/>
<path d="M497.844 107.722C495.036 103.388 493.631 101.295 490.832 97.2313C491.548 96.4407 491.911 96.0501 492.636 95.2503C494.71 98.2636 495.743 99.8074 497.817 102.97C499.788 99.1843 500.765 97.2592 502.727 93.3438C503.453 93.8553 503.815 94.1064 504.55 94.6272C501.871 99.9935 500.532 102.616 497.844 107.722Z" fill="#2659CD"/>
<path d="M446.851 117.952C445.958 118.045 445.512 118.083 444.619 118.176C444.842 113.042 444.945 110.475 445.168 105.332C446.061 105.183 446.507 105.109 447.4 104.96C447.177 110.168 447.065 112.763 446.851 117.952Z" fill="#2659CD"/>
<path d="M436.156 119.274C436.138 114.391 436.138 111.955 436.119 107.081C437.012 106.895 437.458 106.802 438.351 106.616C438.37 111.545 438.37 114.01 438.388 118.948C437.496 119.079 437.049 119.144 436.156 119.274Z" fill="#2659CD"/>
<path d="M444.731 118.037C441.448 113.926 439.811 111.973 436.537 108.244C437.272 107.611 437.635 107.295 438.36 106.653C441.634 110.401 443.271 112.364 446.554 116.493C445.828 117.116 445.456 117.423 444.731 118.037Z" fill="#2659CD"/>
<path d="M459.036 116.558C455.446 116.995 453.651 117.219 450.07 117.656C450.21 112.289 450.284 109.611 450.424 104.245C454.023 103.594 455.818 103.268 459.408 102.617C459.389 103.566 459.38 104.04 459.352 104.989C456.646 105.444 455.297 105.677 452.591 106.133C452.498 109.713 452.451 111.508 452.358 115.089C455.046 114.726 456.385 114.549 459.073 114.187C459.064 115.135 459.054 115.61 459.036 116.558Z" fill="#2659CD"/>
<path d="M452.423 112.094C452.423 111.183 452.423 110.727 452.414 109.806C454.59 109.416 455.678 109.22 457.855 108.82C457.855 109.76 457.855 110.225 457.864 111.164C455.688 111.545 454.6 111.731 452.423 112.094Z" fill="#2659CD"/>
<path d="M460.482 2.5625C454.381 7.79856 443.369 9.84463 435.706 7.61256C433.064 6.84063 430.786 5.58509 429.27 3.87384C429.084 3.65993 428.889 3.42743 428.731 3.17632C428.535 3.54833 428.312 3.92964 428.089 4.28305C427.345 5.50139 426.508 6.69183 425.578 7.84506C419.133 15.8991 408.763 22.0559 398.914 23.6742C397.844 23.8137 396.765 23.7765 395.826 23.6463C390.962 44.8788 388.06 91.7151 423.327 88.3391C423.467 88.3298 423.615 88.3205 423.755 88.2926C423.811 88.2926 423.857 88.2833 423.922 88.274C424.099 88.2461 424.183 88.2368 424.359 88.2089C424.415 88.1996 424.471 88.1903 424.527 88.1717C430.432 87.2044 436.18 84.4236 441.072 79.9874C461.988 61.0334 463.551 28.9009 460.482 2.5625Z" fill="#2659CD"/>
<path d="M439.119 78.3497C434.218 82.7952 428.479 85.5667 422.574 86.534C422.518 86.5526 422.462 86.5619 422.406 86.5712C422.23 86.5991 422.146 86.6084 421.969 86.6363C421.913 86.6456 421.858 86.6549 421.802 86.6549C421.662 86.6735 421.513 86.6828 421.374 86.7014C386.107 90.0681 389.009 43.2411 393.873 22.0086C394.812 22.1388 395.891 22.176 396.961 22.0365C407.907 20.5949 420.156 12.4107 426.126 2.64536C426.359 2.29195 426.573 1.91064 426.768 1.53862C426.926 1.78973 427.122 2.02224 427.308 2.23615C428.823 3.9381 431.093 5.20294 433.743 5.97486C441.407 8.20693 452.428 6.17017 458.519 0.924805C461.607 27.2446 460.045 59.3771 439.119 78.3497Z" fill="#2659CD"/>
<path d="M391.909 44.0963C413.83 39.3811 435.76 34.6844 457.69 29.9971C456.063 43.1012 453.663 55.4892 446.642 66.9378C441.313 75.6429 432.961 82.925 422.619 84.8037C422.573 84.813 422.545 84.813 422.498 84.8223C422.48 84.8316 422.47 84.8316 422.461 84.8409C422.321 84.8595 422.247 84.8688 422.107 84.8967C422.098 84.8967 422.089 84.8967 422.08 84.8967C422.024 84.906 422.005 84.906 421.949 84.9153C414.063 86.3382 403.888 81.7997 399.34 75.4755C392.97 66.5937 391.017 54.9125 391.909 44.0963Z" fill="#FAFBFF"/>
<path d="M442.419 23.8766C441.033 24.2393 438.755 24.8346 438.522 24.9183C438.522 24.6765 438.522 24.5462 438.522 24.3044C438.438 24.0347 438.392 23.8952 438.299 23.6255C438.457 23.5139 438.494 23.4767 442.512 22.4258C442.475 23.0117 442.456 23.3 442.419 23.8766Z" fill="#FAFBFF"/>
<path d="M442.429 25.8764C441.787 22.6864 441.471 21.096 440.839 17.9339C440.746 17.9618 440.699 17.9711 440.615 17.999C439.788 21.561 439.378 23.3374 438.551 26.8715C438.086 26.8715 437.853 26.8715 437.379 26.8808C438.318 22.891 438.783 20.8821 439.723 16.8644C440.569 16.604 440.987 16.4738 441.834 16.2227C442.55 19.7754 442.903 21.5703 443.619 25.1695C443.145 25.4392 442.903 25.588 442.429 25.8764Z" fill="#FAFBFF"/>
<path d="M418.91 31.922C419.05 28.3786 419.124 26.6116 419.273 23.0775C419.505 22.9938 419.617 22.9473 419.849 22.8636C420.184 22.7334 423.16 21.6638 424.462 22.7334C424.909 23.0961 425.113 23.682 425.067 24.4167C424.881 27.4765 421.179 29.2343 420.203 29.6528C420.175 30.4154 420.156 30.7967 420.128 31.5593C419.645 31.6988 419.403 31.7732 418.91 31.922ZM420.426 24.0075C420.361 25.7188 420.324 26.5651 420.259 28.2763C421.161 27.8671 423.746 26.5465 423.858 24.7608C423.877 24.4074 423.793 24.1563 423.579 23.9796C422.937 23.4495 421.403 23.7378 420.426 24.0075Z" fill="#FAFBFF"/>
<path d="M423.402 30.9454C422.919 29.7084 422.677 29.0946 422.193 27.8577C422.649 27.5043 422.872 27.3276 423.328 26.9648C423.812 28.1925 424.053 28.8156 424.537 30.0525C424.091 30.4153 423.858 30.592 423.402 30.9454Z" fill="#FAFBFF"/>
<path d="M428.719 29.3833C427.603 29.6902 426.775 29.56 426.264 29.0113C425.585 28.2859 425.724 27.114 425.743 26.9745C426.227 26.8908 426.468 26.8536 426.943 26.7699C426.943 26.7792 426.859 27.4581 427.222 27.8301C427.519 28.1371 428.04 28.1836 428.784 27.979C428.784 27.979 428.784 27.979 428.793 27.979C429.389 27.8115 430.095 27.0582 430.356 26.3421C430.514 25.8957 430.458 25.5795 430.198 25.3656C429.854 25.0866 429.258 25.1703 428.775 25.2726C428.682 25.2912 428.645 25.3005 428.552 25.3191C427.826 25.4772 426.933 25.6818 426.338 25.0029C425.817 24.4169 425.724 23.6171 426.05 22.7429C426.468 21.6548 427.547 20.5852 428.691 20.1481C429.649 19.7854 430.542 19.8133 431.1 20.2318C431.509 20.548 431.723 21.0688 431.714 21.7292C431.23 21.8966 430.988 21.9896 430.495 22.157C430.495 21.8687 430.412 21.6548 430.235 21.5246C429.919 21.2827 429.314 21.2827 428.7 21.5153C428.022 21.7757 427.343 22.3895 427.129 22.9475C427.082 23.0684 426.943 23.4311 427.296 23.831C427.566 24.1379 428.003 24.0635 428.682 23.9054C428.775 23.8868 428.821 23.8775 428.914 23.8496C429.593 23.7008 430.449 23.5985 431.053 24.0821C431.677 24.575 431.816 25.4679 431.444 26.5188C430.998 27.8487 429.826 29.0764 428.719 29.3833Z" fill="#FAFBFF"/>
<path d="M405.265 35.5395C404.782 35.6604 404.54 35.7255 404.047 35.8464C404.335 32.4611 404.475 30.7684 404.763 27.3924C405.247 27.2622 405.488 27.1878 405.972 27.0576C405.693 30.4522 405.544 32.1449 405.265 35.5395Z" fill="#FAFBFF"/>
<path d="M399.639 37.0931C399.806 33.7822 399.89 32.1268 400.057 28.8252C400.541 28.6671 400.783 28.5927 401.276 28.4346C401.108 31.7455 401.024 33.4102 400.857 36.7304C400.373 36.8792 400.122 36.9443 399.639 37.0931Z" fill="#FAFBFF"/>
<path d="M404.102 35.6788C402.54 33.1863 401.768 31.9586 400.215 29.5406C400.643 29.1407 400.857 28.936 401.284 28.5361C402.828 30.9635 403.609 32.1911 405.172 34.6929C404.744 35.0835 404.53 35.2788 404.102 35.6788Z" fill="#FAFBFF"/>
<path d="M398.15 37.6232C397.666 37.7534 397.415 37.8278 396.932 37.958C397.173 34.5355 397.294 32.8335 397.536 29.4203C398.02 29.2808 398.262 29.2064 398.745 29.0576C398.513 32.4801 398.392 34.1914 398.15 37.6232Z" fill="#FAFBFF"/>
<path d="M408.695 34.7113C408.853 31.6329 408.937 30.0983 409.105 27.0292C409.588 26.8804 409.83 26.806 410.323 26.6572C410.165 29.7356 410.081 31.2795 409.923 34.3579C409.43 34.4974 409.179 34.5718 408.695 34.7113Z" fill="#FAFBFF"/>
<path d="M412.649 26.351C410.259 27.0392 409.068 27.3926 406.688 28.0808C406.725 27.5507 406.743 27.2903 406.781 26.7602C409.161 26.0627 410.361 25.7092 412.742 25.0117C412.705 25.5511 412.686 25.8115 412.649 26.351Z" fill="#FAFBFF"/>
<path d="M434.496 27.6632C434.626 24.3988 434.691 22.7619 434.822 19.4975C435.305 19.3487 435.547 19.265 436.031 19.1162C435.9 22.3899 435.835 24.0268 435.714 27.3005C435.231 27.4493 434.98 27.5237 434.496 27.6632Z" fill="#FAFBFF"/>
<path d="M438.366 18.8282C435.985 19.535 434.785 19.8791 432.404 20.586C432.432 20.0187 432.451 19.7396 432.479 19.1816C434.86 18.4748 436.05 18.1214 438.44 17.4053C438.412 17.9726 438.394 18.2516 438.366 18.8282Z" fill="#FAFBFF"/>
<path d="M417.607 32.1182C415.728 32.639 414.789 32.8994 412.91 33.4202C413.143 29.9605 413.264 28.2399 413.496 24.7802C415.375 24.2315 416.314 23.9618 418.193 23.4131C418.156 23.9618 418.137 24.2315 418.1 24.7709C416.705 25.1708 416.007 25.3754 414.612 25.7754C414.454 28.1562 414.37 29.3467 414.212 31.7275C415.598 31.3369 416.295 31.1416 417.681 30.751C417.663 31.2997 417.644 31.5694 417.607 32.1182Z" fill="#FAFBFF"/>
<path d="M414.322 29.6637C414.341 29.1243 414.35 28.8639 414.378 28.3245C415.513 27.9711 416.08 27.7851 417.215 27.4316C417.196 27.9711 417.187 28.2408 417.159 28.7802C416.024 29.1336 415.457 29.3103 414.322 29.6637Z" fill="#FAFBFF"/>
<path d="M445.264 24.3048C445.375 20.9567 445.431 19.2827 445.552 15.9346C446.036 15.7765 446.277 15.7021 446.761 15.5439C446.649 18.9013 446.594 20.5754 446.482 23.9328C445.989 24.0816 445.747 24.156 445.264 24.3048Z" fill="#FAFBFF"/>
<path d="M449.096 15.2653C446.715 15.9722 445.525 16.3256 443.135 17.0324C443.163 16.4558 443.181 16.1675 443.209 15.5909C445.59 14.8747 446.78 14.5213 449.161 13.7959C449.133 14.3818 449.124 14.6794 449.096 15.2653Z" fill="#FAFBFF"/>
<path d="M454.297 21.5898C452.418 22.1292 451.479 22.3989 449.609 22.929C449.786 19.1624 449.879 17.2837 450.056 13.5264C451.934 12.9684 452.874 12.6894 454.752 12.1221C454.725 12.7173 454.715 13.0149 454.687 13.6008C453.292 14.01 452.595 14.2146 451.2 14.6331C451.079 17.2279 451.014 18.5207 450.893 21.1154C452.279 20.7155 452.976 20.5109 454.362 20.111C454.334 20.7062 454.315 21.0038 454.297 21.5898Z" fill="#FAFBFF"/>
<path d="M450.957 18.8555C450.966 18.2696 450.976 17.9813 450.985 17.3953C452.12 17.0233 452.678 16.8373 453.812 16.4746C453.803 17.0605 453.794 17.3581 453.784 17.9441C452.659 18.3161 452.092 18.4928 450.957 18.8555Z" fill="#FAFBFF"/>
<path d="M415.015 60.5106C412.02 61.1337 409.472 59.8968 408.458 57.2183C407.574 54.9118 407.993 51.9357 409.555 49.2107C411.136 46.4486 413.62 44.4025 416.196 43.7515C420.325 42.7191 423.59 45.7975 423.338 50.4756C423.329 50.7174 423.301 50.9685 423.273 51.2103C422.762 55.0978 420.018 58.6784 416.428 60.0735C415.945 60.2781 415.47 60.4176 415.015 60.5106ZM415.926 48.2528C414.726 48.5411 413.555 49.5084 412.801 50.829C412.057 52.1403 411.862 53.5075 412.271 54.5863C412.922 56.2976 414.624 56.3255 416.001 55.7767C417.321 55.2466 418.958 53.8702 419.246 51.7311C419.265 51.6195 419.274 51.5172 419.274 51.4149C419.404 49.3131 417.805 47.8064 415.926 48.2528Z" fill="#2659CD"/>
<path d="M414.203 75.7366C413.162 75.9133 412.129 75.8854 411.143 75.6529C408.53 75.0205 406.698 72.9837 406.131 70.0635C405.563 67.1525 406.391 63.8044 408.335 61.0329C410.353 58.1591 413.366 56.2246 416.417 55.9177C419.486 55.6015 422.025 57.0152 423.224 59.7122C423.801 61.0236 424.043 62.493 423.931 64.0834C423.699 67.3478 422.006 70.7331 419.393 73.0861C417.765 74.5276 415.98 75.4297 414.203 75.7366ZM415.143 60.5772C413.664 60.8841 412.259 61.8327 411.311 63.1905C410.26 64.6879 409.823 66.5387 410.139 68.1476C410.455 69.7473 411.432 70.854 412.827 71.1795C414.789 71.6352 416.472 70.4634 417.3 69.7193C418.751 68.408 419.737 66.5107 419.858 64.7809C419.914 63.9718 419.793 63.2091 419.486 62.5302C418.844 61.0887 417.44 60.3261 415.728 60.4842C415.533 60.5121 415.338 60.54 415.143 60.5772Z" fill="#2659CD"/>
<path d="M429.755 72.6111C428.118 72.8343 427.309 72.9459 425.672 73.1691C426.481 62.232 431.819 52.9224 438.423 44.422C438.432 44.2545 438.432 44.1708 438.441 44.0034C433.419 45.2032 430.908 45.7984 425.876 46.9888C425.979 45.1474 426.025 44.2266 426.128 42.3852C432.768 40.7483 436.079 39.9206 442.719 38.2559C442.58 41.111 442.515 42.5433 442.375 45.4078C441.975 45.9565 441.78 46.2262 441.38 46.7656C435.419 54.4198 430.424 62.7156 429.755 72.6111Z" fill="#2659CD"/>
<path d="M200.419 62.4011C199.954 58.3276 198.828 53.7053 196.801 49.2505C191.462 37.5321 180.032 27.0879 167.43 22.261C160.79 19.7221 153.917 19.2291 148.197 21.3961C146.3 22.1122 144.533 23.126 142.924 24.4652C141.501 25.6556 140.274 27.0507 139.241 28.6224C130.025 42.545 137.028 63.2567 147.5 74.7147C154.261 82.1084 163.971 87.5956 174.517 88.4326C178.489 88.7488 182.404 88.2838 185.892 87.0841C186.505 86.8701 187.091 86.6283 187.668 86.3679C187.854 86.2842 188.031 86.2005 188.217 86.1075C188.765 85.8378 189.305 85.5588 189.816 85.2612C197.257 80.918 201.293 70.018 200.419 62.4011Z" fill="#294B87"/>
<path d="M201.535 61.2777C202.41 68.8854 198.383 79.7946 190.924 84.1285C189.724 84.8261 188.403 85.4678 186.999 85.9514C183.511 87.1511 179.596 87.6254 175.625 87.2999C165.078 86.4536 155.369 80.9757 148.607 73.582C138.135 62.124 131.132 41.4123 140.349 27.4898C141.381 25.9273 142.609 24.523 144.032 23.3325C150.43 17.9942 159.693 17.7524 168.538 21.1377C181.14 25.9552 192.579 36.4087 197.908 48.1271C199.945 52.5727 201.061 57.2042 201.535 61.2777Z" fill="#2659CD"/>
<path d="M186.125 84.519C172.983 89.318 157.805 81.4406 149.612 72.6891C138.824 61.166 131.402 36.1017 145.269 24.8763C162.139 11.2142 189.501 33.0326 196.485 48.406C198.41 52.6562 199.573 56.9623 199.926 60.9614C200.754 70.4849 196.402 80.7617 186.125 84.519ZM198.308 60.6917C197.973 56.8786 196.941 52.7864 195.044 48.7315C188.561 34.902 163.051 12.3302 146.533 26.4573C133.364 37.7293 140.405 60.9056 150.644 71.8706C158.996 80.8175 172.863 87.1789 185.251 83.1426C194.793 80.0363 199.099 69.7316 198.308 60.6917Z" fill="#FAFBFF"/>
<path d="M176.191 42.0629C177.233 40.5655 177.754 39.8215 178.795 38.3428C188.607 46.2294 194.997 58.0408 187.24 69.0523C184.673 67.1737 183.39 66.225 180.823 64.3278C187.696 56.8783 184.264 47.4013 176.191 42.0629Z" fill="white"/>
<path d="M178.107 60.8682C183.064 64.5325 185.548 66.3367 190.486 69.9173C186.413 70.9311 184.376 71.4426 180.321 72.5121C179.428 67.862 178.991 65.5369 178.107 60.8682Z" fill="white"/>
<path d="M176.552 70.3086C177.529 72.4755 178.022 73.5637 178.998 75.7213C165.597 81.0597 154.771 68.4299 150.623 58.5716C152.967 57.716 154.148 57.2975 156.501 56.4697C158.938 64.3192 166.034 74.3449 176.552 70.3086Z" fill="white"/>
<path d="M160.203 56.7767C155.692 58.3856 153.442 59.2134 148.959 60.906C149.257 56.1815 149.405 53.8285 149.712 49.1318C153.916 52.2288 156.009 53.7541 160.203 56.7767Z" fill="white"/>
<path d="M152.391 48.7225C150.261 48.0343 149.191 47.6809 147.062 46.9927C145.992 35.4231 154.883 25.8159 167.885 32.4005C168.145 35.2929 168.266 36.7344 168.527 39.6268C158.045 35.2743 151.21 36.7716 152.391 48.7225Z" fill="white"/>
<path d="M167.532 42.9646C167.001 37.3844 166.741 34.5943 166.211 29.0234C170.219 32.8924 172.21 34.8082 176.199 38.6027C172.721 40.314 170.991 41.1882 167.532 42.9646Z" fill="white"/>
<path d="M252.865 65.9918C244.783 49.5302 235.789 33.4965 226.331 17.8256C225.178 15.9097 223.987 13.9845 222.788 12.0594C221.234 9.5483 217.831 8.98099 216.51 11.0084C211.832 18.1511 207.321 25.5448 203.183 32.9943C198.709 41.0484 194.422 49.2233 190.339 57.4727C189.251 59.6676 191.176 62.7925 193.854 63.1924C203.08 64.5688 212.343 65.8895 221.588 67.1171C225.206 67.6007 228.851 68.0564 232.469 68.5028C238.291 69.219 244.122 69.9165 249.944 70.5582C252.539 70.8372 254.074 68.4377 252.865 65.9918Z" fill="#FAFBFF"/>
<path d="M250.976 69.2935C245.163 68.6518 239.332 67.9543 233.5 67.2382C229.883 66.7918 226.246 66.3361 222.619 65.8524C213.375 64.6155 204.112 63.3042 194.886 61.9277C192.207 61.5278 190.282 58.4029 191.37 56.208C195.453 47.9587 199.74 39.7837 204.214 31.7297C208.352 24.2802 212.863 16.8957 217.541 9.7438C218.862 7.71634 222.266 8.28365 223.819 10.7947C225.019 12.7199 226.209 14.6451 227.362 16.5609C236.821 32.2319 245.805 48.2656 253.896 64.7271C255.086 67.1731 253.552 69.5819 250.976 69.2935Z" fill="#FAFBFF"/>
<path d="M194.81 60.4962C194.019 60.3753 193.294 59.8638 192.847 59.1384C192.419 58.4315 192.354 57.6689 192.652 57.0551C200.501 41.1888 209.216 25.5922 218.786 10.7025C219.158 10.1165 219.874 9.84683 220.674 9.98634C221.473 10.1258 222.19 10.6188 222.636 11.3442C233.396 28.8008 243.543 46.7969 252.639 65.1463C252.983 65.8346 252.974 66.56 252.62 67.118C252.257 67.6946 251.616 67.9829 250.853 67.8899C232.29 65.7881 213.717 63.2956 195.2 60.552C195.209 60.552 194.81 60.4962 194.81 60.4962ZM245.31 62.1517C237.74 48.0896 229.695 34.3717 221.213 20.8212C213.671 32.3163 206.677 44.0068 200.036 56.0414C215.103 58.2548 230.188 60.3567 245.31 62.1517Z" fill="#2659CD"/>
<path d="M215.363 56.1701C215.363 56.1701 211.503 45.3353 213.605 44.4425C215.707 43.5496 221.092 48.0045 222.208 47.7534C223.324 47.5023 220.729 35.5049 220.729 35.5049C222.264 35.6444 223.026 35.7188 224.561 35.8583C224.561 35.8583 226.384 49.2507 224.765 50.4876C223.147 51.7246 216.795 46.0979 215.93 46.8884C215.065 47.679 219.288 56.7467 219.288 56.7467C217.716 56.5235 216.925 56.4026 215.363 56.1701Z" fill="#2659CD"/>
<path d="M226.31 37.1794C223.558 36.9748 222.181 36.8724 219.438 36.6678C220.386 33.9987 220.86 32.6594 221.818 29.9902C223.613 32.8733 224.515 34.3056 226.31 37.1794Z" fill="#2659CD"/>
<path d="M427.772 140.366C427.66 141.901 427.418 143.435 427.065 144.998C421.773 149.211 414.724 151.406 408.26 151.787C404.902 151.192 402.708 149.509 400.41 146.644C399.955 146.067 399.573 145.37 399.36 144.607C399.36 144.598 399.35 144.57 399.341 144.551C399.332 144.533 399.332 144.514 399.332 144.496C399.173 143.928 399.108 143.333 399.164 142.757C399.183 142.478 399.248 142.18 399.322 141.91C400.615 137.753 403.554 132.284 407.274 130.424C410.52 128.806 414.472 128.285 417.979 128.778C421.197 129.215 424.442 129.429 427.167 131.736C427.809 134.637 427.995 137.502 427.772 140.366Z" fill="#239EB1"/>
<path d="M427.772 140.366C427.735 140.45 427.679 140.534 427.623 140.617C427.363 137.995 427.102 135.391 426.842 132.768C421.513 131.94 416.007 131.364 410.817 132.963C405.628 134.572 400.782 138.748 399.359 144.626C399.359 144.635 399.35 144.663 399.35 144.672C399.341 144.635 399.341 144.607 399.341 144.57C399.331 144.551 399.331 144.533 399.331 144.514C399.229 143.919 399.183 143.342 399.164 142.775C399.183 142.496 399.248 142.198 399.322 141.929C400.615 137.772 403.554 132.303 407.274 130.443C410.52 128.825 414.472 128.304 417.979 128.797C421.196 129.234 424.442 129.448 427.167 131.754C427.809 134.637 427.995 137.502 427.772 140.366Z" fill="#24A3B1"/>
<path d="M399.314 141.919C402.421 128.294 412.809 126.508 423.449 129.317C424.881 129.745 426.285 130.451 427.485 131.484C428.22 134.358 428.22 137.436 427.773 140.366C427.811 137.464 427.364 134.637 426.797 131.837L426.936 132.07C424.704 130.163 421.877 129.698 419.152 129.354C413.832 128.536 407.555 129.075 403.825 133.958C402.03 136.376 400.496 139.045 399.314 141.919Z" fill="#FFFBE6"/>
<path d="M193.627 222.943L209.456 222.059C209.456 222.059 207.001 184.486 202.899 183.584C198.798 182.691 196.436 181.808 195.124 183.082C193.813 184.356 191.172 189.908 191.562 194.633C191.953 199.376 193.627 222.943 193.627 222.943Z" fill="#0C517E"/>
<path d="M240.939 234.698L263.139 234.577C263.139 234.577 267.045 186.113 262.088 185.211C257.131 184.309 249.849 181.528 247.97 183.723C246.092 185.918 244.576 186.336 242.781 193.619C240.986 200.891 240.939 234.698 240.939 234.698Z" fill="url(#paint8_linear_1_33)"/>
<path d="M290.629 234.578C290.155 244.929 288.825 252.444 286.612 256.378C284.733 259.726 276.074 262.181 272.568 262.479C264.123 263.186 255.883 260.786 255.883 260.786L254.842 189.332C254.842 189.332 265.881 190.197 274.819 191.294L279.404 225.306L290.639 228.923C290.694 231.118 290.704 233.043 290.629 234.578Z" fill="#0C517E"/>
<path d="M268.3 228.551C268.802 248.333 263.603 262.85 256.675 260.972C249.746 259.093 243.719 241.534 243.217 221.752C242.715 201.971 247.914 187.453 254.842 189.332C261.762 191.21 267.788 208.769 268.3 228.551Z" fill="#0C517E"/>
<path d="M261.4 228.42C261.847 240.045 259.745 248.443 256.694 247.178C253.644 245.914 250.816 235.469 250.361 223.853C249.905 212.237 252.016 203.83 255.067 205.095C258.117 206.35 260.954 216.794 261.4 228.42Z" fill="#BBCDCF"/>
<path d="M261.112 228.198C261.54 237.508 260.275 244.176 258.294 243.097C256.313 242.018 254.351 233.592 253.923 224.292C253.495 214.982 254.76 208.314 256.741 209.393C258.731 210.472 260.684 218.888 261.112 228.198Z" fill="white"/>
<path d="M256.693 212.954C255.903 213.419 255.726 214.684 255.67 215.753C255.298 223.519 256.163 231.331 258.209 238.595C256.814 231.387 255.531 223.966 256.814 216.637C256.898 216.172 257.019 215.66 257.353 215.428C257.707 215.186 258.163 215.4 258.423 215.772C258.683 216.144 258.786 216.646 258.879 217.121C258.674 215.456 257.744 214.014 256.693 212.954Z" fill="white"/>
<path d="M409.599 218.051C410.641 198.279 418.527 183.798 427.223 185.686C427.223 185.686 427.223 185.686 427.232 185.686C427.297 185.686 441.304 186.579 452.604 187.695L455.561 221.697L469.614 225.342C469.511 227.528 469.353 229.462 469.13 230.988C467.642 241.33 465.298 248.835 462.136 252.76C459.449 256.099 448.177 258.526 443.657 258.814C432.803 259.502 422.471 257.084 422.471 257.084L422.48 256.982C414.305 254.025 408.604 237.061 409.599 218.051Z" fill="#0C517E"/>
<path d="M224.043 219.959C224.024 227.789 223.392 233.481 222.136 236.476C221.067 239.024 215.803 240.959 213.655 241.21C208.484 241.824 203.35 240.075 203.35 240.075L200.857 186.068C200.857 186.068 207.675 186.626 213.199 187.38L216.9 213.049L223.904 215.68C223.987 217.336 224.043 218.796 224.043 219.959Z" fill="#0C517E"/>
<path d="M210.426 215.353C211.254 230.307 208.426 241.319 204.12 239.961C199.814 238.603 195.648 225.378 194.829 210.433C194.002 195.478 196.829 184.466 201.135 185.824C205.441 187.182 209.598 200.407 210.426 215.353Z" fill="#0C517E"/>
<path d="M205.896 215.56C206.472 224.34 205.393 230.71 203.487 229.78C201.58 228.85 199.562 220.982 198.985 212.203C198.409 203.423 199.488 197.053 201.394 197.983C203.301 198.913 205.319 206.772 205.896 215.56Z" fill="#BBCDCF"/>
<path d="M205.72 215.392C206.222 222.423 205.618 227.473 204.372 226.673C203.125 225.874 201.702 219.522 201.2 212.491C200.698 205.46 201.303 200.409 202.549 201.209C203.795 202.009 205.209 208.361 205.72 215.392Z" fill="white"/>
<path d="M202.606 203.906C202.131 204.26 202.057 205.227 202.048 206.036C202.02 211.904 202.754 217.81 204.205 223.288C203.164 217.857 202.178 212.258 202.782 206.706C202.82 206.352 202.885 205.962 203.08 205.794C203.294 205.608 203.582 205.766 203.75 206.045C203.917 206.324 203.991 206.696 204.066 207.059C203.889 205.785 203.275 204.697 202.606 203.906Z" fill="white"/>
<path d="M182.402 188.318C182.235 198.204 183.881 209.076 187.155 220.264L191.107 221.111L193.637 222.934C193.637 222.934 189.498 184.477 195.506 183.965C201.524 183.445 203.951 225.966 203.951 225.966L212.861 225.612C220.487 226.421 229.917 228.319 238.855 230.83L238.697 232.959L241.385 234.047C241.385 234.047 239.85 185.891 249.29 185.416C258.739 184.933 263.092 239.423 263.092 239.423L275.108 239.237C280.148 241.916 285.942 243.757 292.22 245.078C356.243 246.817 417.225 245.784 474.208 241.06C479.621 237.489 483.527 232.652 486.066 226.682C488.335 212.601 488.549 197.144 487.638 180.943C484.875 178.813 480.895 177 475.957 175.437C475.957 175.437 475.845 174.916 475.65 174.051C474.087 167.699 470.916 161.719 466.405 156.027C466.368 156.018 466.34 155.999 466.303 155.99C448.139 149.424 430.45 144.263 413.617 141.631C411.468 137.855 409.227 134.153 406.921 130.507C397.611 115.822 387.102 102.29 375.188 90.1255C334.099 81.4298 292.62 79.5697 250.806 83.8664C236.232 88.0237 222.924 94.1061 211.149 102.541C204.444 115.85 200.101 129.456 197.897 143.342C193.776 146.299 189.805 150.215 186.625 155.172C185.648 163.719 186.253 174.265 186.866 185.528C185.137 186.783 183.844 187.193 182.402 188.318Z" fill="#24A3B1"/>
<path d="M279.795 153.451C279.953 153.972 280.12 154.493 280.251 155.014C282.436 164.23 284.185 172.796 285.487 180.729L290.909 187.304C293.411 199.581 293.848 218.07 293.113 231.936L292.211 245.096C318.521 245.812 344.32 246.054 369.524 245.766C395.23 245.478 420.332 244.631 444.763 243.171C454.687 242.576 464.499 241.878 474.199 241.078C479.612 237.507 483.518 232.671 486.057 226.7C488.326 212.62 488.54 197.163 487.628 180.961C484.866 178.832 480.886 177.018 475.947 175.456C475.947 175.456 475.836 174.935 475.64 174.07C474.078 167.718 470.907 161.738 466.396 156.046C466.359 156.037 466.331 156.018 466.294 156.009L437.007 163.003C403.963 165.374 372.063 165.532 341.958 162.128C341.967 162.138 297.177 156.037 279.795 153.451Z" fill="#24A3B1"/>
<path d="M253.064 86.6197C255.213 90.8141 257.333 95.3898 259.407 100.338C263.685 110.456 267.805 122.044 271.832 134.702C272.623 137.185 273.423 139.715 274.204 142.291C289.475 141.324 304.876 140.673 320.408 140.329C348.383 139.687 376.768 140.013 405.533 141.277C408.23 141.389 410.928 141.519 413.625 141.659C412.016 138.822 410.351 136.032 408.64 133.289C408.072 132.368 407.505 131.447 406.928 130.545C397.619 115.86 387.11 102.328 375.196 90.1631C367.486 89.0098 359.841 88.0147 352.252 87.1684C329.699 84.6852 307.694 83.6529 286.332 84.2667C275.05 84.5736 263.964 85.3455 253.064 86.6197Z" fill="#0C517E"/>
<path d="M377.439 100.197C388.599 111.655 397.537 124.238 404.791 137.677C373.654 136.44 344.693 135.529 322.921 135.715L316.336 99.239C335.625 95.3887 356.048 95.9281 377.439 100.197Z" fill="#104B76"/>
<path d="M200.668 143.035L204.379 151.145L204.583 151.563C205.197 151.712 205.848 151.852 206.546 151.991C210.275 152.726 215.149 153.302 220.71 153.721C221.947 153.823 223.23 153.907 224.532 153.981C234.186 154.567 245.951 155.553 256.321 155.2C258.618 151.377 263.436 145.695 267.89 142.886C267.221 140.198 266.495 137.501 265.742 134.804C262.31 122.714 258.051 110.651 253.41 100.319C251.485 96.0313 249.485 92.0415 247.448 88.4795C243.263 89.0282 238.92 90.1907 234.437 91.9299C232.819 92.5623 231.182 93.2598 229.508 94.0411C225.862 95.743 222.133 97.7798 218.329 100.123C217.343 100.728 216.348 101.36 215.344 102.002C214.563 102.514 213.772 103.044 212.991 103.565C207.262 114.241 203.467 127.866 200.668 143.035Z" fill="#0C517E"/>
<path d="M259.398 100.337C263.677 110.456 267.797 122.044 271.824 134.701L312.336 133.985C312.336 133.985 309.759 104.029 309.369 102.801C291.708 101.723 274.893 100.476 259.398 100.337Z" fill="#104B76"/>
<path d="M206.814 135.855L265.732 134.814C262.3 122.723 258.04 110.661 253.4 100.328C239.737 100.486 227.182 101.649 216.068 104.774L206.814 135.855Z" fill="#104B76"/>
<path d="M433.203 161.291L438.634 182.347L425.595 206.899L370.463 209.476L341.372 186.848L334.248 159.412L433.203 161.291Z" fill="#239EB1"/>
<path d="M336.444 160.519C339.438 166.471 341.857 174.748 342.721 186.327L285.506 180.71C285.506 180.71 276.252 157.096 278.196 154.157C280.131 151.228 336.444 160.519 336.444 160.519Z" fill="#239EB1"/>
<path d="M432.088 162.78C432.088 162.78 436.413 175.214 437.175 182.654C444.801 182.999 475.948 175.465 475.948 175.465C475.948 175.465 475.836 174.945 475.641 174.08C474.079 167.728 470.907 161.747 466.397 156.056C457.589 156.995 441.165 160.538 432.088 162.78Z" fill="#239EB1"/>
<path d="M298.228 229.044C298.237 229.109 298.237 229.146 298.237 229.146C298.237 229.146 343.641 229.016 346.478 227.965C349.315 226.895 360.745 213.205 360.196 211.578C359.647 209.932 340.544 197.227 340.544 197.227C340.544 197.227 312.541 195.312 302.106 195.525H302.032C300.06 195.581 298.721 195.711 298.358 195.935C296.163 197.311 298.098 227.026 298.228 229.044Z" fill="#239EB1"/>
<path d="M298.228 229.044C311.118 228.96 337.279 228.69 339.428 227.9C342.264 226.83 353.694 213.14 353.146 211.513C352.597 209.866 333.494 197.162 333.494 197.162C333.494 197.162 314.652 195.87 302.115 195.525H302.041C300.069 195.581 298.73 195.711 298.367 195.935C296.163 197.311 298.097 227.025 298.228 229.044Z" fill="#239EB1"/>
<path d="M446.821 224.402C446.932 224.468 447.035 224.495 447.128 224.523C452.215 225.863 481.455 222.468 481.455 222.468C484.087 214.247 485.073 201.812 483.706 192.103C481.632 191.042 459.702 193.684 450.727 195.014C450.494 195.032 450.28 195.069 450.057 195.088C448.393 195.348 447.295 195.525 446.997 195.618C445.23 196.148 438.274 205.783 436.888 207.774C435.54 209.708 443.91 222.868 446.821 224.402Z" fill="#24A3B1"/>
<path d="M446.818 224.403C457.216 223.984 473.027 222.245 473.027 222.245C475.64 214.424 476.635 202.584 475.249 193.331C473.687 192.568 460.797 193.805 450.715 195.005C450.483 195.023 450.269 195.06 450.046 195.079C448.381 195.339 447.283 195.516 446.986 195.609C445.219 196.139 438.262 205.774 436.876 207.765C435.537 209.708 443.907 222.868 446.818 224.403Z" fill="#239EB1"/>
<path d="M274.197 142.291C276.801 145.741 278.578 149.489 279.796 153.451C297.178 156.036 341.968 162.137 341.968 162.137C346.498 162.649 351.064 163.086 355.668 163.43C381.69 165.43 408.931 165.021 437.008 163.012L457.766 158.064L466.295 156.018C448.131 149.452 430.442 144.29 413.609 141.658C409.051 141.426 404.494 141.23 399.965 141.054C363.424 139.603 327.497 139.649 292.231 141.323C286.195 141.593 280.187 141.919 274.197 142.291Z" fill="#24A3B1"/>
<path d="M285.486 180.738L290.908 187.313L343.846 189.229L371.486 211.094C388.264 212.228 407.264 211.41 427.399 209.578C432.347 201.803 437.332 194.502 442.391 188.243C456.705 186.42 471.911 183.89 487.637 180.961C484.875 178.831 480.895 177.018 475.956 175.455C462.843 178.905 449.757 181.482 436.709 182.7C431.603 191.182 427.241 199.106 423.912 206.248C403.73 207.755 384.73 208.806 369.626 208.378L342.692 186.216L285.486 180.738Z" fill="#239EB1"/>
<path d="M336.527 162.389C336.527 162.389 336.62 162.612 336.769 163.003C337.615 165.226 340.414 172.712 339.568 173.205C338.573 173.782 285.878 172.033 284.501 171.234C283.125 170.434 277.982 155.776 279.553 155.153C281.134 154.53 336.527 162.389 336.527 162.389Z" fill="white"/>
<path d="M472.347 167.773C473.082 169.503 438.55 175.651 437.285 173.791L433.891 164.927L466.832 157.738C469.092 160.752 470.98 164.062 472.347 167.773Z" fill="white"/>
<path d="M284.966 157.246C288.696 158.25 292.806 158.381 296.638 158.836C300.609 159.301 304.59 159.766 308.561 160.204C312.439 160.631 316.317 161.031 320.205 161.413C324.018 161.785 328.064 161.924 331.709 163.161C331.747 163.17 332.277 163.431 332.081 163.533C330.91 164.165 329.31 163.886 328.036 163.831C326.204 163.747 324.372 163.607 322.539 163.449C318.652 163.114 314.764 162.761 310.886 162.38C307.045 162.008 303.204 161.608 299.363 161.18C295.317 160.724 291.365 160.436 287.338 159.822C285.682 159.571 284.129 159.552 282.929 158.25C281.627 156.818 284.166 157.032 284.966 157.246Z" fill="white"/>
<path d="M439.33 164.834C440.047 164.239 441.451 164.127 442.362 163.895C443.534 163.588 444.706 163.281 445.878 162.992C448.073 162.453 450.277 161.96 452.481 161.486C457.261 160.463 462.07 159.775 466.934 159.319C466.999 159.31 467.287 159.44 467.175 159.468C462.907 160.565 458.628 161.616 454.332 162.639C452.183 163.151 450.044 163.699 447.915 164.257C446.761 164.564 445.608 164.871 444.455 165.187C443.348 165.494 442.306 165.913 441.163 165.959C440.846 165.978 438.754 165.318 439.33 164.834Z" fill="white"/>
<path d="M307.92 213.158C307.631 216.218 309.259 219.706 312.114 221.008C314.83 222.254 318.15 222.263 320.782 220.915C324.586 218.971 326.074 214.358 324.66 210.433C323.098 206.081 318.392 204.49 314.114 205.774C310.858 206.769 308.236 209.764 307.92 213.158Z" fill="white"/>
<path d="M317.825 216.758C315.686 216.981 313.333 216.879 311.287 216.2C308.776 215.363 308.776 214.238 309.204 211.987C309.911 208.276 314.105 205.97 317.732 206.212C321.08 206.435 323.377 208.741 324.084 211.987C324.307 213.029 324.317 214.191 323.721 215.093C322.764 216.535 319.378 216.6 317.825 216.758Z" fill="white"/>
<path d="M317.072 206.871C317.863 206.778 323.564 207.094 322.178 209.838C321.843 210.508 321.118 210.294 320.578 210.005C319.648 209.512 318.002 208.062 317.054 208.052C316.905 207.894 316.784 207.69 316.719 207.438C316.719 207.355 316.719 207.262 316.719 207.178C316.802 206.992 316.923 206.89 317.072 206.871Z" fill="white"/>
<path d="M458.149 208.174C457.684 210.992 458.465 214.21 460.27 215.428C461.99 216.591 464.213 216.619 466.101 215.4C468.835 213.633 470.23 209.402 469.635 205.784C468.975 201.766 465.952 200.269 462.967 201.431C460.688 202.315 458.661 205.058 458.149 208.174Z" fill="white"/>
<path d="M464.482 211.56C463.031 211.755 461.46 211.643 460.139 211.002C458.53 210.211 458.623 209.179 459.116 207.105C459.916 203.692 462.938 201.608 465.357 201.85C467.589 202.073 468.928 204.212 469.105 207.207C469.16 208.174 469.058 209.244 468.584 210.062C467.821 211.383 465.543 211.42 464.482 211.56Z" fill="white"/>
<path d="M464.853 202.455C465.392 202.371 469.196 202.706 468.024 205.217C467.736 205.831 467.271 205.626 466.936 205.366C466.359 204.91 465.383 203.561 464.741 203.543C464.657 203.394 464.592 203.208 464.564 202.975C464.574 202.892 464.583 202.817 464.583 202.734C464.657 202.566 464.75 202.473 464.853 202.455Z" fill="white"/>
<path d="M195.664 182.078C195.664 182.078 197.719 182.412 199.57 184.375C203.839 188.895 206.034 225.64 206.034 225.64L212.851 225.612C212.851 225.612 209.289 187.193 205.615 183.984C201.942 180.785 195.664 182.078 195.664 182.078Z" fill="#239EB1"/>
<path d="M235.572 212.21C234.791 211.81 216.636 209.708 216.636 209.708L214.404 218.422L235.088 221.333L235.572 212.21Z" fill="#239EB1"/>
<path d="M222.69 153.953C222.69 153.953 218.691 176.674 218.421 185.63C218.16 194.586 223.787 210.229 223.787 210.229L220.811 219.52L221.676 219.79L224.54 210.257C224.54 210.257 218.505 192.791 219.211 185.891C219.918 178.99 223.573 153.86 223.573 153.86L222.69 153.953Z" fill="#239EB1"/>
<path d="M256.303 155.209L252.565 183.119C252.565 183.119 251.542 183.612 251.551 183.11C251.56 182.608 255.197 155.534 255.197 155.534L256.303 155.209Z" fill="#239EB1"/>
<path d="M204.427 151.312L201.404 180.124C201.404 180.124 206.984 181.184 207.477 183.546C207.961 185.909 213.848 218.488 213.848 218.488L221.465 219.743L221.474 218.925L214.527 218.041C214.527 218.041 209.17 183.918 207.998 182.216C206.826 180.524 202.372 179.529 202.372 179.529L205.236 151.693L204.427 151.312Z" fill="#239EB1"/>
<path d="M221.166 219.79L239.302 222.812L239.45 221.371L221.445 218.962L221.166 219.79Z" fill="#239EB1"/>
<path d="M275.097 239.256C276.724 239.284 271.46 189.341 264.764 185.416C258.207 181.585 248.414 183.082 248.414 183.082C253.873 183.51 254.971 185.705 256.236 186.988C259.9 190.69 268.438 239.367 265.182 239.312L275.097 239.256Z" fill="#239EB1"/>
<path d="M225.036 159.143L224.422 166.555L232.885 167.494L234.178 160.091L233.09 160.249L231.937 166.108L225.166 165.523L226.124 159.152L225.036 159.143Z" fill="#239EB1"/>
<path d="M205.942 156.994L205.486 164.406L211.513 165.318L212.462 157.915L211.68 158.082L210.843 163.932L206.026 163.374L206.723 156.994H205.942Z" fill="#239EB1"/>
<path d="M474.2 241.088C479.566 237.674 483.788 232.578 486.272 226.746C488.801 211.643 489.155 196.204 488.271 180.933L488.252 180.636L488.02 180.468C484.439 177.78 480.282 176.199 476.134 174.86L476.562 175.334C475.074 168.043 471.4 161.31 466.778 155.516C449.535 149.294 431.865 143.9 413.701 141.026L414.157 141.342C403.294 122.732 390.692 104.662 375.301 89.53C334.454 80.8436 292.24 78.9463 250.723 83.2616C243.59 85.2612 236.596 87.8281 229.863 90.953C223.12 94.0779 216.665 97.8259 210.611 102.141C207.347 108.633 204.668 115.413 202.492 122.332C200.381 128.982 198.549 136.831 197.758 143.221C193.322 146.485 189.499 150.559 186.598 155.199C189.583 150.54 193.675 146.652 198.056 143.397C200.111 129.67 205.877 114.436 211.504 103.099C223.166 94.608 237.387 88.3675 250.853 84.5265C292.24 80.2297 334.323 82.1177 375.04 90.7763C384.74 101.072 396.403 115.124 404.689 128.256C407.284 132.125 410.558 137.957 413.05 141.965L413.208 142.235L413.506 142.281C431.53 145.136 449.033 150.475 466.183 156.65L465.885 156.446C470.442 162.175 473.986 168.787 475.381 175.958C477.548 176.637 479.687 177.39 481.752 178.32C483.695 179.194 485.565 180.208 487.229 181.473L486.978 181.008C487.76 196.232 488.085 211.559 485.825 226.681C483.584 232.224 479.445 237.665 474.2 241.088Z" fill="white"/>
<path d="M251.511 83.8096C259.398 97.1276 266.847 118.741 274.195 142.29C266.392 119.29 258.505 98.2157 250.293 84.1723L251.511 83.8096Z" fill="#FFFBE6"/>
<path d="M486.894 180.793C472.013 183.871 456.965 186.038 441.852 187.34C436.672 194.539 431.91 201.979 427.232 209.466C409.776 210.786 389.659 210.935 371.505 210.693C372.593 211.317 344.134 188.438 344.376 188.568C344.367 188.568 344.144 188.382 344.134 188.382H343.874C331.142 188.41 316.866 188.122 304.143 187.722C302.302 187.666 296.08 187.471 294.22 187.424L292.564 187.378L291.736 187.35C291.457 187.359 291.188 187.322 290.927 186.689L290.881 187.954C291.271 187.052 291.802 187.415 292.555 187.387L294.21 187.452C296.163 187.536 302.069 187.787 304.134 187.87C311.704 188.131 322.892 188.763 330.593 189.182C335.001 189.479 339.41 189.721 343.809 190.075C343.818 190.075 343.288 189.879 343.316 189.898L371.235 211.4L371.338 211.484H371.468C390.134 212.349 408.976 212.498 427.511 209.763C432.552 202.649 437.686 195.59 443.154 188.828C443.154 188.828 442.476 189.21 442.485 189.2C457.486 187.48 472.357 184.829 487.015 181.351L486.894 180.793Z" fill="white"/>
<path d="M427.001 167.727L430.228 181.519L421.504 202.37C405.731 205.281 389.204 205.756 372.092 204.296L348.841 186.327L344.963 166.443C375.012 168.731 402.922 169.55 427.001 167.727Z" fill="#24A3B1"/>
<path d="M438.021 232.419L427.791 216.209C406.735 218.255 387.074 217.827 368.39 217.502L355.332 233.926L369.589 220.004C388.441 220.636 407.497 220.348 426.721 219.287L438.021 232.419Z" fill="#239EB1"/>
<path d="M231.69 142.952C231.83 144.681 232.146 146.402 232.602 148.16C239.4 152.894 248.477 155.358 256.782 155.786C261.107 155.116 263.925 153.219 266.882 150.01C267.468 149.359 267.952 148.578 268.24 147.723C268.24 147.713 268.25 147.685 268.268 147.657C268.278 147.63 268.278 147.62 268.278 147.592C268.482 146.96 268.557 146.281 268.491 145.639C268.464 145.323 268.389 144.988 268.287 144.691C266.622 140.022 262.846 133.874 258.056 131.782C253.881 129.968 248.803 129.382 244.292 129.931C240.153 130.424 235.987 130.666 232.481 133.261C231.634 136.516 231.393 139.724 231.69 142.952Z" fill="#239EB1"/>
<path d="M231.69 142.952C231.737 143.045 231.802 143.138 231.885 143.231C232.22 140.282 232.546 137.353 232.899 134.405C239.754 133.475 246.831 132.833 253.509 134.618C260.177 136.423 266.417 141.119 268.25 147.723C268.25 147.732 268.259 147.76 268.259 147.769C268.268 147.732 268.268 147.695 268.268 147.657C268.278 147.63 268.278 147.62 268.278 147.592C268.408 146.923 268.473 146.272 268.491 145.639C268.464 145.323 268.389 144.988 268.287 144.691C266.622 140.022 262.846 133.874 258.056 131.782C253.881 129.968 248.803 129.382 244.292 129.931C240.153 130.424 235.987 130.666 232.481 133.261C231.634 136.516 231.393 139.724 231.69 142.952Z" fill="#24A3B1"/>
<path d="M268.288 144.69C264.298 129.382 250.934 127.373 237.253 130.535C235.412 131.01 233.607 131.809 232.063 132.972C231.115 136.208 231.115 139.659 231.691 142.951C231.645 139.696 232.212 136.515 232.947 133.372L232.77 133.632C235.635 131.493 239.271 130.963 242.777 130.582C249.622 129.67 257.695 130.266 262.485 135.753C264.791 138.459 266.763 141.463 268.288 144.69Z" fill="#FFFBE6"/>
<defs>
<linearGradient id="paint0_linear_1_33" x1="0.5" y1="227.247" x2="802.877" y2="227.247" gradientUnits="userSpaceOnUse">
<stop stop-color="#3A9EE3"/>
<stop offset="0.719593" stop-color="#F0F5F8"/>
<stop offset="1" stop-color="#F0F5F8"/>
</linearGradient>
<linearGradient id="paint1_linear_1_33" x1="513.042" y1="232.374" x2="513.042" y2="239.786" gradientUnits="userSpaceOnUse">
<stop stop-color="#5372FF"/>
<stop offset="1" stop-color="#75C6FF"/>
</linearGradient>
<linearGradient id="paint2_linear_1_33" x1="525.607" y1="229.259" x2="525.607" y2="238.829" gradientUnits="userSpaceOnUse">
<stop stop-color="#5372FF"/>
<stop offset="1" stop-color="#75C6FF"/>
</linearGradient>
<linearGradient id="paint3_linear_1_33" x1="540.837" y1="232.448" x2="540.837" y2="239.786" gradientUnits="userSpaceOnUse">
<stop stop-color="#5372FF"/>
<stop offset="1" stop-color="#75C6FF"/>
</linearGradient>
<linearGradient id="paint4_linear_1_33" x1="517.814" y1="229.965" x2="517.814" y2="234.913" gradientUnits="userSpaceOnUse">
<stop stop-color="#5372FF"/>
<stop offset="1" stop-color="#75C6FF"/>
</linearGradient>
<linearGradient id="paint5_linear_1_33" x1="526.523" y1="186.705" x2="526.523" y2="236.406" gradientUnits="userSpaceOnUse">
<stop stop-color="#5372FF"/>
<stop offset="1" stop-color="#75C6FF"/>
</linearGradient>
<linearGradient id="paint6_linear_1_33" x1="198.115" y1="18.8309" x2="156.537" y2="106.66" gradientUnits="userSpaceOnUse">
<stop stop-color="#F0DCC5"/>
<stop offset="0.3298" stop-color="#B9B9BA"/>
<stop offset="1" stop-color="#406BA3"/>
</linearGradient>
<linearGradient id="paint7_linear_1_33" x1="184.799" y1="79.2601" x2="178.253" y2="214.915" gradientUnits="userSpaceOnUse">
<stop stop-color="#F0DCC5"/>
<stop offset="0.3298" stop-color="#B9B9BA"/>
<stop offset="1" stop-color="#406BA3"/>
</linearGradient>
<linearGradient id="paint8_linear_1_33" x1="251.575" y1="277.829" x2="252.835" y2="213.424" gradientUnits="userSpaceOnUse">
<stop stop-color="#9E7E9E"/>
<stop offset="1" stop-color="#1B0B3B"/>
</linearGradient>
</defs>
</svg>
