<svg width="489" height="458" viewBox="0 0 489 458" fill="none" xmlns="http://www.w3.org/2000/svg">
<path d="M86.9842 295.605H66.7793V434.976H86.9842V295.605Z" fill="white"/>
<path d="M86.985 435.565C86.66 435.565 86.3963 435.302 86.3963 434.976V296.194H67.3687V434.976C67.3687 435.302 67.1051 435.565 66.7801 435.565C66.455 435.565 66.1914 435.302 66.1914 434.976V295.606C66.1914 295.28 66.455 295.017 66.7801 295.017H86.9847C87.3097 295.017 87.5734 295.28 87.5734 295.606V434.976C87.5736 435.302 87.31 435.565 86.985 435.565Z" fill="#D8DEE8"/>
<path d="M76.8822 328.834C116.583 328.834 148.766 296.65 148.766 256.95C148.766 217.249 116.583 185.066 76.8822 185.066C37.1817 185.066 4.99805 217.249 4.99805 256.95C4.99805 296.65 37.1817 328.834 76.8822 328.834Z" fill="#2659CD"/>
<path d="M76.8827 329.422C36.9213 329.422 4.41016 296.911 4.41016 256.95C4.41016 216.988 36.9213 184.477 76.8827 184.477C116.844 184.477 149.356 216.988 149.356 256.95C149.356 296.911 116.844 329.422 76.8827 329.422ZM76.8827 185.654C37.5702 185.654 5.58722 217.637 5.58722 256.95C5.58722 296.262 37.5702 328.245 76.8827 328.245C116.195 328.245 148.179 296.262 148.179 256.95C148.178 217.637 116.195 185.654 76.8827 185.654Z" fill="#2659CD"/>
<path d="M76.8831 314.418C108.622 314.418 134.352 288.688 134.352 256.949C134.352 225.21 108.622 199.48 76.8831 199.48C45.1438 199.48 19.4141 225.21 19.4141 256.949C19.4141 288.688 45.1438 314.418 76.8831 314.418Z" fill="white"/>
<path d="M95.3756 287.984C84.4717 287.984 75.6006 279.113 75.6006 268.209V244.933C75.6006 234.029 84.4719 225.157 95.3756 225.157C106.28 225.157 115.151 234.029 115.151 244.933V268.209C115.151 279.113 106.28 287.984 95.3756 287.984ZM95.3756 230.29C87.3021 230.29 80.7334 236.859 80.7334 244.933V268.209C80.7334 276.283 87.3019 282.851 95.3756 282.851C103.45 282.851 110.018 276.283 110.018 268.209V244.933C110.018 236.859 103.45 230.29 95.3756 230.29Z" fill="#D8DEE8"/>
<path d="M49.9352 287.343C49.627 287.343 49.3143 287.287 49.0098 287.17C47.6876 286.658 47.0311 285.171 47.5424 283.849L67.7761 231.573H43.5197C42.1024 231.573 40.9531 230.424 40.9531 229.007C40.9531 227.589 42.1022 226.44 43.5197 226.44H71.5213C72.3677 226.44 73.1597 226.858 73.6385 227.556C74.1172 228.254 74.2205 229.144 73.9147 229.933L52.3294 285.702C51.9352 286.719 50.9642 287.343 49.9352 287.343Z" fill="#D8DEE8"/>
<path d="M389.723 251.113H328.271C327.946 251.113 327.683 250.85 327.683 250.524V191.063C327.683 190.738 327.946 190.475 328.271 190.475H389.723C390.048 190.475 390.311 190.738 390.311 191.063V250.524C390.311 250.85 390.048 251.113 389.723 251.113ZM328.86 249.936H389.134V191.652H328.86V249.936Z" fill="#D8DEE8"/>
<path d="M361.524 257.573L322.203 209.858L332.933 201.016L360.02 233.883L391.452 184.013L403.214 191.427L361.524 257.573Z" fill="#38D070"/>
<path d="M468.043 206.644H407.752C407.427 206.644 407.164 206.381 407.164 206.056C407.164 205.73 407.427 205.467 407.752 205.467H468.043C468.368 205.467 468.632 205.73 468.632 206.056C468.631 206.381 468.368 206.644 468.043 206.644Z" fill="#D8DEE8"/>
<path d="M487.662 226.263H407.752C407.427 226.263 407.164 226 407.164 225.674C407.164 225.349 407.427 225.086 407.752 225.086H487.662C487.987 225.086 488.25 225.349 488.25 225.674C488.25 226 487.987 226.263 487.662 226.263Z" fill="#D8DEE8"/>
<path d="M389.723 67.4246H328.271C327.946 67.4246 327.683 67.1614 327.683 66.8362V7.37453C327.683 7.04924 327.946 6.78613 328.271 6.78613H389.723C390.048 6.78613 390.311 7.04924 390.311 7.37453V66.8362C390.311 67.1614 390.048 67.4246 389.723 67.4246ZM328.86 66.2475H389.134V7.96293H328.86V66.2475Z" fill="#D8DEE8"/>
<path d="M361.524 73.8837L322.203 26.1692L332.933 17.3269L360.02 50.194L391.452 0.324219L403.214 7.73804L361.524 73.8837Z" fill="#38D070"/>
<path d="M389.723 158.977H328.271C327.946 158.977 327.683 158.714 327.683 158.388V98.9268C327.683 98.6015 327.946 98.3381 328.271 98.3381H389.723C390.048 98.3381 390.311 98.6015 390.311 98.9268V158.388C390.311 158.714 390.048 158.977 389.723 158.977ZM328.86 157.8H389.134V99.5152H328.86V157.8Z" fill="#D8DEE8"/>
<path d="M361.524 165.437L322.203 117.723L332.933 108.881L360.02 141.748L391.452 91.8779L403.214 99.2918L361.524 165.437Z" fill="#38D070"/>
<path d="M468.043 22.9544H407.752C407.427 22.9544 407.164 22.6911 407.164 22.3658C407.164 22.0405 407.427 21.7771 407.752 21.7771H468.043C468.368 21.7771 468.632 22.0405 468.632 22.3658C468.631 22.6913 468.368 22.9544 468.043 22.9544Z" fill="#D8DEE8"/>
<path d="M487.662 42.5733H407.752C407.427 42.5733 407.164 42.3102 407.164 41.9847C407.164 41.6594 407.427 41.396 407.752 41.396H487.662C487.987 41.396 488.25 41.6594 488.25 41.9847C488.25 42.3099 487.987 42.5733 487.662 42.5733Z" fill="#D8DEE8"/>
<path d="M468.043 114.509H407.752C407.427 114.509 407.164 114.246 407.164 113.921C407.164 113.595 407.427 113.332 407.752 113.332H468.043C468.368 113.332 468.632 113.595 468.632 113.921C468.632 114.246 468.368 114.509 468.043 114.509Z" fill="#D8DEE8"/>
<path d="M468.043 153.746H407.752C407.427 153.746 407.164 153.483 407.164 153.158C407.164 152.832 407.427 152.569 407.752 152.569H468.043C468.368 152.569 468.632 152.832 468.632 153.158C468.631 153.483 468.368 153.746 468.043 153.746Z" fill="#D8DEE8"/>
<path d="M487.662 134.128H407.752C407.427 134.128 407.164 133.865 407.164 133.539C407.164 133.214 407.427 132.951 407.752 132.951H487.662C487.987 132.951 488.25 133.214 488.25 133.539C488.25 133.865 487.987 134.128 487.662 134.128Z" fill="#D8DEE8"/>
<path d="M356.473 313.78L360.46 321.571C360.46 321.571 374.261 290.876 376.695 283.939C376.972 282.762 380.643 275.655 379.114 263.836C379.017 263.601 378.744 252.534 367.736 248.673L367.441 248.57C362.822 246.95 358.137 250.785 358.787 255.636C359.552 261.353 360.45 265.475 358.3 271.604L354.369 282.813C350.8 292.988 351.56 304.181 356.473 313.78Z" fill="#C7D0FF"/>
<path d="M376.695 283.939C376.972 282.762 380.643 275.655 379.114 263.836C379.018 263.601 378.744 252.534 367.736 248.673L367.442 248.57C362.823 246.95 358.137 250.785 358.787 255.636C359.071 257.759 359.374 259.661 359.532 261.528L376.695 283.939Z" fill="white"/>
<path d="M360.461 322.16C360.24 322.16 360.038 322.037 359.937 321.84L355.949 314.049C350.988 304.352 350.209 292.897 353.815 282.618L357.746 271.41C359.641 266.007 359.105 262.179 358.427 257.333C358.353 256.806 358.278 256.268 358.204 255.714C357.871 253.226 358.833 250.795 360.777 249.212C362.714 247.635 365.279 247.187 367.637 248.014L367.932 248.118C377.43 251.45 379.305 260.015 379.67 263.542C379.678 263.614 379.683 263.667 379.688 263.702C379.692 263.721 379.696 263.741 379.698 263.761C381.028 274.038 378.5 280.755 377.548 283.283C377.415 283.637 377.299 283.943 377.269 284.074C377.264 284.094 377.258 284.114 377.251 284.134C374.837 291.016 361.136 321.506 360.998 321.813C360.905 322.019 360.702 322.154 360.476 322.16C360.471 322.16 360.466 322.16 360.461 322.16ZM356.997 313.512L360.426 320.212C362.926 314.634 373.974 289.9 376.131 283.77C376.183 283.567 376.289 283.284 376.446 282.868C377.369 280.418 379.817 273.913 378.535 263.946C378.522 263.883 378.513 263.803 378.499 263.663C378.157 260.358 376.404 252.337 367.541 249.228L367.247 249.125C365.279 248.434 363.136 248.809 361.52 250.125C359.895 251.447 359.092 253.479 359.37 255.558C359.444 256.109 359.519 256.645 359.593 257.17C360.293 262.174 360.845 266.127 358.856 271.799L354.925 283.008C351.426 292.983 352.181 304.102 356.997 313.512Z" fill="#D8DEE8"/>
<path d="M179.607 313.782L175.619 321.574C175.619 321.574 161.818 290.879 159.385 283.941C159.108 282.764 155.437 275.657 156.966 263.838C157.062 263.603 157.336 252.536 168.344 248.675L168.638 248.572C173.257 246.952 177.943 250.787 177.293 255.638C176.527 261.355 175.629 265.477 177.779 271.607L181.71 282.815C185.28 292.99 184.519 304.184 179.607 313.782Z" fill="#C7D0FF"/>
<path d="M175.62 322.162C175.615 322.162 175.61 322.162 175.605 322.162C175.379 322.156 175.176 322.021 175.083 321.815C174.945 321.507 161.243 291.017 158.83 284.135C158.823 284.116 158.817 284.095 158.812 284.075C158.781 283.944 158.666 283.639 158.533 283.286C157.581 280.757 155.053 274.041 156.383 263.762C156.385 263.742 156.389 263.723 156.393 263.703C156.398 263.669 156.403 263.616 156.411 263.544C156.776 260.016 158.651 251.451 168.15 248.12L168.444 248.016C170.802 247.188 173.367 247.637 175.304 249.214C177.248 250.797 178.21 253.227 177.877 255.716C177.803 256.269 177.728 256.808 177.654 257.335C176.976 262.181 176.44 266.008 178.335 271.411L182.267 282.62C185.872 292.898 185.093 304.354 180.131 314.05V314.05L176.144 321.841C176.043 322.038 175.84 322.162 175.62 322.162ZM159.95 283.772C162.106 289.901 173.155 314.635 175.655 320.213L179.083 313.513C183.899 304.103 184.654 292.985 181.156 283.01L177.224 271.801C175.235 266.128 175.788 262.176 176.488 257.172C176.561 256.647 176.636 256.111 176.71 255.56C176.989 253.48 176.185 251.449 174.561 250.127C172.944 248.81 170.802 248.436 168.834 249.126L168.539 249.23C159.676 252.339 157.924 260.36 157.581 263.665C157.567 263.804 157.559 263.885 157.546 263.948C156.264 273.916 158.712 280.42 159.635 282.871C159.792 283.287 159.898 283.569 159.95 283.772Z" fill="#D8DEE8"/>
<path d="M267.524 185.596C183.836 185.596 115.994 253.438 115.994 337.125C115.994 420.813 183.836 488.655 267.524 488.655C351.211 488.655 419.053 420.813 419.053 337.125C419.053 253.438 351.211 185.596 267.524 185.596ZM267.524 456.036C201.852 456.036 148.613 402.798 148.613 337.125C148.613 271.453 201.852 218.215 267.524 218.215C333.197 218.215 386.434 271.453 386.434 337.125C386.434 402.798 333.197 456.036 267.524 456.036Z" fill="#D8DEE8"/>
<path d="M317.695 316.776L217.356 316.775C192.566 321.82 168.363 330.645 145.626 343.248L146.995 343.708C191.035 358.512 221.574 396.78 227.825 440.914L228.741 451.779L265.836 466.148L299.145 451.779L301.323 435.926C309.804 394.755 339.525 360.02 380.871 346.122L389.422 343.248C366.685 330.645 342.484 321.821 317.695 316.776Z" fill="#D8DEE8"/>
<path d="M292.785 375.733H242.261C232.082 375.733 223.075 369.136 220.005 359.43L213.343 338.372C208.582 323.325 219.816 307.988 235.599 307.988H299.447C315.23 307.988 326.464 323.325 321.703 338.372L315.041 359.43C311.971 369.136 302.965 375.733 292.785 375.733Z" fill="#1B44C1"/>
<path d="M292.785 376.321H242.262C231.777 376.321 222.607 369.605 219.444 359.608L212.782 338.55C210.456 331.196 211.735 323.411 216.293 317.189C220.85 310.967 227.887 307.399 235.6 307.399H299.448C307.16 307.399 314.197 310.967 318.754 317.189C323.311 323.41 324.591 331.196 322.265 338.55L315.603 359.608C312.44 369.605 303.271 376.321 292.785 376.321ZM235.6 308.576C228.266 308.576 221.575 311.968 217.242 317.885C212.909 323.8 211.692 331.203 213.905 338.194L220.567 359.252C223.574 368.757 232.292 375.144 242.262 375.144H292.785C302.755 375.144 311.474 368.757 314.48 359.252L321.143 338.194C323.354 331.203 322.138 323.8 317.805 317.884C313.471 311.968 306.781 308.575 299.448 308.575L235.6 308.576Z" fill="#D8DEE8"/>
<path d="M387.816 238.79L366.865 291.076L382.968 297.745L403.919 245.459C405.675 241.22 403.662 236.361 399.423 234.606L398.669 234.294C394.431 232.539 389.572 234.551 387.816 238.79Z" fill="#C7D0FF"/>
<path d="M371.728 279.335L357.079 314.706L371.75 343.917L412.859 361.085L435.687 305.967L371.728 279.335Z" fill="#C7D0FF"/>
<path d="M415.777 259.691L407.196 256.137L400.527 272.24L410.288 276.283L399.919 301.319L416.023 307.988L425.902 284.133C429.856 274.587 425.322 263.644 415.777 259.691Z" fill="#C7D0FF"/>
<path d="M429.412 277.017L419.115 272.823L412.447 288.926L422.208 292.969L411.839 318.005L427.943 324.674L438.613 299.143C442.228 290.493 438.096 280.554 429.412 277.017Z" fill="#C7D0FF"/>
<path d="M405.485 290.576L357.075 314.733L387.527 375.76L435.937 351.603L405.485 290.576Z" fill="#C7D0FF"/>
<path d="M382.237 365.135L387.526 375.733L435.935 351.575L427.584 334.151L382.237 365.135Z" fill="#D8DEE8"/>
<path d="M387.526 376.322C387.31 376.322 387.102 376.203 386.999 375.996L356.532 315.028C356.387 314.738 356.505 314.384 356.795 314.239C357.086 314.094 357.44 314.211 357.585 314.502L387.789 374.944L435.153 351.307L425.124 330.471C425.052 330.32 425.047 330.144 425.112 329.989L438.114 298.836C439.793 294.812 439.801 290.377 438.135 286.348C436.47 282.319 433.334 279.184 429.304 277.519L427.158 276.632C426.857 276.508 426.715 276.164 426.839 275.864C426.963 275.563 427.309 275.421 427.607 275.545L429.754 276.432C434.075 278.215 437.438 281.578 439.224 285.898C441.009 290.219 441.001 294.975 439.201 299.289L426.301 330.199L436.466 351.32C436.605 351.609 436.486 351.958 436.198 352.102L387.789 376.259C387.704 376.302 387.614 376.322 387.526 376.322Z" fill="#D8DEE8"/>
<path d="M403.674 246.94L384.037 294.356L400.141 301.025L414.9 265.388C417.594 258.882 414.504 251.425 407.999 248.731L403.674 246.94Z" fill="#C7D0FF"/>
<path d="M416.023 308.577C415.948 308.577 415.871 308.562 415.798 308.532C415.498 308.408 415.355 308.064 415.479 307.763L425.359 283.908C429.149 274.757 424.816 264.165 415.699 260.297C415.4 260.17 415.26 259.825 415.387 259.525C415.515 259.226 415.861 259.087 416.159 259.213C425.868 263.333 430.483 274.613 426.446 284.359L416.567 308.214C416.473 308.44 416.253 308.577 416.023 308.577Z" fill="#D8DEE8"/>
<path d="M400.618 300.464C400.542 300.464 400.466 300.449 400.392 300.419C400.093 300.295 399.95 299.951 400.074 299.65L414.357 265.163C415.6 262.162 415.6 258.856 414.357 255.856C413.113 252.855 410.776 250.517 407.774 249.275L403.736 247.602C403.436 247.478 403.293 247.134 403.417 246.833C403.541 246.532 403.888 246.391 404.186 246.515L408.225 248.187C411.517 249.55 414.08 252.114 415.444 255.405C416.807 258.697 416.808 262.322 415.445 265.614L401.161 300.101C401.068 300.327 400.848 300.464 400.618 300.464Z" fill="#D8DEE8"/>
<path d="M362.491 302.225C362.417 302.225 362.343 302.212 362.27 302.183C361.969 302.061 361.823 301.719 361.945 301.417L387.27 238.57C388.182 236.37 389.891 234.66 392.086 233.751C394.28 232.84 396.698 232.841 398.894 233.75L399.649 234.063C401.844 234.972 403.554 236.682 404.463 238.876C405.372 241.072 405.372 243.489 404.463 245.685L384.398 295.829C384.278 296.131 383.933 296.277 383.633 296.157C383.332 296.036 383.185 295.694 383.305 295.392L403.372 245.241C404.164 243.329 404.164 241.232 403.375 239.327C402.586 237.422 401.103 235.939 399.198 235.15L398.443 234.837C396.54 234.049 394.442 234.048 392.536 234.838C390.632 235.627 389.148 237.11 388.36 239.015L363.037 301.857C362.944 302.086 362.723 302.225 362.491 302.225Z" fill="#D8DEE8"/>
<path d="M415.93 480.881L368.616 386.07L447.446 346.731L487.662 427.318L415.93 480.881Z" fill="white"/>
<path d="M415.932 481.469C415.716 481.469 415.508 481.349 415.405 481.143L368.09 386.333C367.945 386.042 368.064 385.688 368.354 385.544L447.185 346.204C447.324 346.134 447.486 346.123 447.634 346.172C447.782 346.222 447.904 346.328 447.974 346.468L488.19 427.055C488.335 427.346 488.217 427.699 487.926 427.844C487.634 427.992 487.282 427.871 487.137 427.58L447.183 347.519L369.406 386.334L416.458 480.618C416.603 480.909 416.485 481.262 416.194 481.407C416.11 481.449 416.02 481.469 415.932 481.469Z" fill="#D8DEE8"/>
<path d="M148.265 238.791L169.216 291.077L153.113 297.746L132.162 245.46C130.406 241.222 132.419 236.363 136.658 234.607L137.412 234.295C141.65 232.54 146.509 234.553 148.265 238.791Z" fill="#C7D0FF"/>
<path d="M164.354 279.337L179.003 314.708L164.332 343.918L123.223 361.086L100.396 305.968L164.354 279.337Z" fill="#C7D0FF"/>
<path d="M120.303 259.691L128.885 256.137L135.553 272.241L125.792 276.284L136.161 301.32L120.057 307.988L110.178 284.133C106.224 274.587 110.758 263.644 120.303 259.691Z" fill="#C7D0FF"/>
<path d="M106.669 277.018L116.965 272.824L123.634 288.928L113.873 292.971L124.241 318.007L108.138 324.675L97.4679 299.145C93.8524 290.494 97.985 280.555 106.669 277.018Z" fill="#C7D0FF"/>
<path d="M100.127 351.571L148.537 375.728L178.989 314.701L130.579 290.545L100.127 351.571Z" fill="#C7D0FF"/>
<path d="M153.843 365.135L148.555 375.733L100.146 351.575L108.496 334.151L153.843 365.135Z" fill="#D8DEE8"/>
<path d="M148.554 376.322C148.466 376.322 148.376 376.303 148.292 376.26L99.883 352.102C99.5951 351.959 99.4758 351.61 99.6154 351.321L109.78 330.199L96.8805 299.29C95.0798 294.975 95.0715 290.22 96.8573 285.899C98.6427 281.579 102.006 278.216 106.327 276.432L108.474 275.546C108.775 275.421 109.118 275.564 109.242 275.864C109.367 276.165 109.224 276.509 108.923 276.633L106.776 277.52C102.746 279.184 99.6103 282.319 97.9452 286.349C96.2798 290.378 96.2875 294.813 97.9671 298.837L110.969 329.99C111.033 330.145 111.029 330.321 110.956 330.472L100.928 351.308L148.291 374.945L178.496 314.503C178.641 314.212 178.995 314.095 179.285 314.239C179.576 314.385 179.694 314.738 179.548 315.029L149.081 375.997C148.978 376.203 148.77 376.322 148.554 376.322Z" fill="#D8DEE8"/>
<path d="M132.407 246.941L152.044 294.357L135.941 301.026L121.181 265.389C118.487 258.884 121.577 251.426 128.082 248.732L132.407 246.941Z" fill="#C7D0FF"/>
<path d="M120.057 308.577C119.826 308.577 119.607 308.44 119.513 308.214L109.633 284.359C105.597 274.613 110.212 263.333 119.92 259.213C120.219 259.087 120.565 259.226 120.692 259.525C120.819 259.825 120.679 260.17 120.38 260.297C111.263 264.165 106.93 274.757 110.72 283.908L120.6 307.763C120.725 308.064 120.582 308.408 120.282 308.533C120.208 308.563 120.132 308.577 120.057 308.577Z" fill="#D8DEE8"/>
<path d="M135.465 300.464C135.234 300.464 135.015 300.327 134.921 300.101L120.638 265.614C119.275 262.322 119.275 258.697 120.639 255.406C122.002 252.114 124.566 249.551 127.857 248.188L131.896 246.515C132.197 246.391 132.541 246.534 132.665 246.834C132.789 247.134 132.647 247.479 132.347 247.603L128.308 249.275C125.307 250.518 122.969 252.855 121.726 255.856C120.483 258.857 120.483 262.163 121.726 265.163L136.008 299.65C136.133 299.951 135.99 300.295 135.69 300.419C135.616 300.45 135.54 300.464 135.465 300.464Z" fill="#D8DEE8"/>
<path d="M173.591 302.226C173.358 302.226 173.137 302.087 173.044 301.858L147.719 239.011C146.932 237.111 145.449 235.628 143.545 234.839C141.64 234.05 139.542 234.049 137.637 234.838L136.883 235.151C132.951 236.779 131.077 241.303 132.705 245.235L152.775 295.392C152.896 295.694 152.749 296.037 152.447 296.157C152.145 296.278 151.803 296.132 151.682 295.829L131.615 245.678C129.741 241.154 131.901 235.94 136.432 234.064L137.186 233.751C139.382 232.842 141.8 232.842 143.994 233.751C146.19 234.661 147.899 236.371 148.808 238.565L174.136 301.417C174.257 301.719 174.111 302.061 173.81 302.183C173.738 302.213 173.664 302.226 173.591 302.226Z" fill="#D8DEE8"/>
<path d="M120.151 480.88L167.466 386.069L88.6355 346.73L24.8779 474.49L120.151 480.88Z" fill="white"/>
<path d="M120.151 481.469C120.063 481.469 119.973 481.45 119.889 481.407C119.598 481.262 119.48 480.909 119.626 480.618L166.677 386.334L88.8999 347.519L25.4052 474.753C25.2605 475.043 24.9069 475.163 24.6158 475.017C24.325 474.872 24.2067 474.519 24.3524 474.228L88.1098 346.468C88.1794 346.328 88.3016 346.222 88.4497 346.172C88.5978 346.122 88.7593 346.134 88.8991 346.204L167.729 385.544C168.02 385.689 168.138 386.042 167.992 386.333L120.678 481.143C120.576 481.35 120.368 481.469 120.151 481.469Z" fill="#D8DEE8"/>
<path d="M272.155 205.699H21.3798C10.0022 205.699 0.746094 196.443 0.746094 185.065V34.3816C0.746094 23.004 10.0022 13.7473 21.3798 13.7473H272.155C283.533 13.7473 292.789 23.004 292.789 34.3816V185.065C292.789 196.443 283.533 205.699 272.155 205.699ZM21.3798 14.9244C10.6515 14.9244 1.92316 23.653 1.92316 34.3816V185.065C1.92316 195.793 10.6515 204.522 21.3798 204.522H272.155C282.884 204.522 291.612 195.793 291.612 185.065V34.3816C291.612 23.653 282.884 14.9244 272.155 14.9244H21.3798Z" fill="white"/>
<path d="M60.8345 156.325L81.5453 164.652V133.068H60.8345V156.325Z" fill="#C7D0FF"/>
<path d="M60.8345 140.92V133.068H81.5453V150.4C79.6761 150.773 75.9508 151.241 71.6725 149.831C64.9765 147.625 61.6895 142.389 60.8345 140.92Z" fill="#D8DEE8"/>
<path d="M72.4846 138.773C82.5194 138.773 90.6542 130.638 90.6542 120.603C90.6542 110.569 82.5194 102.434 72.4846 102.434C62.4498 102.434 54.3149 110.569 54.3149 120.603C54.3149 130.638 62.4498 138.773 72.4846 138.773Z" fill="url(#paint0_linear_1_449)"/>
<path d="M73.997 145.362C83.1965 145.362 90.6542 137.12 90.6542 126.952C90.6542 116.784 83.1965 108.541 73.997 108.541C64.7975 108.541 57.3398 116.784 57.3398 126.952C57.3398 137.12 64.7975 145.362 73.997 145.362Z" fill="#C7D0FF"/>
<path d="M66.7554 135.035C68.3653 136.51 70.4384 137.506 72.7781 137.744C77.9942 138.274 82.695 134.888 83.9884 129.972L66.7554 135.035Z" fill="white"/>
<path d="M72.139 99.0137C78.7144 96.29 81.8369 88.7515 79.1132 82.1761C76.3895 75.6006 68.851 72.4781 62.2756 75.2018C55.7001 77.9255 52.5776 85.464 55.3013 92.0395C58.025 98.6149 65.5635 101.737 72.139 99.0137Z" fill="url(#paint1_linear_1_449)"/>
<path d="M121.154 179.071H21.2256C20.9006 179.071 20.6372 178.808 20.6372 178.482V68.4278C20.6372 68.1025 20.9006 67.8391 21.2256 67.8391H121.154C121.479 67.8391 121.743 68.1022 121.743 68.4278V178.483C121.743 178.808 121.479 179.071 121.154 179.071ZM21.8143 177.894H120.565V69.0162H21.8143V177.894Z" fill="white"/>
<path d="M121.153 156.327H21.2251V178.483H121.153V156.327Z" fill="white"/>
<path d="M281.267 52.5816H10.283C9.95798 52.5816 9.69434 52.3182 9.69434 51.993C9.69434 51.6677 9.95798 51.4043 10.283 51.4043H281.267C281.592 51.4043 281.855 51.6677 281.855 51.993C281.855 52.3182 281.592 52.5816 281.267 52.5816Z" fill="white"/>
<path d="M125.434 43.3115H27.7677C24.1543 43.3115 21.2251 40.3823 21.2251 36.7689C21.2251 33.1555 24.1543 30.2263 27.7677 30.2263H125.434C129.048 30.2263 131.977 33.1555 131.977 36.7689C131.977 40.382 129.048 43.3115 125.434 43.3115Z" fill="white"/>
<path d="M225.554 43.3115H152.678C149.064 43.3115 146.135 40.3823 146.135 36.7689C146.135 33.1555 149.064 30.2263 152.678 30.2263H225.554C229.167 30.2263 232.096 33.1555 232.096 36.7689C232.096 40.382 229.167 43.3115 225.554 43.3115Z" fill="white"/>
<path d="M257.164 116.149H138.648C138.323 116.149 138.059 115.886 138.059 115.561C138.059 115.235 138.322 114.972 138.648 114.972H257.164C257.49 114.972 257.753 115.235 257.753 115.561C257.753 115.886 257.49 116.149 257.164 116.149Z" fill="white"/>
<path d="M215.528 130.027H138.648C138.323 130.027 138.059 129.764 138.059 129.439C138.059 129.113 138.322 128.85 138.648 128.85H215.527C215.852 128.85 216.116 129.113 216.116 129.439C216.116 129.764 215.853 130.027 215.528 130.027Z" fill="white"/>
<path d="M257.164 143.906H138.648C138.323 143.906 138.059 143.643 138.059 143.318C138.059 142.992 138.322 142.729 138.648 142.729H257.164C257.49 142.729 257.753 142.992 257.753 143.318C257.753 143.643 257.49 143.906 257.164 143.906Z" fill="white"/>
<path d="M215.528 157.785H138.648C138.323 157.785 138.059 157.522 138.059 157.197C138.059 156.871 138.322 156.608 138.648 156.608H215.527C215.852 156.608 216.116 156.871 216.116 157.197C216.116 157.522 215.853 157.785 215.528 157.785Z" fill="white"/>
<path d="M137.569 190.62C137.244 190.62 136.98 190.357 136.98 190.032L136.952 168.072C136.952 167.747 137.215 167.483 137.54 167.483H137.541C137.865 167.483 138.129 167.746 138.129 168.071L138.157 190.031C138.157 190.355 137.894 190.619 137.569 190.62H137.569Z" fill="white"/>
<path d="M141.727 190.615C141.403 190.615 141.139 190.351 141.139 190.027L141.111 168.066C141.111 167.742 141.373 167.478 141.698 167.477H141.699C142.024 167.477 142.287 167.74 142.288 168.065L142.316 190.025C142.316 190.35 142.053 190.614 141.728 190.615H141.727Z" fill="white"/>
<path d="M150.043 190.604C149.718 190.604 149.455 190.341 149.454 190.016L149.426 168.056C149.426 167.731 149.689 167.467 150.014 167.467H150.015C150.339 167.467 150.603 167.73 150.603 168.055L150.631 190.015C150.631 190.34 150.369 190.603 150.043 190.604H150.043Z" fill="white"/>
<path d="M162.517 190.588C162.193 190.588 161.929 190.325 161.929 190L161.901 168.04C161.901 167.715 162.163 167.451 162.488 167.451H162.489C162.814 167.451 163.077 167.714 163.078 168.039L163.106 189.999C163.106 190.324 162.843 190.587 162.518 190.588H162.517Z" fill="white"/>
<path d="M173.953 190.573C173.628 190.573 173.365 190.31 173.364 189.985L173.336 168.025C173.336 167.7 173.599 167.437 173.924 167.436H173.925C174.25 167.436 174.513 167.699 174.513 168.024L174.541 189.984C174.542 190.309 174.279 190.573 173.954 190.573H173.953Z" fill="white"/>
<path d="M182.271 190.563C181.946 190.563 181.682 190.3 181.682 189.975L181.654 168.015C181.654 167.69 181.917 167.426 182.242 167.426H182.243C182.567 167.426 182.831 167.689 182.831 168.013L182.859 189.974C182.859 190.298 182.597 190.562 182.272 190.563H182.271Z" fill="white"/>
<path d="M192.665 190.55C192.34 190.55 192.077 190.287 192.077 189.962L192.049 168.002C192.049 167.677 192.311 167.413 192.636 167.413H192.637C192.962 167.413 193.225 167.676 193.226 168.001L193.254 189.961C193.254 190.286 192.991 190.55 192.666 190.55H192.665Z" fill="white"/>
<path d="M200.981 190.54C200.656 190.54 200.393 190.277 200.392 189.952L200.365 167.991C200.364 167.667 200.627 167.403 200.952 167.402H200.953C201.278 167.402 201.541 167.665 201.542 167.99L201.569 189.951C201.57 190.275 201.307 190.539 200.982 190.54H200.981Z" fill="white"/>
<path d="M210.337 190.528C210.012 190.528 209.749 190.265 209.748 189.94L209.721 167.98C209.72 167.655 209.983 167.391 210.308 167.391H210.309C210.634 167.391 210.897 167.654 210.898 167.978L210.925 189.939C210.925 190.263 210.662 190.527 210.337 190.528H210.337Z" fill="white"/>
<path d="M213.457 190.523C213.132 190.523 212.869 190.26 212.869 189.936L212.841 167.975C212.841 167.651 213.103 167.387 213.428 167.386H213.429C213.754 167.386 214.017 167.649 214.018 167.974L214.046 189.934C214.046 190.259 213.783 190.523 213.458 190.523C213.458 190.523 213.457 190.523 213.457 190.523Z" fill="white"/>
<path d="M147.451 190.608C147.127 190.608 146.863 190.345 146.863 190.02L146.835 168.059C146.835 167.734 147.098 167.471 147.423 167.47H147.423C147.748 167.47 148.012 167.733 148.012 168.058L148.04 190.019C148.04 190.343 147.777 190.607 147.452 190.608H147.451Z" fill="white"/>
<path d="M157.335 190.595C157.01 190.595 156.747 190.332 156.746 190.007L156.718 168.046C156.718 167.722 156.981 167.458 157.306 167.457H157.307C157.631 167.457 157.895 167.72 157.895 168.045L157.923 190.006C157.923 190.331 157.66 190.595 157.335 190.595H157.335Z" fill="white"/>
<path d="M167.217 190.582C166.892 190.582 166.629 190.319 166.629 189.994L166.601 168.034C166.601 167.709 166.864 167.445 167.189 167.445H167.189C167.514 167.445 167.778 167.708 167.778 168.032L167.806 189.993C167.806 190.317 167.543 190.581 167.218 190.582H167.217Z" fill="white"/>
<path d="M177.101 190.569C176.776 190.569 176.512 190.306 176.512 189.981L176.484 168.021C176.484 167.696 176.747 167.432 177.072 167.432H177.073C177.398 167.432 177.661 167.695 177.661 168.02L177.689 189.98C177.689 190.305 177.426 190.569 177.101 190.569H177.101Z" fill="white"/>
<path d="M186.984 190.557C186.659 190.557 186.395 190.294 186.395 189.969L186.367 168.008C186.367 167.684 186.63 167.42 186.955 167.419H186.956C187.28 167.419 187.544 167.682 187.544 168.007L187.572 189.968C187.572 190.293 187.309 190.556 186.984 190.557H186.984Z" fill="white"/>
<path d="M196.866 190.544C196.541 190.544 196.278 190.281 196.278 189.956L196.25 167.996C196.25 167.671 196.513 167.407 196.838 167.406H196.838C197.163 167.406 197.427 167.67 197.427 167.994L197.455 189.955C197.455 190.28 197.192 190.544 196.867 190.544C196.867 190.544 196.866 190.544 196.866 190.544Z" fill="white"/>
<path d="M206.75 190.532C206.425 190.532 206.162 190.269 206.161 189.944L206.133 167.984C206.133 167.659 206.396 167.395 206.721 167.395H206.722C207.046 167.395 207.31 167.658 207.31 167.983L207.338 189.943C207.338 190.268 207.076 190.531 206.751 190.532H206.75Z" fill="white"/>
<path d="M216.632 190.519C216.308 190.519 216.044 190.256 216.044 189.931L216.016 167.971C216.016 167.647 216.279 167.383 216.604 167.382H216.605C216.929 167.382 217.193 167.645 217.193 167.97L217.221 189.93C217.221 190.255 216.958 190.519 216.633 190.519C216.633 190.519 216.632 190.519 216.632 190.519Z" fill="white"/>
<defs>
<linearGradient id="paint0_linear_1_449" x1="76.4929" y1="127.241" x2="70.8744" y2="117.191" gradientUnits="userSpaceOnUse">
<stop stop-color="#444B8C"/>
<stop offset="0.9964" stop-color="#26264F"/>
</linearGradient>
<linearGradient id="paint1_linear_1_449" x1="71.6354" y1="90.3691" x2="65.2259" y2="85.3088" gradientUnits="userSpaceOnUse">
<stop stop-color="#444B8C"/>
<stop offset="0.9964" stop-color="#26264F"/>
</linearGradient>
</defs>
</svg>
