<svg width="1408" height="975" viewBox="0 0 1408 975" fill="none" xmlns="http://www.w3.org/2000/svg">
<mask id="mask0_143_368" style="mask-type:alpha" maskUnits="userSpaceOnUse" x="39" y="0" width="1369" height="915">
<path d="M1237.5 676C1295.1 566.4 1372.83 527.667 1404.5 522H1407.5V0H41.501C23.901 141.6 103.501 252.333 145.501 290C199.101 346.8 314.501 369 365.501 373C481.501 385 547.834 449.333 566.501 480C604.901 528 685.168 675.333 720.501 743C798.101 912.6 941.501 925 1003.5 910C1093.9 897.2 1197.17 748.667 1237.5 676Z" fill="#3C58DD"/>
</mask>
<g mask="url(#mask0_143_368)">
<path d="M1237.5 676C1295.1 566.4 1372.83 527.667 1404.5 522H1407.5V0H41.501C23.901 141.6 103.501 252.333 145.501 290C199.101 346.8 314.501 369 365.501 373C481.501 385 547.834 449.333 566.501 480C604.901 528 685.168 675.333 720.501 743C798.101 912.6 941.501 925 1003.5 910C1093.9 897.2 1197.17 748.667 1237.5 676Z" fill="#3649D5"/>
<path d="M943.681 314.693V423.063H943.659C943.453 424.328 941.934 425.51 939.085 425.757C936.236 425.518 934.724 424.319 934.511 423.063H934.488V314.693H943.681Z" fill="url(#paint0_linear_143_368)"/>
<path d="M934.322 314.694C935.15 318.234 943.014 318.234 943.85 314.694C943.021 311.161 935.15 311.161 934.322 314.694Z" fill="url(#paint1_linear_143_368)"/>
<path d="M965.047 209.285C965.047 209.285 968.671 215.401 974.916 212.331C980.69 209.49 986.822 206.17 987.817 203.951C988.44 202.576 987.999 198.929 987.999 198.929L965.047 209.285Z" fill="#FFDA32"/>
<path d="M986.355 196.878L975.232 203.343C972.877 204.711 969.04 204.711 966.677 203.343C965.485 202.659 964.884 201.748 964.892 200.844L964.869 208.449C964.869 209.353 965.469 210.257 966.655 210.948C969.025 212.316 972.862 212.308 975.217 210.948L986.34 204.483C987.51 203.799 988.095 202.918 988.103 202.021L988.118 194.416C988.11 195.313 987.533 196.194 986.355 196.878Z" fill="url(#paint2_linear_143_368)"/>
<path d="M986.323 191.924C988.694 193.292 988.709 195.51 986.354 196.878L975.231 203.343C972.876 204.711 969.039 204.711 966.676 203.343C964.306 201.976 964.29 199.757 966.646 198.382L977.769 191.916C980.124 190.549 983.961 190.556 986.323 191.924Z" fill="url(#paint3_linear_143_368)"/>
<path d="M939.085 313.585C938.234 313.585 937.535 312.893 937.535 312.035L937.55 206.626C937.566 202.994 939.518 199.621 942.664 197.82L953.672 191.514C957.737 189.182 962.782 189.509 966.512 192.342L966.581 192.396L972.089 197.121C972.742 197.676 972.811 198.656 972.256 199.309C971.694 199.963 970.721 200.039 970.068 199.477L964.598 194.781C961.855 192.722 958.178 192.487 955.207 194.196L944.198 200.502C942.01 201.756 940.65 204.103 940.643 206.626L940.627 312.027C940.635 312.901 939.944 313.585 939.085 313.585Z" fill="url(#paint4_linear_143_368)"/>
<path d="M840.505 373.278V480.987H840.475C840.277 482.235 838.758 483.418 835.901 483.656C833.052 483.418 831.54 482.227 831.328 480.987H831.305V373.278H840.505Z" fill="url(#paint5_linear_143_368)"/>
<path d="M831.146 373.279C831.975 376.819 839.838 376.819 840.674 373.279C839.838 369.746 831.975 369.746 831.146 373.279Z" fill="url(#paint6_linear_143_368)"/>
<path d="M861.873 267.87C861.873 267.87 865.49 273.986 871.735 270.916C877.509 268.075 883.64 264.755 884.635 262.536C885.258 261.161 884.818 257.514 884.818 257.514L861.873 267.87Z" fill="#FFDA32"/>
<path d="M883.181 255.455L872.058 261.921C869.703 263.288 865.866 263.288 863.496 261.921C862.303 261.237 861.703 260.325 861.711 259.421L861.695 267.026C861.695 267.93 862.288 268.835 863.481 269.526C865.844 270.894 869.68 270.886 872.036 269.526L883.158 263.06C884.329 262.377 884.914 261.495 884.921 260.599L884.936 252.994C884.936 253.89 884.351 254.779 883.181 255.455Z" fill="url(#paint7_linear_143_368)"/>
<path d="M883.154 250.509C885.517 251.877 885.532 254.095 883.185 255.463L872.054 261.928C869.699 263.296 865.87 263.296 863.499 261.928C861.129 260.561 861.121 258.342 863.469 256.967L874.592 250.501C876.947 249.134 880.776 249.141 883.154 250.509Z" fill="url(#paint8_linear_143_368)"/>
<path d="M835.904 372.169C835.053 372.169 834.361 371.478 834.361 370.619L834.369 265.21C834.384 261.579 836.344 258.205 839.482 256.405L850.491 250.099C854.556 247.766 859.6 248.093 863.331 250.927L863.399 250.98L868.908 255.706C869.561 256.26 869.637 257.24 869.075 257.894C868.52 258.547 867.54 258.616 866.887 258.061L861.416 253.366C858.674 251.307 855.004 251.071 852.026 252.781L841.017 259.087C838.829 260.34 837.469 262.688 837.461 265.21L837.454 370.619C837.454 371.485 836.762 372.169 835.904 372.169Z" fill="url(#paint9_linear_143_368)"/>
<path d="M1894.59 185.079L443.478 1022.88L166.949 863.224L1618.06 25.4307L1894.59 185.079Z" fill="url(#paint10_linear_143_368)"/>
<path d="M417.236 872.249L1514.96 238.482" stroke="white" stroke-width="4.20794" stroke-miterlimit="10" stroke-linecap="round" stroke-dasharray="21.04 31.56"/>
<path d="M1126.62 513.309C1123.85 551.806 1099.19 568.232 1065.34 548.691C1031.49 529.15 1004.06 481.627 1004.06 442.545" stroke="url(#paint11_linear_143_368)" stroke-width="1.79584" stroke-miterlimit="10" stroke-linecap="round" stroke-linejoin="round"/>
<path d="M1071.21 176.873L1078.61 441.808C1078.61 456.008 1087.24 472.503 1097.89 478.657L1185.08 536.915C1195.73 543.061 1210.3 532.045 1210.3 517.845V250.365C1210.3 236.165 1201.67 219.67 1191.02 213.516L1097.89 159.748C1095.58 158.411 1093 157.788 1090.39 157.788C1081.02 157.803 1071.21 165.766 1071.21 176.873Z" fill="url(#paint12_linear_143_368)"/>
<path d="M1071.19 445.516V178.043C1071.19 163.843 1079.82 157.317 1090.47 163.463L1183.6 217.231C1194.25 223.378 1202.88 239.88 1202.88 254.08V521.552C1202.88 535.752 1194.25 542.279 1183.6 536.132L1090.47 482.364C1079.82 476.218 1071.19 459.723 1071.19 445.516Z" fill="url(#paint13_linear_143_368)"/>
<path d="M1198.91 252.378V518.666C1198.91 530.731 1191.58 536.285 1182.52 531.058L1167.25 522.237L1091.32 478.399C1082.27 473.172 1074.93 459.146 1074.93 447.081V180.801C1074.93 168.737 1082.27 163.183 1091.32 168.41L1145.26 199.552L1182.52 221.061C1191.58 226.288 1198.91 240.313 1198.91 252.378Z" fill="url(#paint14_linear_143_368)"/>
<path d="M1117.45 483.003L1156.4 505.484C1157.33 506.023 1157.79 506.76 1157.79 507.718C1157.79 508.667 1157.33 508.88 1156.4 508.341L1117.45 485.859C1116.53 485.32 1116.06 484.583 1116.06 483.626C1116.06 482.668 1116.52 482.471 1117.45 483.003Z" fill="url(#paint15_linear_143_368)"/>
<path opacity="0.1" d="M1198.91 252.378V518.666C1198.91 530.731 1191.58 536.285 1182.52 531.058L1167.25 522.237L1145.26 199.552L1182.52 221.061C1191.58 226.288 1198.91 240.313 1198.91 252.378Z" fill="url(#paint16_linear_143_368)"/>
<path d="M1052.61 545.394C1052.61 577.935 1029.77 591.132 1001.58 574.858C973.393 558.583 950.547 519.015 950.547 486.467" stroke="url(#paint17_linear_143_368)" stroke-width="1.79584" stroke-miterlimit="10" stroke-linecap="round" stroke-linejoin="round"/>
<path d="M1177.16 494.141C1198.67 481.719 1198.67 441.429 1177.15 404.155C1155.63 366.881 1120.74 346.733 1099.22 359.162C1077.7 371.584 1077.7 411.874 1099.22 449.148C1120.74 486.414 1155.64 506.563 1177.16 494.141Z" fill="#A2FDF1"/>
<path d="M1146.55 485.472C1116.12 467.899 1091.44 425.162 1091.44 390.023C1091.44 374.904 1096.03 363.683 1103.66 357.171C1091.13 361.608 1083.1 374.813 1083.1 394.84C1083.1 429.987 1107.77 472.723 1138.22 490.289C1155.56 500.302 1171.01 499.953 1181.11 491.322C1171.65 494.672 1159.64 493.031 1146.55 485.472Z" fill="url(#paint18_linear_143_368)"/>
<path d="M1005.95 454.725C1006.94 453.661 1007.13 452.073 1006.38 451.222C1004.31 448.859 1000.18 444.84 996.731 445.645C991.899 446.778 999.785 459.298 999.785 459.298L1001.1 463.902L1003.07 461.182C1002.66 459.602 1005.95 454.725 1005.95 454.725Z" fill="url(#paint19_radial_143_368)"/>
<path d="M1053.66 545.736C1053.66 545.736 1049.16 540.805 1046.68 540.737C1044.21 540.668 1037.82 524.972 1037.82 524.972L1050.24 521.728L1058.61 529.021L1056.85 541.01L1053.66 545.736Z" fill="url(#paint20_linear_143_368)"/>
<path d="M1166.24 473.08L1160.96 470.299C1160.96 470.299 1156.81 466.835 1151.98 469.388C1147.16 471.941 1141.47 468.491 1141.47 468.491L1150.85 456.669L1165.48 464.974L1166.24 473.08Z" fill="url(#paint21_linear_143_368)"/>
<path d="M1133.04 489.233C1133.04 480.442 1139.2 469.76 1146.82 465.361C1150.55 463.203 1153.94 462.968 1156.42 464.32L1156.47 464.351C1156.58 464.411 1156.69 464.472 1156.79 464.54L1161.39 467.314L1159.83 468.544C1160.33 469.897 1160.59 471.492 1160.59 473.316C1160.59 482.106 1154.42 492.788 1146.81 497.187C1145.65 497.863 1144.52 498.342 1143.44 498.654L1141.59 500.766L1136.84 498.023L1136.85 498.015C1134.49 496.526 1133.04 493.495 1133.04 489.233Z" fill="black"/>
<path d="M1137.69 491.922C1137.69 500.712 1143.86 504.276 1151.47 499.877C1159.09 495.485 1165.26 484.796 1165.26 476.005C1165.26 467.215 1159.09 463.652 1151.47 468.051C1143.86 472.45 1137.69 483.139 1137.69 491.922Z" fill="url(#paint22_linear_143_368)"/>
<path d="M1139.78 490.722C1139.78 498.183 1145.02 501.199 1151.47 497.476C1157.93 493.746 1163.17 484.682 1163.17 477.221C1163.17 469.76 1157.93 466.744 1151.47 470.467C1145.02 474.197 1139.78 483.261 1139.78 490.722ZM1142.69 489.035C1142.69 483.436 1146.62 476.628 1151.47 473.825C1156.32 471.021 1160.26 473.293 1160.26 478.892C1160.26 484.492 1156.33 491.299 1151.47 494.103C1146.63 496.906 1142.69 494.635 1142.69 489.035Z" fill="#C6F3DE"/>
<path d="M1156.2 480.982L1160.55 476.841L1159.85 474.759L1155.5 478.9C1154.91 479.462 1154.27 479.69 1153.77 479.553C1153.75 479.546 1153.74 479.546 1153.72 479.546C1153.22 479.424 1152.91 478.938 1152.91 478.224V472.951L1150.65 474.258V479.531C1150.65 480.245 1150.35 481.081 1149.84 481.787C1149.82 481.81 1149.81 481.825 1149.79 481.848C1149.29 482.562 1148.65 483.079 1148.06 483.2L1143.72 484.082L1143.02 486.969L1147.36 486.087C1147.95 485.966 1148.4 486.247 1148.59 486.824C1148.59 486.84 1148.59 486.855 1148.6 486.878C1148.8 487.447 1148.72 488.245 1148.35 489.035L1145.67 494.847L1147.5 495.326L1150.18 489.514C1150.55 488.724 1151.13 488.063 1151.75 487.713C1151.76 487.706 1151.78 487.698 1151.79 487.698C1151.79 487.69 1151.81 487.683 1151.82 487.683C1152.44 487.318 1153.02 487.303 1153.39 487.675L1156.07 490.395L1157.9 487.804L1155.22 485.092C1154.85 484.72 1154.78 484.013 1154.97 483.215C1154.98 483.193 1154.98 483.17 1154.98 483.147C1155.16 482.334 1155.61 481.536 1156.2 480.982Z" fill="#C6F3DE"/>
<path d="M1021.7 550.971C1021.7 542.18 1027.87 531.498 1035.48 527.099C1039.21 524.942 1042.6 524.706 1045.09 526.058L1045.14 526.089C1045.25 526.15 1045.35 526.21 1045.45 526.279L1050.06 529.052L1048.5 530.283C1048.99 531.635 1049.26 533.231 1049.26 535.054C1049.26 543.844 1043.09 554.527 1035.48 558.926C1034.31 559.602 1033.18 560.08 1032.1 560.392L1030.26 562.504L1025.51 559.761L1025.52 559.754C1023.15 558.265 1021.7 555.233 1021.7 550.971Z" fill="black"/>
<path d="M1026.36 553.668C1026.36 562.458 1032.52 566.021 1040.14 561.622C1047.75 557.231 1053.92 546.541 1053.92 537.751C1053.92 528.96 1047.75 525.397 1040.14 529.796C1032.52 534.187 1026.36 544.877 1026.36 553.668Z" fill="url(#paint23_linear_143_368)"/>
<path d="M1028.45 552.46C1028.45 559.92 1033.68 562.937 1040.14 559.214C1046.6 555.483 1051.83 546.419 1051.83 538.959C1051.83 531.498 1046.6 528.482 1040.14 532.204C1033.68 535.935 1028.45 544.999 1028.45 552.46ZM1031.36 550.773C1031.36 545.173 1035.29 538.366 1040.15 535.563C1045 532.759 1048.93 535.031 1048.93 540.63C1048.93 546.23 1045 553.037 1040.15 555.84C1035.29 558.644 1031.36 556.38 1031.36 550.773Z" fill="#C6F3DE"/>
<path d="M1044.87 542.72L1049.21 538.579L1048.51 536.497L1044.17 540.638C1043.57 541.2 1042.94 541.428 1042.43 541.291C1042.42 541.284 1042.4 541.284 1042.39 541.284C1041.89 541.162 1041.58 540.676 1041.58 539.962V534.689L1039.32 535.996V541.268C1039.32 541.983 1039.02 542.818 1038.51 543.525C1038.49 543.548 1038.48 543.563 1038.46 543.586C1037.96 544.3 1037.32 544.817 1036.73 544.938L1032.38 545.819L1031.68 548.707L1036.03 547.825C1036.61 547.704 1037.06 547.985 1037.25 548.562C1037.26 548.577 1037.26 548.593 1037.27 548.615C1037.47 549.185 1037.39 549.983 1037.02 550.773L1034.34 556.585L1036.17 557.064L1038.85 551.252C1039.21 550.462 1039.8 549.801 1040.42 549.451C1040.43 549.443 1040.44 549.436 1040.45 549.436C1040.46 549.436 1040.47 549.421 1040.48 549.421C1041.1 549.056 1041.69 549.041 1042.05 549.413L1044.74 552.133L1046.57 549.542L1043.89 546.83C1043.52 546.458 1043.44 545.751 1043.63 544.953C1043.64 544.931 1043.64 544.908 1043.65 544.885C1043.82 544.072 1044.28 543.274 1044.87 542.72Z" fill="#C6F3DE"/>
<path d="M943.484 530.89C969.338 565.999 1016.3 562.162 1017.05 561.873C1018.69 561.235 1020.41 560.642 1022.18 560.073C1021.96 558.956 1021.85 557.74 1021.85 556.433C1021.85 545.842 1029.28 532.964 1038.45 527.669C1046.73 522.89 1053.6 525.921 1054.85 534.355C1054.89 534.598 1054.93 534.833 1054.95 535.084C1055 535.601 1055.04 536.14 1055.05 536.695C1055.05 536.877 1055.05 537.067 1055.05 537.257C1055.05 539.985 1054.56 542.872 1053.66 545.736C1053.69 545.713 1053.72 545.683 1053.76 545.66L1134.1 494.703C1134.02 494.004 1133.98 493.267 1133.98 492.5C1133.98 491.892 1134.01 491.269 1134.05 490.646C1134.06 490.577 1134.06 490.509 1134.07 490.448C1134.12 489.749 1134.22 489.043 1134.34 488.329C1135.92 479.029 1142.38 469.008 1150.12 464.541C1158.8 459.534 1165.88 463.355 1166.24 473.073C1166.56 472.746 1166.87 472.412 1167.17 472.077L1175.48 462.892C1177.32 460.863 1178.3 457.543 1177.99 454.185C1177.63 450.295 1176.74 446.078 1175.34 441.565C1170.94 437.432 1167.45 429.614 1164.39 420.057L1131.68 397.689C1129.99 396.367 1127.23 395.934 1124.91 396.284L1120.83 396.649C1095.16 396.238 1073.47 404.953 1048.07 417.246C1023.42 430.199 1003.12 446.61 990.019 466.516C973.099 477.525 958.907 487.493 948.901 497.567L946.766 500.401C942.99 505.408 941.053 511.509 941.167 517.686C940.574 522.039 940.536 526.886 943.484 530.89Z" fill="url(#paint24_linear_143_368)"/>
<path d="M1054.55 497.826L1092.31 472.442L1089.48 450.629C1075.62 460.886 1060.71 479.591 1054.55 497.826Z" fill="black"/>
<path d="M1094.28 447.59L1096.47 469.798C1114.9 457.315 1127.74 453.197 1130.48 442.583C1130.95 440.798 1129.52 434.348 1128.26 433.899C1122.83 431.992 1108.11 439.309 1094.28 447.59Z" fill="black"/>
<path d="M1131.08 450.721C1131.08 450.721 1131.58 453.638 1129.87 454.77C1128.17 455.91 1122.54 459.777 1122.54 459.777C1122.54 459.777 1122.09 457.589 1125.36 454.755C1128.63 451.921 1131.08 450.721 1131.08 450.721Z" fill="url(#paint25_linear_143_368)"/>
<path d="M1125.58 456.981L1129.95 453.691C1130.26 453.463 1130.47 452.916 1130.41 452.476V452.468C1130.35 452.027 1130.06 451.86 1129.75 452.088L1125.39 455.378C1125.08 455.606 1124.87 456.153 1124.93 456.593V456.601C1124.98 457.042 1125.27 457.209 1125.58 456.981Z" fill="url(#paint26_linear_143_368)"/>
<path d="M1092.9 476.887C1092.9 476.887 1093.37 479.614 1091.78 480.67C1090.19 481.734 1084.92 485.35 1084.92 485.35C1084.92 485.35 1084.5 483.307 1087.56 480.655C1090.63 478.004 1092.9 476.887 1092.9 476.887Z" fill="url(#paint27_linear_143_368)"/>
<path d="M1087.59 483.147L1091.67 480.07C1091.96 479.857 1092.15 479.34 1092.1 478.93V478.923C1092.05 478.512 1091.77 478.353 1091.48 478.565L1087.4 481.642C1087.11 481.855 1086.92 482.372 1086.98 482.782V482.79C1087.03 483.2 1087.3 483.36 1087.59 483.147Z" fill="url(#paint28_linear_143_368)"/>
<path d="M1167.72 427.183C1167.72 427.183 1164.39 424.577 1162.7 425.572C1161.02 426.568 1155.8 435.472 1155.76 437.318C1155.72 439.164 1168.9 431.179 1168.9 431.179L1167.72 427.183Z" fill="url(#paint29_radial_143_368)"/>
<path d="M995.983 469.851C997.738 472.769 999.857 475.489 1002.3 478.026C1010.92 486.976 1023.63 493.67 1039.05 498.851C1041.5 499.672 1044.19 498.753 1045.61 496.595C1049.63 490.517 1057.8 479.12 1060.67 472.009C1061.75 469.35 1060.95 466.311 1058.71 464.518C1056.09 462.429 1053.46 460.415 1050.83 458.485C1041.81 451.845 1032.75 446.124 1023.63 441.33C1021.7 440.312 1019.35 440.578 1017.7 441.991C1011.94 446.945 1000.14 458.842 996.119 464.875C995.124 466.372 995.056 468.309 995.983 469.851Z" fill="black"/>
<path d="M1128.45 426.894L1093.39 402.597C1093.39 402.597 1104.52 398.647 1118.72 401.253C1135.99 404.421 1147.19 416.66 1145.88 422.769C1145.25 425.679 1132.6 427.973 1128.45 426.894Z" fill="url(#paint30_linear_143_368)"/>
<path opacity="0.31" d="M995.983 469.851C997.738 472.769 999.857 475.489 1002.3 478.026C1021.83 474.615 1039.46 465.52 1050.83 458.478C1041.81 451.837 1032.75 446.116 1023.63 441.322C1021.7 440.304 1019.35 440.57 1017.7 441.983C1011.94 446.937 1000.14 458.835 996.119 464.867C995.124 466.371 995.056 468.309 995.983 469.851Z" fill="url(#paint31_linear_143_368)"/>
<path d="M991.967 468.499C991.967 468.499 949.724 496.329 954.063 503.554C958.401 510.78 991.314 531.87 1004.68 531.346C1027.11 530.457 1040.94 502.559 1040.94 502.559C1040.94 502.559 1020.64 496.299 1006.71 485.282C992.772 474.266 991.967 468.499 991.967 468.499Z" fill="url(#paint32_linear_143_368)"/>
<path opacity="0.38" d="M1019.89 532.311C1021.85 531.916 1023.72 531.179 1025.55 530.336C1027.36 529.477 1029.1 528.467 1030.77 527.335C1034.11 525.086 1037.12 522.358 1039.85 519.38C1042.58 516.402 1044.97 513.135 1047.12 509.708C1048.2 507.999 1049.19 506.244 1050.15 504.466C1050.62 503.577 1051.06 502.665 1051.52 501.769L1052.82 499.087C1056.32 491.945 1060.01 484.925 1064.27 478.292C1068.55 471.675 1073.42 465.467 1079.03 459.99C1081.82 457.247 1084.8 454.694 1087.92 452.331C1091.02 449.938 1094.31 447.788 1097.69 445.805C1099.37 444.787 1101.11 443.898 1102.84 442.963C1104.61 442.113 1106.36 441.208 1108.17 440.441C1111.74 438.8 1115.43 437.394 1119.15 436.103C1121.02 435.48 1122.89 434.849 1124.79 434.31C1125.74 434.036 1126.68 433.732 1127.63 433.482L1130.49 432.714C1134.32 431.689 1138.2 430.701 1142.05 429.645C1145.89 428.589 1149.74 427.533 1153.57 426.401C1155.49 425.846 1157.4 425.269 1159.31 424.684C1160.27 424.387 1161.22 424.091 1162.17 423.772L1163.59 423.293C1164.04 423.119 1164.56 422.982 1164.96 422.754C1164.54 422.921 1164.01 423.005 1163.53 423.111L1162.07 423.407L1159.14 423.992L1153.26 425.155L1141.54 427.533C1139.59 427.92 1137.63 428.353 1135.69 428.764C1133.74 429.197 1131.79 429.554 1129.83 430.04L1126.9 430.739C1125.92 430.974 1124.95 431.263 1123.99 431.529C1122.04 432.038 1120.12 432.654 1118.2 433.254C1110.53 435.723 1103.03 438.876 1096.04 442.963C1092.53 444.992 1089.12 447.195 1085.89 449.657C1082.67 452.126 1079.6 454.793 1076.72 457.642C1073.84 460.491 1071.14 463.53 1068.63 466.713C1066.14 469.904 1063.85 473.247 1061.73 476.674C1059.61 480.1 1057.63 483.618 1055.81 487.189C1053.98 490.767 1052.28 494.391 1050.63 498.031L1049.4 500.766L1048.15 503.44C1047.28 505.21 1046.39 506.965 1045.4 508.667C1043.45 512.086 1041.23 515.346 1038.73 518.392C1036.23 521.431 1033.41 524.227 1030.29 526.643C1028.73 527.859 1027.07 528.945 1025.35 529.925C1023.61 530.898 1021.81 531.772 1019.89 532.311Z" fill="url(#paint33_linear_143_368)"/>
<path d="M1092.36 404.459C1091.5 403.836 1090.4 403.661 1089.38 403.98C1082.11 406.297 1051.85 416.622 1025.79 435.616C1024.46 436.589 1024.49 438.602 1025.87 439.521C1034.56 445.349 1060.07 463.408 1063.68 467.116C1067.88 457.383 1103.48 432.851 1121.67 428.733C1122.97 428.437 1123.32 426.75 1122.23 425.967L1092.36 404.459Z" fill="url(#paint34_linear_143_368)"/>
<path opacity="0.2" d="M1091.83 449.383L1091.29 449.459L1099.21 505.195L1099.76 505.119L1091.83 449.383Z" fill="black"/>
<path opacity="0.08" d="M1141.04 449.414C1138.53 452.62 1135.67 455.545 1132.72 458.348C1131.98 459.04 1131.25 459.754 1130.5 460.43L1128.2 462.436C1126.69 463.803 1125.07 465.034 1123.49 466.326C1117.13 471.401 1110.37 475.952 1103.41 480.138L1098.1 483.147L1096.77 483.899L1095.41 484.598L1092.7 485.988C1089.12 487.911 1085.43 489.612 1081.78 491.383C1080.86 491.823 1079.97 492.317 1079.03 492.712L1076.24 493.951C1074.39 494.779 1072.52 495.584 1070.68 496.45C1068.82 497.286 1066.91 498.008 1065.04 498.79C1063.16 499.588 1061.28 500.363 1059.41 501.191L1059.46 501.351C1063.36 500.143 1067.26 498.904 1071.11 497.529C1073.02 496.807 1074.91 496.025 1076.81 495.273L1079.66 494.133C1080.62 493.768 1081.53 493.305 1082.47 492.895L1088.04 490.289L1089.42 489.628L1090.77 488.898L1093.48 487.439L1096.17 485.966L1097.52 485.229L1098.83 484.438L1104.09 481.27C1111.02 476.917 1117.73 472.199 1124.01 466.964C1125.55 465.627 1127.15 464.343 1128.63 462.93L1130.89 460.848C1131.62 460.141 1132.34 459.412 1133.07 458.69C1135.95 455.796 1138.73 452.787 1141.17 449.497L1141.04 449.414Z" fill="black"/>
<path d="M1020.8 532.068C1020.8 532.068 1002.55 537.371 992.441 532.311C992.441 532.311 993.824 540.927 993.543 545.098C993.444 546.526 994.234 547.825 995.663 547.749C1001.13 547.468 1010.75 546.693 1013.51 544.589C1017.42 541.595 1020.8 532.068 1020.8 532.068Z" fill="url(#paint35_linear_143_368)"/>
<path opacity="0.2" d="M1053.67 545.736C1053.69 545.713 1053.73 545.683 1053.75 545.668L1134.1 494.711C1134.02 494.012 1133.98 493.282 1133.98 492.507C1133.98 491.899 1134 491.276 1134.05 490.653C1134.06 490.585 1134.07 490.517 1134.08 490.456C1133.77 490.38 1133.44 490.296 1133.06 490.228C1130.75 489.78 1127.13 489.628 1122.88 491.428C1116.77 494.004 1070.16 524.941 1054.95 535.084C1055 535.608 1055.04 536.14 1055.05 536.695C1055.06 536.885 1055.06 537.067 1055.06 537.257C1055.05 539.985 1054.55 542.864 1053.67 545.736Z" fill="white"/>
<path opacity="0.15" d="M1054.95 535.077C1055 535.601 1055.04 536.133 1055.04 536.687C1072.65 524.698 1120.66 492.606 1131.89 491.428L1133.13 491.026C1133.1 490.768 1133.07 490.494 1133.06 490.213C1130.76 489.765 1127.14 489.613 1122.88 491.413C1116.77 494.004 1070.16 524.934 1054.95 535.077Z" fill="black"/>
<path d="M1004.73 538.959C1003.6 536.611 1001.25 535.525 999.476 536.528C997.705 537.531 997.189 540.243 998.313 542.591C999.438 544.938 1001.79 546.025 1003.56 545.022C1005.33 544.019 1005.85 541.307 1004.73 538.959Z" fill="#C6F3DE"/>
<path d="M1001.17 540.319C1001 540.554 1001.03 540.927 1001.23 541.147C1001.44 541.367 1001.75 541.36 1001.92 541.117C1002.09 540.881 1002.06 540.509 1001.85 540.288C1001.65 540.076 1001.33 540.083 1001.17 540.319Z" fill="white"/>
<path d="M1000.93 539.187C1000.96 539.513 1001.19 539.764 1001.46 539.756C1001.73 539.749 1001.92 539.475 1001.89 539.149C1001.86 538.822 1001.63 538.571 1001.36 538.579C1001.09 538.594 1000.9 538.868 1000.93 539.187Z" fill="white"/>
<path d="M1002.68 538.207C1002.52 538.442 1002.55 538.814 1002.75 539.035C1002.96 539.255 1003.27 539.24 1003.44 539.004C1003.6 538.769 1003.57 538.397 1003.37 538.176C1003.16 537.956 1002.86 537.971 1002.68 538.207Z" fill="white"/>
<path d="M999.643 542.438C999.476 542.674 999.506 543.046 999.711 543.266C999.917 543.487 1000.23 543.472 1000.4 543.236C1000.56 543.001 1000.53 542.628 1000.33 542.408C1000.12 542.188 999.818 542.195 999.643 542.438Z" fill="white"/>
<path d="M1001.19 542.393C1001.22 542.72 1001.46 542.971 1001.73 542.963C1001.99 542.955 1002.19 542.682 1002.16 542.355C1002.13 542.028 1001.89 541.778 1001.63 541.785C1001.36 541.801 1001.17 542.074 1001.19 542.393Z" fill="white"/>
<path d="M1001.85 540.296C1001.65 540.075 1001.33 540.091 1001.17 540.326C1001 540.562 1001.03 540.934 1001.23 541.154C1001.44 541.375 1001.75 541.367 1001.92 541.124C1002.09 540.888 1002.06 540.516 1001.85 540.296Z" fill="white"/>
<path d="M1002.77 540.083C1002.51 540.091 1002.31 540.364 1002.34 540.683C1002.37 541.01 1002.6 541.261 1002.87 541.253C1003.14 541.246 1003.33 540.972 1003.3 540.645C1003.27 540.326 1003.04 540.076 1002.77 540.083Z" fill="white"/>
<path d="M1003.71 542.271C1003.5 542.051 1003.19 542.066 1003.02 542.302C1002.86 542.537 1002.89 542.91 1003.09 543.13C1003.3 543.35 1003.61 543.343 1003.78 543.107C1003.94 542.864 1003.91 542.492 1003.71 542.271Z" fill="white"/>
<path d="M999.991 538.313C999.786 538.093 999.474 538.108 999.307 538.343C999.14 538.579 999.17 538.951 999.375 539.171C999.581 539.392 999.892 539.377 1000.06 539.141C1000.23 538.906 1000.2 538.533 999.991 538.313Z" fill="white"/>
<path d="M1000.18 540.243C999.91 540.25 999.713 540.524 999.743 540.851C999.774 541.177 1000.01 541.428 1000.28 541.42C1000.54 541.413 1000.74 541.139 1000.71 540.813C1000.68 540.486 1000.44 540.228 1000.18 540.243Z" fill="white"/>
<path d="M1002.02 540.699C1002 540.372 1001.76 540.121 1001.49 540.129C1001.23 540.137 1001.03 540.41 1001.06 540.737C1001.08 541.064 1001.33 541.314 1001.59 541.307C1001.86 541.299 1002.06 541.026 1002.02 540.699Z" fill="white"/>
<path d="M1002.28 543.806C1002.25 543.48 1002.01 543.229 1001.75 543.236C1001.48 543.244 1001.29 543.518 1001.32 543.844C1001.34 544.171 1001.58 544.422 1001.85 544.414C1002.11 544.399 1002.3 544.125 1002.28 543.806Z" fill="white"/>
<path d="M1001.78 537.705C1001.75 537.379 1001.51 537.128 1001.25 537.135C1000.98 537.143 1000.79 537.417 1000.82 537.743C1000.85 538.07 1001.08 538.321 1001.35 538.313C1001.61 538.298 1001.8 538.024 1001.78 537.705Z" fill="white"/>
<path d="M999.074 541.459C999.34 541.451 999.537 541.177 999.507 540.851C999.484 540.524 999.241 540.273 998.975 540.281C998.709 540.289 998.512 540.562 998.542 540.889C998.573 541.215 998.808 541.466 999.074 541.459Z" fill="white"/>
<path d="M1004.07 541.208C1004.33 541.2 1004.53 540.926 1004.5 540.6C1004.48 540.273 1004.23 540.022 1003.97 540.03C1003.7 540.038 1003.5 540.311 1003.53 540.638C1003.56 540.964 1003.79 541.223 1004.07 541.208Z" fill="white"/>
<path d="M1012.66 538.389C1011.57 536.193 1009.41 535.183 1007.85 536.14C1006.28 537.09 1005.9 539.65 1006.99 541.846C1008.08 544.042 1010.24 545.052 1011.81 544.095C1013.37 543.145 1013.76 540.592 1012.66 538.389Z" fill="#C6F3DE"/>
<path d="M1009.42 539.65C1009.27 539.893 1009.34 540.273 1009.57 540.501C1009.8 540.729 1010.11 540.714 1010.26 540.471C1010.41 540.228 1010.34 539.848 1010.11 539.62C1009.89 539.4 1009.58 539.407 1009.42 539.65Z" fill="#C6F3DE"/>
<path d="M1009.08 538.488C1009.14 538.822 1009.4 539.081 1009.67 539.073C1009.95 539.065 1010.12 538.784 1010.06 538.45C1010 538.116 1009.74 537.857 1009.47 537.865C1009.2 537.88 1009.02 538.154 1009.08 538.488Z" fill="#C6F3DE"/>
<path d="M1010.77 537.477C1010.61 537.721 1010.68 538.1 1010.91 538.328C1011.14 538.556 1011.45 538.541 1011.6 538.298C1011.75 538.055 1011.69 537.675 1011.46 537.447C1011.23 537.227 1010.92 537.234 1010.77 537.477Z" fill="#C6F3DE"/>
<path d="M1008.08 541.823C1007.93 542.066 1008 542.446 1008.22 542.674C1008.45 542.902 1008.76 542.887 1008.92 542.644C1009.07 542.4 1009 542.021 1008.77 541.793C1008.54 541.572 1008.23 541.58 1008.08 541.823Z" fill="#C6F3DE"/>
<path d="M1009.64 541.785C1009.69 542.12 1009.96 542.378 1010.23 542.37C1010.5 542.355 1010.67 542.082 1010.62 541.747C1010.57 541.413 1010.3 541.155 1010.03 541.162C1009.75 541.177 1009.59 541.451 1009.64 541.785Z" fill="#C6F3DE"/>
<path d="M1010.11 539.628C1009.89 539.4 1009.58 539.415 1009.42 539.658C1009.27 539.901 1009.34 540.281 1009.57 540.509C1009.8 540.737 1010.11 540.722 1010.26 540.479C1010.41 540.235 1010.34 539.856 1010.11 539.628Z" fill="#C6F3DE"/>
<path d="M1011.03 539.407C1010.76 539.414 1010.59 539.696 1010.65 540.03C1010.7 540.364 1010.97 540.623 1011.24 540.615C1011.51 540.607 1011.68 540.326 1011.63 539.992C1011.57 539.658 1011.3 539.399 1011.03 539.407Z" fill="#C6F3DE"/>
<path d="M1012.18 541.656C1011.95 541.428 1011.64 541.443 1011.49 541.686C1011.34 541.93 1011.41 542.309 1011.63 542.537C1011.86 542.765 1012.17 542.75 1012.33 542.507C1012.48 542.264 1012.42 541.884 1012.18 541.656Z" fill="#C6F3DE"/>
<path d="M1008.05 537.591C1007.82 537.363 1007.51 537.378 1007.35 537.621C1007.2 537.865 1007.27 538.244 1007.5 538.472C1007.73 538.7 1008.04 538.685 1008.19 538.442C1008.34 538.199 1008.27 537.819 1008.05 537.591Z" fill="#C6F3DE"/>
<path d="M1008.41 539.567C1008.14 539.574 1007.97 539.855 1008.02 540.19C1008.08 540.524 1008.34 540.782 1008.62 540.775C1008.89 540.759 1009.06 540.486 1009 540.152C1008.94 539.817 1008.68 539.559 1008.41 539.567Z" fill="#C6F3DE"/>
<path d="M1010.32 540.045C1010.27 539.711 1010 539.453 1009.73 539.46C1009.47 539.468 1009.29 539.749 1009.34 540.083C1009.4 540.417 1009.66 540.676 1009.94 540.668C1010.21 540.653 1010.38 540.379 1010.32 540.045Z" fill="#C6F3DE"/>
<path d="M1010.87 543.236C1010.81 542.902 1010.55 542.643 1010.28 542.651C1010.01 542.666 1009.84 542.94 1009.89 543.274C1009.95 543.608 1010.21 543.867 1010.49 543.859C1010.76 543.844 1010.93 543.563 1010.87 543.236Z" fill="#C6F3DE"/>
<path d="M1009.8 536.961C1009.75 536.626 1009.48 536.368 1009.21 536.376C1008.94 536.383 1008.77 536.664 1008.82 536.999C1008.88 537.333 1009.14 537.591 1009.41 537.584C1009.68 537.568 1009.86 537.295 1009.8 536.961Z" fill="#C6F3DE"/>
<path d="M1007.41 540.82C1007.68 540.813 1007.85 540.532 1007.8 540.197C1007.74 539.863 1007.48 539.605 1007.2 539.612C1006.94 539.62 1006.76 539.901 1006.82 540.235C1006.88 540.57 1007.14 540.836 1007.41 540.82Z" fill="#C6F3DE"/>
<path d="M1012.44 540.562C1012.72 540.554 1012.88 540.273 1012.83 539.939C1012.77 539.604 1012.51 539.346 1012.24 539.354C1011.97 539.361 1011.8 539.642 1011.85 539.977C1011.91 540.311 1012.17 540.577 1012.44 540.562Z" fill="#C6F3DE"/>
<path opacity="0.92" d="M947.442 521.72C947.366 527.099 969.885 546.313 989.722 547.362C990.527 547.4 991.219 546.785 991.264 545.979C991.302 545.28 991.348 544.376 991.371 543.358C991.424 541.39 991.401 539.005 991.188 536.923C990.93 534.568 990.414 532.607 989.426 532.068C987.792 531.187 967.309 523.095 955.1 510.772C955.1 510.772 953.816 512.17 952.296 514.009C951.073 515.49 949.706 517.245 948.733 518.78C947.966 519.973 947.457 521.036 947.442 521.72Z" fill="url(#paint36_linear_143_368)"/>
<path opacity="0.51" d="M977.943 526.62C978.452 526.886 978.953 527.137 979.44 527.387C977.571 531.217 974.76 537.591 973.696 543.236C973.172 543.008 972.647 542.773 972.131 542.529C973.286 536.725 976.066 530.427 977.943 526.62Z" fill="url(#paint37_linear_143_368)"/>
<path opacity="0.51" d="M973.304 524.098C973.797 524.379 974.291 524.653 974.778 524.926C972.817 528.999 970.044 535.472 969.163 541.048C968.639 540.775 968.122 540.494 967.605 540.205C968.616 534.469 971.366 528.11 973.304 524.098Z" fill="url(#paint38_linear_143_368)"/>
<path opacity="0.51" d="M982.382 528.831C982.914 529.082 983.423 529.325 983.901 529.553C982.055 533.344 979.358 539.498 978.279 545.014C977.747 544.832 977.215 544.642 976.684 544.444C977.831 538.776 980.528 532.637 982.382 528.831Z" fill="url(#paint39_linear_143_368)"/>
<path opacity="0.51" d="M986.562 530.776C987.154 531.042 987.671 531.27 988.104 531.468C986.258 535.365 983.811 541.162 982.847 546.344C982.307 546.215 981.76 546.078 981.221 545.926C982.224 540.562 984.685 534.712 986.562 530.776Z" fill="url(#paint40_linear_143_368)"/>
<path opacity="0.51" d="M964.331 518.445C964.794 518.772 965.265 519.099 965.736 519.418C963.731 523.657 961.026 530.123 960.289 535.585C959.772 535.213 959.263 534.841 958.762 534.469C959.704 528.839 962.371 522.54 964.331 518.445Z" fill="url(#paint41_linear_143_368)"/>
<path opacity="0.51" d="M968.761 521.386C969.24 521.69 969.726 521.986 970.205 522.275C968.199 526.484 965.464 532.987 964.697 538.503C964.172 538.184 963.656 537.857 963.154 537.531C964.089 531.848 966.794 525.488 968.761 521.386Z" fill="url(#paint42_linear_143_368)"/>
<path opacity="0.51" d="M957.218 512.8C955.334 516.713 952.674 522.89 951.687 528.337C951.178 527.813 950.707 527.296 950.281 526.803C951.497 521.218 954.126 515.277 955.934 511.592C956.359 512.003 956.785 512.405 957.218 512.8Z" fill="url(#paint43_linear_143_368)"/>
<path opacity="0.51" d="M960.035 515.209C960.483 515.574 960.932 515.931 961.388 516.28C959.412 520.429 956.738 526.788 955.932 532.235C955.416 531.81 954.922 531.384 954.443 530.959C955.477 525.359 958.121 519.19 960.035 515.209Z" fill="url(#paint44_linear_143_368)"/>
<path d="M948.732 518.78C958.632 529.052 971.73 538.655 991.37 543.366C991.423 541.398 991.4 539.012 991.188 536.93C978.864 532.516 962.036 524.995 952.296 514.016C951.073 515.482 949.705 517.245 948.732 518.78Z" fill="url(#paint45_linear_143_368)"/>
<path d="M954.001 509.617L946.122 521.006C946.122 521.006 939.208 512.352 947.702 500.53C947.702 500.538 949.989 506.844 954.001 509.617Z" fill="url(#paint46_linear_143_368)"/>
<path d="M951.172 508.652C950.169 506.57 948.088 505.605 946.523 506.494C944.957 507.383 944.494 509.792 945.489 511.866C946.492 513.947 948.574 514.912 950.139 514.023C951.712 513.135 952.168 510.734 951.172 508.652Z" fill="#C6F3DE"/>
<path d="M948.011 509.86C947.859 510.073 947.89 510.4 948.072 510.597C948.254 510.795 948.528 510.78 948.68 510.574C948.832 510.362 948.801 510.035 948.619 509.838C948.437 509.64 948.163 509.648 948.011 509.86Z" fill="white"/>
<path d="M947.801 508.857C947.824 509.146 948.036 509.367 948.272 509.359C948.507 509.351 948.682 509.108 948.659 508.819C948.637 508.531 948.424 508.31 948.188 508.318C947.945 508.326 947.778 508.569 947.801 508.857Z" fill="white"/>
<path d="M949.363 507.984C949.211 508.196 949.241 508.523 949.424 508.72C949.606 508.918 949.88 508.903 950.031 508.698C950.183 508.485 950.153 508.158 949.971 507.961C949.788 507.763 949.507 507.778 949.363 507.984Z" fill="white"/>
<path d="M946.662 511.729C946.51 511.942 946.54 512.269 946.723 512.466C946.905 512.664 947.178 512.648 947.33 512.443C947.482 512.231 947.452 511.904 947.27 511.706C947.087 511.509 946.814 511.524 946.662 511.729Z" fill="white"/>
<path d="M948.039 511.699C948.062 511.988 948.275 512.208 948.51 512.2C948.746 512.193 948.921 511.949 948.898 511.661C948.875 511.372 948.662 511.152 948.427 511.159C948.184 511.175 948.016 511.41 948.039 511.699Z" fill="white"/>
<path d="M948.619 509.837C948.437 509.64 948.163 509.655 948.011 509.86C947.859 510.073 947.89 510.399 948.072 510.597C948.254 510.795 948.528 510.779 948.68 510.574C948.832 510.361 948.801 510.027 948.619 509.837Z" fill="white"/>
<path d="M949.436 509.648C949.201 509.655 949.026 509.898 949.049 510.179C949.072 510.468 949.284 510.689 949.52 510.681C949.755 510.673 949.93 510.43 949.907 510.141C949.885 509.853 949.672 509.64 949.436 509.648Z" fill="white"/>
<path d="M950.268 511.585C950.085 511.387 949.812 511.402 949.66 511.608C949.508 511.82 949.538 512.147 949.721 512.345C949.903 512.542 950.176 512.527 950.328 512.322C950.473 512.117 950.45 511.782 950.268 511.585Z" fill="white"/>
<path d="M946.969 508.082C946.786 507.885 946.513 507.9 946.361 508.105C946.209 508.318 946.239 508.645 946.422 508.842C946.604 509.04 946.878 509.024 947.03 508.819C947.182 508.607 947.159 508.272 946.969 508.082Z" fill="white"/>
<path d="M947.138 509.784C946.902 509.792 946.727 510.035 946.75 510.324C946.773 510.612 946.986 510.833 947.221 510.825C947.457 510.818 947.631 510.574 947.609 510.286C947.586 510.005 947.373 509.777 947.138 509.784Z" fill="white"/>
<path d="M948.778 510.194C948.756 509.906 948.543 509.685 948.307 509.693C948.072 509.701 947.897 509.944 947.92 510.232C947.943 510.521 948.155 510.742 948.391 510.734C948.627 510.719 948.801 510.483 948.778 510.194Z" fill="white"/>
<path d="M948.999 512.945C948.976 512.656 948.764 512.436 948.528 512.444C948.293 512.451 948.118 512.694 948.141 512.983C948.163 513.272 948.376 513.492 948.612 513.484C948.855 513.477 949.03 513.234 948.999 512.945Z" fill="white"/>
<path d="M948.558 507.535C948.535 507.247 948.322 507.026 948.087 507.034C947.851 507.041 947.676 507.285 947.699 507.573C947.722 507.862 947.935 508.082 948.17 508.075C948.406 508.067 948.581 507.824 948.558 507.535Z" fill="white"/>
<path d="M946.164 510.863C946.4 510.855 946.575 510.612 946.552 510.323C946.529 510.035 946.316 509.814 946.081 509.822C945.845 509.83 945.671 510.073 945.693 510.361C945.716 510.65 945.929 510.878 946.164 510.863Z" fill="white"/>
<path d="M950.579 510.643C950.814 510.635 950.989 510.392 950.966 510.103C950.943 509.814 950.73 509.594 950.495 509.602C950.259 509.609 950.085 509.852 950.107 510.141C950.138 510.43 950.343 510.658 950.579 510.643Z" fill="white"/>
<path d="M1059.25 488.306C1059.49 486.877 1060.78 485.738 1062.1 485.791C1065.75 485.943 1072.41 486.665 1074.22 489.871C1076.75 494.361 1059.67 495.987 1059.67 495.987L1054.56 497.825L1055.56 494.589C1057.28 493.92 1059.25 488.306 1059.25 488.306Z" fill="url(#paint47_radial_143_368)"/>
<path d="M950.547 486.467C950.547 453.927 973.393 440.73 1001.58 457.004C1029.77 473.278 1052.61 512.846 1052.61 545.394" stroke="url(#paint48_linear_143_368)" stroke-width="1.79584" stroke-miterlimit="10" stroke-linecap="round" stroke-linejoin="round"/>
<path d="M1004.06 442.546C1005.96 403.828 1031.49 387.623 1065.34 407.164C1099.19 426.705 1127.66 474.235 1126.62 513.309" stroke="url(#paint49_linear_143_368)" stroke-width="1.79584" stroke-miterlimit="10" stroke-linecap="round" stroke-linejoin="round"/>
<path opacity="0.3" d="M1042.83 178.78V293.063C1042.83 299.65 1047.45 307.658 1053.15 310.948L1152.13 368.089C1157.83 371.379 1162.45 368.705 1162.45 362.125V247.842C1162.45 241.255 1157.83 233.255 1152.13 229.958L1053.15 172.816C1047.46 169.526 1042.83 172.193 1042.83 178.78Z" fill="url(#paint50_linear_143_368)"/>
<path d="M1042.83 178.78V197.979L1162.44 267.041V247.842C1162.44 241.255 1157.83 233.255 1152.12 229.958L1053.15 172.816C1047.46 169.526 1042.83 172.193 1042.83 178.78Z" fill="url(#paint51_linear_143_368)"/>
<path d="M1152.77 247.554C1153.78 246.976 1153.78 245.1 1152.77 243.36C1151.77 241.62 1150.15 240.686 1149.14 241.263C1148.14 241.84 1148.14 243.717 1149.14 245.457C1150.15 247.197 1151.77 248.131 1152.77 247.554Z" fill="#F95E24"/>
<path d="M1142.95 241.878C1143.95 241.301 1143.95 239.424 1142.95 237.684C1141.95 235.944 1140.32 235.01 1139.32 235.587C1138.32 236.165 1138.31 238.041 1139.31 239.781C1140.31 241.521 1141.95 242.455 1142.95 241.878Z" fill="#FEC303"/>
<path d="M1133.11 236.195C1134.11 235.618 1134.11 233.741 1133.11 232.001C1132.11 230.262 1130.48 229.327 1129.48 229.905C1128.48 230.482 1128.48 232.359 1129.48 234.098C1130.48 235.838 1132.11 236.773 1133.11 236.195Z" fill="#38CED3"/>
<path opacity="0.31" d="M1113.25 310.173C1109.01 302.826 1106.67 294.962 1106.67 288.033C1106.67 281.104 1109.01 275.938 1113.25 273.492C1117.49 271.045 1123.14 271.6 1129.14 275.064C1135.14 278.529 1140.78 284.485 1145.02 291.832C1149.26 299.179 1151.6 307.043 1151.6 313.972C1151.6 320.901 1149.26 326.067 1145.02 328.513C1140.78 330.96 1135.14 330.405 1129.14 326.941C1123.14 323.484 1117.5 317.527 1113.25 310.173ZM1110.76 290.389C1110.76 302.089 1119 316.372 1129.14 322.223C1139.27 328.073 1147.52 323.317 1147.52 311.609C1147.52 299.901 1139.27 285.625 1129.14 279.775C1119 273.925 1110.76 278.688 1110.76 290.389Z" fill="#88FCF6"/>
<path d="M1129.15 326.956C1132.09 328.65 1135 329.661 1137.74 329.934C1141.86 330.344 1145.34 329.053 1147.82 326.204C1150.3 323.355 1151.6 319.123 1151.6 313.979C1151.6 312.68 1150.69 311.092 1149.56 310.439C1148.43 309.785 1147.52 310.317 1147.52 311.616C1147.52 315.825 1146.45 319.29 1144.42 321.622C1142.39 323.955 1139.54 325.011 1136.17 324.676C1132.79 324.342 1129.12 322.64 1125.54 319.753C1121.97 316.866 1118.71 312.976 1116.13 308.509C1113.56 304.041 1111.82 299.278 1111.1 294.734C1110.39 290.191 1110.75 286.164 1112.15 283.072C1113.55 279.988 1115.89 278.043 1118.92 277.458C1121.95 276.865 1125.48 277.67 1129.13 279.775C1130.25 280.428 1131.17 279.896 1131.17 278.597C1131.17 277.298 1130.26 275.71 1129.13 275.057C1124.67 272.481 1120.36 271.501 1116.65 272.223C1112.94 272.945 1110.08 275.315 1108.37 279.091C1106.66 282.859 1106.22 287.79 1107.1 293.344C1107.96 298.898 1110.09 304.718 1113.24 310.173C1116.4 315.635 1120.37 320.384 1124.75 323.917C1126.21 325.094 1127.69 326.112 1129.15 326.956Z" fill="#88FCF6"/>
<path d="M1130.09 279.236C1130.69 278.886 1130.69 277.769 1130.09 276.736C1129.5 275.703 1128.53 275.141 1127.93 275.49C1127.33 275.84 1127.33 276.956 1127.93 277.99C1128.52 279.023 1129.49 279.585 1130.09 279.236Z" fill="white"/>
<path opacity="0.31" d="M1138.73 300.296L1119.53 289.211C1118.01 288.33 1116.78 289.044 1116.78 290.807V291.164C1116.78 292.919 1118.01 295.061 1119.53 295.942L1138.73 307.027C1140.25 307.909 1141.49 307.195 1141.49 305.432V305.075C1141.49 303.312 1140.26 301.177 1138.73 300.296Z" fill="#88FCF6"/>
<path opacity="0.31" d="M1136.95 308.342L1121.33 299.324C1120.17 298.655 1119.23 299.194 1119.23 300.532C1119.23 301.869 1120.16 303.487 1121.33 304.156L1136.95 313.174C1138.1 313.843 1139.04 313.303 1139.04 311.966C1139.04 310.636 1138.1 309.01 1136.95 308.342Z" fill="#88FCF6"/>
<path d="M1056.98 245.061L1096.96 268.143C1097.94 268.713 1098.73 268.105 1098.73 266.798C1098.73 265.491 1097.94 263.972 1096.96 263.402L1056.98 240.321C1056 239.751 1055.2 240.359 1055.2 241.665C1055.2 242.972 1056 244.492 1056.98 245.061Z" fill="#88FCF6"/>
<path d="M1056.98 260.85L1096.96 283.931C1097.94 284.501 1098.73 283.893 1098.73 282.586C1098.73 281.279 1097.94 279.76 1096.96 279.19L1056.98 256.109C1056 255.539 1055.2 256.147 1055.2 257.453C1055.2 258.768 1056 260.287 1056.98 260.85Z" fill="#88FCF6"/>
<path d="M1056.98 276.645L1096.96 299.726C1097.94 300.296 1098.73 299.688 1098.73 298.382C1098.73 297.075 1097.94 295.555 1096.96 294.986L1056.98 271.904C1056 271.334 1055.2 271.942 1055.2 273.249C1055.2 274.556 1056 276.075 1056.98 276.645Z" fill="#88FCF6"/>
<path fill-rule="evenodd" clip-rule="evenodd" d="M1220.03 541.968C1220.03 541.907 1220.02 541.846 1220 541.793C1220 541.793 1220 541.785 1219.99 541.785C1219.97 541.725 1219.95 541.671 1219.91 541.611C1219.91 541.611 1219.91 541.603 1219.9 541.603C1219.86 541.542 1219.81 541.489 1219.76 541.436L1219.76 541.436H1219.75C1219.69 541.383 1219.62 541.329 1219.54 541.284C1219.45 541.231 1219.36 541.193 1219.27 541.155L1219.27 541.155C1219.2 541.124 1219.14 541.102 1219.06 541.086C1219.05 541.083 1219.04 541.081 1219.03 541.079C1219.02 541.077 1219.01 541.075 1219 541.071C1218.99 541.067 1218.98 541.065 1218.97 541.064C1218.96 541.062 1218.95 541.06 1218.95 541.056C1218.92 541.048 1218.9 541.041 1218.88 541.041C1218.82 541.026 1218.76 541.018 1218.7 541.01C1218.69 541.01 1218.68 541.01 1218.66 541.003L1218.66 541.003C1218.65 541.003 1218.64 541.003 1218.63 540.995C1218.61 540.995 1218.6 540.993 1218.58 540.991L1218.58 540.991L1218.58 540.991C1218.57 540.989 1218.55 540.988 1218.53 540.988C1218.48 540.98 1218.42 540.98 1218.37 540.98H1218.34H1218.3H1218.19C1218.12 540.98 1218.06 540.988 1218 540.995L1218 540.995H1217.99L1217.99 540.995C1217.92 541.003 1217.85 541.01 1217.78 541.026C1217.77 541.026 1217.76 541.03 1217.75 541.035L1217.75 541.035C1217.74 541.037 1217.74 541.039 1217.73 541.041C1217.7 541.048 1217.67 541.056 1217.64 541.064C1217.61 541.071 1217.59 541.079 1217.55 541.086C1217.52 541.094 1217.49 541.101 1217.45 541.109L1217.45 541.109C1217.43 541.117 1217.41 541.124 1217.4 541.132C1217.38 541.136 1217.37 541.14 1217.36 541.143C1217.36 541.147 1217.35 541.151 1217.33 541.155C1217.25 541.185 1217.17 541.223 1217.09 541.269C1216.74 541.466 1216.57 541.732 1216.57 541.99L1216.45 597.003L1212.26 595.903C1207.54 594.664 1204.07 590.569 1203.62 585.707L1202.18 570.01L1200.09 570.2L1201.52 585.897C1202.05 591.633 1206.14 596.473 1211.72 597.939L1216.45 599.18L1216.38 631.376V631.384C1216.38 631.444 1216.39 631.505 1216.42 631.558C1216.42 631.558 1216.42 631.566 1216.42 631.566C1216.45 631.627 1216.47 631.68 1216.51 631.741C1216.51 631.741 1216.51 631.748 1216.51 631.748C1216.55 631.809 1216.61 631.862 1216.66 631.915L1216.66 631.915H1216.67C1216.73 631.969 1216.8 632.022 1216.88 632.067C1216.96 632.121 1217.05 632.158 1217.14 632.196L1217.14 632.197C1217.21 632.227 1217.28 632.25 1217.36 632.265C1217.37 632.268 1217.38 632.27 1217.39 632.272C1217.4 632.274 1217.41 632.276 1217.42 632.28C1217.43 632.284 1217.44 632.286 1217.44 632.288C1217.45 632.29 1217.46 632.292 1217.47 632.295C1217.49 632.303 1217.52 632.311 1217.54 632.311C1217.59 632.326 1217.65 632.333 1217.71 632.341H1217.71L1217.71 632.341C1217.73 632.341 1217.74 632.341 1217.75 632.348C1217.77 632.348 1217.78 632.349 1217.79 632.356C1217.81 632.356 1217.82 632.358 1217.84 632.36C1217.85 632.362 1217.87 632.364 1217.88 632.364C1217.93 632.371 1218 632.371 1218.05 632.371H1218.08H1218.12H1218.22C1218.28 632.371 1218.35 632.364 1218.41 632.356H1218.43C1218.5 632.349 1218.57 632.341 1218.63 632.326C1218.64 632.326 1218.66 632.322 1218.67 632.316C1218.68 632.315 1218.68 632.313 1218.69 632.311C1218.7 632.307 1218.72 632.303 1218.73 632.299C1218.75 632.295 1218.76 632.292 1218.77 632.288C1218.79 632.282 1218.81 632.277 1218.83 632.272C1218.84 632.27 1218.85 632.267 1218.86 632.265C1218.89 632.257 1218.93 632.25 1218.97 632.242C1218.99 632.235 1219.01 632.227 1219.02 632.22L1219.02 632.219C1219.04 632.212 1219.06 632.204 1219.08 632.197C1219.17 632.166 1219.25 632.128 1219.33 632.083C1219.34 632.075 1219.36 632.067 1219.36 632.06C1219.37 632.056 1219.38 632.052 1219.38 632.048C1219.39 632.045 1219.39 632.041 1219.4 632.037C1219.42 632.029 1219.43 632.022 1219.45 632.007C1219.45 632.003 1219.45 632.001 1219.46 631.999C1219.46 631.997 1219.47 631.995 1219.47 631.991C1219.48 631.98 1219.49 631.973 1219.51 631.964C1219.51 631.961 1219.52 631.958 1219.52 631.953C1219.54 631.946 1219.55 631.938 1219.56 631.923L1219.58 631.908C1219.58 631.905 1219.58 631.903 1219.58 631.902C1219.59 631.899 1219.59 631.897 1219.59 631.893C1219.59 631.89 1219.6 631.887 1219.6 631.884C1219.6 631.88 1219.6 631.877 1219.61 631.877L1219.64 631.839C1219.66 631.824 1219.67 631.817 1219.67 631.801C1219.68 631.794 1219.69 631.786 1219.69 631.779C1219.69 631.771 1219.7 631.771 1219.7 631.763L1219.71 631.748C1219.72 631.733 1219.73 631.718 1219.74 631.71C1219.74 631.71 1219.74 631.703 1219.74 631.703C1219.75 631.695 1219.76 631.688 1219.76 631.68V631.672L1219.77 631.665L1219.79 631.619V631.612C1219.8 631.604 1219.8 631.589 1219.8 631.581V631.574V631.566C1219.81 631.56 1219.81 631.555 1219.81 631.549C1219.81 631.547 1219.81 631.545 1219.81 631.543C1219.81 631.536 1219.82 631.528 1219.82 631.52V631.513C1219.82 631.505 1219.82 631.499 1219.82 631.494C1219.82 631.488 1219.83 631.482 1219.83 631.475V631.467C1219.83 631.452 1219.83 631.437 1219.83 631.422V631.406V631.376V631.361C1219.83 630.987 1219.84 630.611 1219.84 630.233C1219.84 629.851 1219.84 629.467 1219.84 629.082L1219.86 622.282V621.955L1219.93 589.008L1224.31 588.161C1229.86 587.097 1234 582.607 1234.63 577L1235.56 568.719L1233.47 568.483L1232.54 576.765C1232.02 581.452 1228.55 585.205 1223.92 586.094L1219.93 586.864L1220.02 541.96C1220.03 541.975 1220.03 541.968 1220.03 541.968Z" fill="url(#paint52_linear_143_368)"/>
<path d="M1214.43 557.687C1209.06 555.856 1178.91 546.177 1181.22 561.326C1181.29 566.105 1182.65 571.15 1185.94 574.804C1192.45 582.265 1202.59 581.452 1209.26 574.242C1214.92 568.111 1214.75 563.165 1214.43 557.687Z" fill="url(#paint53_linear_143_368)"/>
<path d="M1185.65 552.9C1193.81 549.884 1204.34 548.349 1210.53 552.057C1216.73 555.765 1214.98 561.759 1208.6 565.338C1202.23 568.916 1192.03 568.81 1185.83 565.11C1179.63 561.394 1179.27 556.479 1185.65 552.9Z" fill="url(#paint54_linear_143_368)"/>
<path d="M1244.99 514.449C1236.77 511.645 1190.53 496.8 1194.06 520.026C1194.16 527.357 1196.26 535.092 1201.3 540.699C1211.3 552.148 1226.84 550.902 1237.07 539.832C1245.75 530.442 1245.49 522.852 1244.99 514.449Z" fill="url(#paint55_linear_143_368)"/>
<path d="M1200.84 507.102C1213.36 502.475 1229.5 500.12 1239.01 505.803C1248.52 511.486 1245.84 520.679 1236.06 526.172C1226.28 531.658 1210.64 531.506 1201.13 525.823C1191.63 520.14 1191.06 512.595 1200.84 507.102Z" fill="url(#paint56_linear_143_368)"/>
<path d="M1223.47 560.171C1227.37 558.842 1249.29 551.799 1247.62 562.815C1247.57 566.295 1246.58 569.957 1244.19 572.616C1239.45 578.041 1232.08 577.456 1227.23 572.206C1223.11 567.754 1223.23 564.16 1223.47 560.171Z" fill="url(#paint57_linear_143_368)"/>
<path d="M1244.26 565.565C1239.76 568.263 1232.34 568.339 1227.71 565.733C1223.07 563.134 1221.8 558.773 1226.3 556.076C1230.81 553.379 1238.47 554.496 1244.4 556.691C1249.04 559.297 1248.77 562.868 1244.26 565.565Z" fill="url(#paint58_linear_143_368)"/>
<path fill-rule="evenodd" clip-rule="evenodd" d="M1129.54 606.912C1129.54 606.851 1129.53 606.79 1129.51 606.737C1129.51 606.737 1129.51 606.729 1129.5 606.729C1129.48 606.668 1129.46 606.615 1129.42 606.554C1129.42 606.554 1129.42 606.547 1129.41 606.547C1129.37 606.486 1129.32 606.433 1129.27 606.38L1129.27 606.38H1129.26C1129.2 606.327 1129.13 606.273 1129.05 606.228C1128.96 606.175 1128.87 606.137 1128.78 606.099L1128.78 606.099C1128.71 606.068 1128.64 606.045 1128.57 606.03C1128.56 606.027 1128.55 606.025 1128.54 606.023C1128.53 606.021 1128.52 606.019 1128.51 606.015C1128.5 606.011 1128.49 606.009 1128.48 606.007C1128.47 606.006 1128.46 606.004 1128.45 606C1128.43 605.992 1128.41 605.985 1128.39 605.985C1128.33 605.969 1128.27 605.962 1128.21 605.954L1128.21 605.954C1128.2 605.954 1128.19 605.954 1128.17 605.947C1128.16 605.947 1128.15 605.947 1128.14 605.939C1128.12 605.939 1128.11 605.937 1128.09 605.935L1128.09 605.935L1128.09 605.935C1128.07 605.933 1128.06 605.931 1128.04 605.931C1127.99 605.924 1127.93 605.924 1127.88 605.924H1127.85H1127.81H1127.7C1127.64 605.924 1127.57 605.931 1127.51 605.939H1127.5L1127.5 605.939C1127.43 605.947 1127.36 605.954 1127.29 605.969C1127.28 605.969 1127.27 605.973 1127.26 605.979L1127.26 605.979C1127.25 605.981 1127.25 605.983 1127.24 605.985C1127.21 605.992 1127.18 606 1127.15 606.007C1127.12 606.015 1127.09 606.023 1127.06 606.03C1127.03 606.038 1127 606.045 1126.96 606.053L1126.96 606.053C1126.94 606.06 1126.92 606.068 1126.91 606.076L1126.9 606.076C1126.89 606.08 1126.88 606.083 1126.87 606.087C1126.87 606.091 1126.86 606.095 1126.84 606.099C1126.76 606.129 1126.68 606.167 1126.6 606.213C1126.25 606.41 1126.08 606.676 1126.08 606.934L1125.96 661.949L1121.76 660.847C1117.04 659.608 1113.57 655.513 1113.12 650.651L1111.69 634.954L1109.59 635.144L1111.03 650.841C1111.55 656.577 1115.65 661.417 1121.22 662.883L1125.96 664.125L1125.89 696.32V696.327C1125.89 696.388 1125.9 696.449 1125.92 696.502C1125.92 696.502 1125.92 696.51 1125.93 696.51C1125.96 696.571 1125.98 696.624 1126.02 696.685C1126.02 696.685 1126.02 696.692 1126.02 696.692C1126.06 696.753 1126.11 696.806 1126.17 696.859L1126.17 696.859L1126.17 696.859H1126.18C1126.24 696.912 1126.3 696.966 1126.39 697.011C1126.47 697.064 1126.56 697.102 1126.65 697.14L1126.65 697.14L1126.65 697.14C1126.72 697.171 1126.79 697.194 1126.87 697.209C1126.88 697.212 1126.89 697.214 1126.9 697.216C1126.91 697.218 1126.92 697.22 1126.93 697.224C1126.94 697.228 1126.94 697.23 1126.95 697.232C1126.96 697.233 1126.97 697.235 1126.98 697.239L1126.98 697.239C1127 697.247 1127.03 697.254 1127.05 697.254C1127.1 697.27 1127.16 697.277 1127.22 697.285L1127.22 697.285C1127.24 697.285 1127.25 697.285 1127.26 697.292C1127.28 697.292 1127.28 697.292 1127.3 697.3C1127.32 697.3 1127.33 697.302 1127.35 697.304C1127.36 697.306 1127.38 697.308 1127.39 697.308C1127.44 697.315 1127.51 697.315 1127.56 697.315H1127.59H1127.63H1127.73C1127.79 697.315 1127.86 697.308 1127.92 697.3H1127.94C1128.01 697.292 1128.08 697.285 1128.14 697.27C1128.15 697.27 1128.17 697.266 1128.18 697.26C1128.18 697.258 1128.19 697.256 1128.2 697.254C1128.21 697.251 1128.22 697.247 1128.24 697.244C1128.25 697.24 1128.27 697.236 1128.28 697.232L1128.29 697.231C1128.31 697.224 1128.34 697.216 1128.37 697.209C1128.4 697.201 1128.44 697.194 1128.48 697.186C1128.5 697.178 1128.52 697.171 1128.53 697.163C1128.54 697.159 1128.55 697.156 1128.56 697.152C1128.57 697.148 1128.58 697.144 1128.59 697.14C1128.68 697.11 1128.76 697.072 1128.83 697.026C1128.85 697.019 1128.87 697.011 1128.87 697.004C1128.88 697 1128.89 696.996 1128.89 696.992C1128.9 696.988 1128.9 696.985 1128.91 696.981C1128.93 696.973 1128.94 696.966 1128.96 696.95C1128.96 696.947 1128.96 696.945 1128.97 696.943C1128.97 696.941 1128.98 696.939 1128.98 696.935C1128.99 696.924 1129 696.917 1129.02 696.908C1129.02 696.905 1129.03 696.901 1129.03 696.897C1129.05 696.89 1129.06 696.882 1129.07 696.867L1129.07 696.867L1129.09 696.852C1129.09 696.849 1129.09 696.847 1129.09 696.845C1129.1 696.843 1129.1 696.841 1129.1 696.837C1129.1 696.834 1129.11 696.831 1129.11 696.828C1129.11 696.824 1129.11 696.821 1129.12 696.821L1129.15 696.783L1129.15 696.783C1129.17 696.768 1129.18 696.76 1129.18 696.745C1129.19 696.738 1129.2 696.73 1129.2 696.723C1129.2 696.719 1129.2 696.717 1129.2 696.715C1129.21 696.713 1129.21 696.711 1129.21 696.707L1129.22 696.692L1129.22 696.691C1129.23 696.676 1129.24 696.662 1129.24 696.654C1129.24 696.654 1129.25 696.647 1129.25 696.647C1129.26 696.639 1129.27 696.631 1129.27 696.624V696.616L1129.28 696.609L1129.3 696.563V696.555C1129.31 696.548 1129.31 696.533 1129.31 696.525V696.517V696.51C1129.32 696.505 1129.32 696.501 1129.32 696.496C1129.32 696.493 1129.32 696.49 1129.32 696.487C1129.32 696.479 1129.32 696.472 1129.33 696.464V696.457C1129.33 696.446 1129.33 696.439 1129.33 696.43C1129.34 696.428 1129.34 696.425 1129.34 696.423C1129.34 696.422 1129.34 696.42 1129.34 696.419V696.411C1129.34 696.396 1129.34 696.381 1129.34 696.365V696.35V696.32V696.305C1129.34 695.93 1129.35 695.554 1129.35 695.176C1129.35 694.795 1129.35 694.411 1129.35 694.025L1129.37 687.226V686.899L1129.44 653.96L1133.83 653.112C1139.37 652.049 1143.51 647.559 1144.14 641.952L1145.07 633.67L1142.98 633.435L1142.05 641.716C1141.53 646.404 1138.07 650.157 1133.43 651.046L1129.44 651.816L1129.53 606.904C1129.54 606.919 1129.54 606.919 1129.54 606.912Z" fill="url(#paint59_linear_143_368)"/>
<path d="M1123.94 622.631C1118.58 620.8 1088.43 611.121 1090.73 626.27C1090.8 631.049 1092.17 636.094 1095.45 639.748C1101.97 647.209 1112.1 646.396 1118.78 639.186C1124.44 633.062 1124.26 628.109 1123.94 622.631Z" fill="url(#paint60_linear_143_368)"/>
<path d="M1154.5 579.393C1146.28 576.59 1100.05 561.744 1103.57 584.97C1103.68 592.302 1105.77 600.036 1110.81 605.643C1120.81 617.092 1136.35 615.846 1146.58 604.777C1155.26 595.386 1155 587.796 1154.5 579.393Z" fill="url(#paint61_linear_143_368)"/>
<path d="M1110.36 572.054C1122.87 567.427 1139.02 565.072 1148.53 570.755C1158.04 576.438 1155.35 585.631 1145.57 591.124C1135.8 596.617 1120.16 596.457 1110.65 590.774C1101.14 585.084 1100.58 577.539 1110.36 572.054Z" fill="url(#paint62_linear_143_368)"/>
<path d="M1095.15 617.845C1103.31 614.828 1113.84 613.294 1120.04 617.001C1126.24 620.709 1124.48 626.704 1118.11 630.282C1111.73 633.86 1101.54 633.754 1095.34 630.054C1089.15 626.346 1088.78 621.423 1095.15 617.845Z" fill="url(#paint63_linear_143_368)"/>
<path d="M1132.98 625.123C1136.88 623.793 1158.8 616.75 1157.13 627.767C1157.08 631.246 1156.09 634.909 1153.7 637.568C1148.96 642.992 1141.59 642.407 1136.74 637.157C1132.62 632.705 1132.75 629.104 1132.98 625.123Z" fill="url(#paint64_linear_143_368)"/>
<path d="M1153.78 630.518C1149.27 633.215 1141.86 633.291 1137.22 630.685C1132.59 628.086 1131.31 623.725 1135.82 621.028C1140.32 618.331 1147.98 619.448 1153.91 621.644C1158.55 624.242 1158.28 627.82 1153.78 630.518Z" fill="url(#paint65_linear_143_368)"/>
</g>
<path d="M0.830566 972.15H1188.97V974.692H0.830566V972.15Z" fill="#070707"/>
<path d="M339.999 800.361C341.978 805.061 360.995 809.421 389.215 813.277C394.19 813.959 399.444 814.62 404.948 815.272C500.995 826.582 764.06 832.9 780.272 829.565C802.679 824.955 847.264 599.636 847.264 599.636C847.264 599.636 715.983 597.361 611.729 596.25C576.063 595.878 451.999 594.933 428.995 594.933C393.364 594.933 336.8 792.751 339.999 800.361Z" fill="#0C517E"/>
<path d="M376.334 771.441C376.334 771.441 416.639 617.055 419.546 604.081C420.842 598.297 424.838 596.208 428.859 595.67C421.775 594.987 416.622 594.937 416.622 594.937C402.677 594.937 390.283 604.322 385.808 618.267C376.046 648.691 356.656 707.136 338.448 764.276C339.368 764.255 376.334 771.441 376.334 771.441Z" fill="#3AA1E4"/>
<path d="M132.048 908.963C138.475 947.692 180.505 972.353 223.616 972.353H309.006L302.387 748.607C302.387 748.607 220.857 722.035 200.395 745.425C182.467 765.916 133.853 847.027 131.293 895.035C131.039 899.853 131.306 904.501 132.048 908.963Z" fill="#3AA1E4"/>
<path d="M132.044 908.963C138.472 947.692 180.502 972.353 223.612 972.353H265.498C237.57 954.552 212.316 899.692 132.044 908.963Z" fill="#0C517E"/>
<path d="M358.715 770.526C358.715 770.526 243.528 715.247 221.71 751.357C210.125 770.531 178.244 847.027 175.892 895.035C173.604 941.68 216.587 972.354 260.799 972.354H339.325L358.715 770.526Z" fill="#0F1F2A"/>
<path d="M206.945 933.832C208.221 934.853 209.53 935.853 210.869 936.845C227.505 949.108 249.208 958.862 274.03 964.913C292.789 969.48 313.327 971.934 334.81 971.747L372.149 971.76H372.654L549.396 971.807L650.705 971.836H652.201L652.21 971.794L655.722 953.408L687.799 767.971C687.799 767.971 243.852 757.975 207.755 778.581C190.992 788.149 181.479 827.777 176.208 871.45C173.407 894.701 185.301 916.527 206.945 933.832Z" fill="#0F1F2B"/>
<path d="M206.949 933.832C208.225 934.853 209.534 935.853 210.873 936.845C227.508 949.108 249.212 958.862 274.034 964.913C292.793 969.481 313.331 971.934 334.814 971.748L372.153 971.76H372.657L549.4 971.807L650.709 971.837L652.218 971.794L655.73 953.408C593.633 941.408 507.709 929.222 418.077 930.167C332.475 931.065 260.797 930.951 206.949 933.832Z" fill="#0B151C"/>
<path d="M452.163 598.199C453.027 597.928 454.286 597.216 455.354 596.547H431.972C431.972 596.547 440.943 591.471 446.777 588.882C452.608 586.293 466.892 588.882 466.892 588.882C466.892 588.882 519.79 581.013 549.447 581.75C557.405 581.949 613.981 572.725 630.282 575.992C638.876 577.712 646.66 579.076 651.668 579.894C654.723 580.394 657.558 578.187 657.833 575.102L657.838 575.047C658.766 564.36 660.096 558.369 660.096 558.369L679.994 548.737C684.105 550.92 687.948 552.966 689.986 554.051C689.889 555.153 689.821 556.233 689.787 557.301C689.6 562.759 690.185 567.661 691.147 571.928C692.931 579.814 699.054 585.979 706.867 588.051L706.965 588.076C692.045 600.92 616.147 623.301 614.859 616.738C613.126 607.911 466.888 596.526 466.888 596.526V596.543C466.888 596.543 462.811 598.081 461.803 599.538C460.794 600.996 452.629 600.771 451.104 600.996C449.583 601.229 450.366 598.759 452.163 598.199Z" fill="#C7D0FF"/>
<path d="M400.254 922.811C400.254 922.811 384.83 950.628 377.999 953.768C372.571 956.26 357.889 958.726 349.707 965.027C340.215 972.332 356.652 971.946 360.262 971.946C360.262 971.946 378.648 969.756 387.364 969.942C392.381 970.048 407.339 971.946 407.339 971.946C419.118 971.946 428.089 961.251 425.889 949.675C425.868 949.569 425.847 949.459 425.826 949.353C423.695 938.603 422.034 924.734 422.034 924.734L400.254 922.811Z" fill="#C7D0FF"/>
<path d="M592.456 592.394C592.778 599.628 594.795 607.556 601.235 611.738C611.409 618.339 608.833 635.564 608.769 642.327L652.32 579.962C652.32 579.962 640.244 576.877 625.799 575.293C617.007 574.331 593.875 576.975 593.875 576.975C593.875 576.975 592.095 584.242 592.456 592.394Z" fill="#2FBA63"/>
<path d="M467.615 933.697C467.615 933.697 452.242 950.629 445.411 953.764C440.53 956.006 427.39 957.311 419.568 962.989C411.305 968.989 417.636 971.938 422.437 971.938C422.437 971.938 444.399 973.684 458.394 969.743C462.208 968.667 472.644 970.807 476.365 971.633C477.492 971.883 484.67 972.472 485.814 972.324C494.344 971.235 494.738 963.057 493.928 954.256C493.78 952.625 493.556 950.972 493.229 949.345C491.098 938.595 489.814 928.599 489.814 928.599L467.615 933.697Z" fill="#C7D0FF"/>
<path d="M391.871 924.387C391.871 924.387 397.426 928.269 402.307 929.891C409.994 932.455 424.324 931.264 424.324 931.264C424.324 931.264 460.905 860.294 468.629 842.344C475.947 825.327 482.074 788.014 482.074 788.014C487.659 787.713 529.452 793.632 566.172 789.662C585.706 787.552 602.227 782.73 607.825 772.865C623.961 744.446 572.422 712.759 572.422 712.759C572.422 712.759 471.659 730.925 449.515 747.005C428.519 762.247 391.871 924.387 391.871 924.387Z" fill="#1B44C1"/>
<path d="M462.134 932.862C462.134 932.862 469.969 936.968 475.041 937.828C484.261 939.387 494.185 936.307 494.185 936.307C494.185 936.307 499.812 902.311 522.88 847.912C528.668 834.264 527.778 806.281 528.554 805.933C528.554 805.933 654.605 807.01 669.245 778.704C671.618 774.115 674.266 761.166 673.974 756.959C672.444 734.569 643.372 725.933 643.372 725.933C643.372 725.933 511.977 749.17 489.422 764.666C466.863 780.154 462.134 932.862 462.134 932.862Z" fill="#2659CD"/>
<path d="M561.815 713.687C569.471 727.353 577.442 738.166 606.755 743.238C643.692 749.632 663.929 757.45 674.167 760.539C681.989 762.899 704.485 734.238 715.201 708.662C725.578 683.895 734.413 645.301 734.472 642.323C735.4 596.344 700.442 585.305 700.425 585.183C700.425 585.183 674.468 602.835 660.336 596.704C646.408 590.661 652.141 580.259 652.319 579.958L614.857 616.738C614.857 616.738 606.417 649.022 596.251 672.454C580.844 707.971 559.704 709.929 561.815 713.687Z" fill="#38D070"/>
<path d="M660.092 558.369C660.092 558.369 658.761 564.36 657.833 575.047C674.723 574.492 688.096 556.983 688.193 555.877C686.155 554.792 684.104 550.92 679.994 548.737L660.092 558.369Z" fill="#7990FF"/>
<path d="M656.151 569.123C656.151 569.123 691.689 568.111 690.719 545.988C689.748 523.865 693.681 508.839 670.947 508.551C648.219 508.263 644.18 516.898 642.71 524.36C641.24 531.822 646.884 568.818 656.151 569.123Z" fill="#C7D0FF"/>
<path d="M688.802 554.932C688.802 554.932 690.222 547.585 686.235 542.712C686.235 542.712 688.849 535.508 686.078 533.881C683.311 532.254 681.841 538.411 680.629 537.246C679.417 536.08 674.061 530.606 672.438 523.402C670.811 516.195 646.154 521.258 643.243 522.114C642.76 522.258 642.129 522.216 641.404 522.034C635.23 520.453 633.395 512.436 638.167 508.212C638.459 507.953 638.73 507.699 638.976 507.449C641.582 504.818 659.73 487.118 680.489 495.712C701.247 504.305 702.769 514.987 700.332 523.627C697.9 532.267 698.031 553.191 688.802 554.932Z" fill="#070707"/>
<path d="M663.625 555.53C663.625 555.53 661.316 558.737 656.511 559.585C651.705 560.428 650.65 556.682 650.65 556.682C650.65 556.682 655.061 555.22 663.625 555.53Z" fill="white"/>
<path d="M725.665 610.699C725.665 610.699 731.775 622.835 726.067 645.03C714.801 688.827 669.576 724.382 663.05 721.09C656.525 717.793 639.368 718.28 648.643 698.382C657.915 678.483 695.44 605.055 695.44 605.055L725.665 610.699Z" fill="#C7D0FF"/>
<path d="M670.716 653.437C682.559 660.043 691.258 665.322 709.385 665.28C723.034 665.246 734.279 662.585 734.279 662.585C734.279 662.585 748.296 605.585 722.101 593.852C713.08 589.809 700.428 585.187 700.428 585.187C700.428 585.187 649.504 641.606 670.716 653.437Z" fill="#38D070"/>
<path d="M577.678 703.289C577.678 703.289 640.877 696.547 649.36 696.861C657.843 697.17 666.462 719.971 665.263 721.166C664.064 722.365 638.636 723.594 622.907 722.505C605.648 721.306 583.657 715.734 583.657 715.734L577.678 703.289Z" fill="#C7D0FF"/>
<path d="M564.576 910.162C571.5 947.722 609.496 971.527 648.445 971.527H726.971L720.827 745.801C720.827 745.801 645.907 721.212 627.089 744.602C610.602 765.094 565.894 846.204 563.542 894.213C563.271 899.764 563.635 905.09 564.576 910.162Z" fill="#3AA1E4"/>
<path d="M564.573 910.162C571.497 947.722 609.493 971.527 648.442 971.527H711.281C681.866 952.781 642.264 900.989 564.573 910.162Z" fill="#0C517E"/>
<path d="M824.822 972.354C844.521 972.235 865.682 968.006 881.695 955.968C897.263 944.277 906.5 926.476 912.115 908.209C924.115 869.154 923.759 826.328 922.466 785.87C921.072 742.077 917.119 698.276 912.051 654.768C910.377 640.39 909.915 621.806 902.479 608.89C896.653 598.772 874.831 595.411 864.318 595.687C855.559 595.916 847.106 603.467 839.712 607.806C834.754 610.717 829.792 613.623 824.835 616.534C820.013 619.365 819.839 624.327 818.152 629.602C804 673.861 790.106 718.213 775.809 762.425C759.004 755.361 741.885 748.993 724.288 744.187C707.737 739.666 688.813 735.255 671.652 738.823C653.796 742.535 648.368 759.743 641.838 774.768C633.203 794.649 625.724 815.09 619.575 835.874C613.592 856.103 607.58 878.01 608.075 899.294C608.525 918.476 617.313 936.231 631.537 948.959C649.681 965.205 673.52 972.358 697.423 972.358C739.889 972.354 782.356 972.354 824.822 972.354Z" fill="#0F1F2A"/>
<path d="M812.269 771.441C812.269 771.441 852.575 617.055 855.481 604.081C856.778 598.297 860.769 596.208 864.795 595.67C857.71 594.987 852.558 594.937 852.558 594.937C838.613 594.937 826.218 604.322 821.744 618.267C811.985 648.691 794.011 704.789 775.803 761.929C776.723 761.908 812.269 771.441 812.269 771.441Z" fill="#3AA1E4"/>
<path d="M572.602 733.454H654.547C654.547 729.848 651.623 726.92 648.013 726.92H572.597V733.454H572.602Z" fill="#9ED8FF"/>
<path d="M572.839 644.208H446.143L476.533 733.455H604.051L572.839 644.208Z" fill="#9ED8FF"/>
<path d="M444.278 644.204L474.664 733.454H602.186L570.974 644.204H444.278Z" fill="url(#paint66_linear_143_368)"/>
<path d="M512.584 688.005C513.372 691.416 516.775 694.179 520.182 694.179C523.593 694.179 525.72 691.416 524.932 688.005C524.143 684.594 520.741 681.832 517.334 681.832C513.923 681.832 511.796 684.594 512.584 688.005Z" fill="white"/>
<path d="M779.626 763.23V768.539C779.626 770.399 780.228 771.916 780.961 771.916H974.665C975.398 771.916 976 770.399 976 768.539V763.23C976 761.374 975.398 759.853 974.665 759.853H780.961C780.228 759.853 779.626 761.374 779.626 763.23Z" fill="#0C517E"/>
<path d="M779.628 763.23V768.539C779.628 770.399 780.179 771.916 780.853 771.916H934.633C935.307 771.916 935.857 770.399 935.857 768.539V763.23C935.857 761.374 935.307 759.853 934.633 759.853H780.853C780.179 759.853 779.628 761.374 779.628 763.23Z" fill="#3AA1E4"/>
<path d="M828.652 771.916H966.17V972.353H828.652V771.916Z" fill="#3AA1E4"/>
<path d="M790.115 771.916H927.633V972.353H790.115V771.916Z" fill="#2659CD"/>
<path d="M797.51 961.285H920.248V777.577H797.51V961.285ZM918.922 959.959H798.837V778.903H918.922V959.959Z" fill="#9ED8FF"/>
<path d="M798.171 838.349H919.582V839.675H798.171V838.349Z" fill="#9ED8FF"/>
<path d="M798.171 900.307H919.582V901.633H798.171V900.307Z" fill="#9ED8FF"/>
<path d="M846.434 789.425H868.964C870.057 789.425 870.951 788.531 870.951 787.437C870.951 786.344 870.057 785.45 868.964 785.45H846.434C845.341 785.45 844.447 786.344 844.447 787.437C844.447 788.531 845.341 789.425 846.434 789.425Z" fill="#9ED8FF"/>
<path d="M846.434 850.01H868.964C870.057 850.01 870.951 849.116 870.951 848.022C870.951 846.929 870.057 846.035 868.964 846.035H846.434C845.341 846.035 844.447 846.929 844.447 848.022C844.447 849.116 845.341 850.01 846.434 850.01Z" fill="#9ED8FF"/>
<path d="M846.434 913.171H868.964C870.057 913.171 870.951 912.277 870.951 911.184C870.951 910.09 870.057 909.196 868.964 909.196H846.434C845.341 909.196 844.447 910.09 844.447 911.184C844.447 912.273 845.341 913.171 846.434 913.171Z" fill="#9ED8FF"/>
<path d="M463.973 488.424L454.995 519.801C454.863 520.263 454.817 520.733 454.85 521.187C454.961 522.835 456.088 524.314 457.766 524.797L512.257 540.39C513.944 540.873 515.69 540.204 516.656 538.848C516.914 538.483 517.118 538.068 517.249 537.615L526.224 506.25C526.838 504.106 525.597 501.873 523.457 501.258L468.965 485.665C466.825 485.051 464.596 486.284 463.973 488.424Z" fill="#9ED8FF"/>
<path d="M454.849 521.182C454.959 522.831 456.086 524.31 457.764 524.793L512.256 540.386C513.942 540.869 515.688 540.2 516.654 538.844L488.9 513.56L454.849 521.182Z" fill="#5270FF"/>
<path d="M463.972 488.424L488.366 518.72L525.76 507.856L526.218 506.25C526.832 504.106 525.591 501.873 523.451 501.258L468.959 485.665C466.824 485.051 464.595 486.284 463.972 488.424Z" fill="#5270FF"/>
<path d="M792.154 725.098H836.658C836.769 726.018 836.845 726.95 836.845 727.899V732.196C839.803 731.573 843.908 731.068 846.01 732.365C849.536 734.552 848.455 740.933 845.137 744.878C841.815 748.831 831.226 751.437 831.226 751.437C827.858 755.251 823.235 757.92 818.014 758.768C816.841 758.963 815.641 759.064 814.413 759.064C802.065 759.064 791.98 748.971 791.98 736.632V727.895C791.98 726.95 792.044 726.018 792.154 725.098ZM843.654 740.441C845.078 736.768 844.12 735.407 842.527 735.119C840.752 734.802 838.324 736.03 836.786 738.132C836.608 740.738 835.985 743.221 834.989 745.509C837.485 744.903 842.527 743.344 843.654 740.441Z" fill="#4EB9FF"/>
<path d="M825.178 759.852H804.805L805.987 757.111L824.292 756.429L825.178 759.852Z" fill="#4EB9FF"/>
<path d="M817.731 756.675C831.188 741.094 828.282 733.535 825.871 725.098H836.655C836.765 726.018 836.841 726.95 836.841 727.899V732.196C839.799 731.573 843.905 731.068 846.006 732.365C849.532 734.552 848.451 740.933 845.133 744.878C841.811 748.831 831.222 751.437 831.222 751.437C829.307 753.607 826.972 755.391 824.362 756.696L825.18 759.852H818.282L818.091 758.751C818.065 758.755 818.04 758.764 818.01 758.768L817.731 756.675ZM843.655 740.441C845.078 736.768 844.121 735.407 842.527 735.119C840.752 734.802 838.324 736.03 836.786 738.132C836.608 740.738 835.985 743.221 834.989 745.509C837.485 744.903 842.527 743.344 843.655 740.441Z" fill="#3AA1E4"/>
<defs>
<linearGradient id="paint0_linear_143_368" x1="934.488" y1="370.225" x2="943.681" y2="370.225" gradientUnits="userSpaceOnUse">
<stop stop-color="#5384E9"/>
<stop offset="1" stop-color="#195BE1"/>
</linearGradient>
<linearGradient id="paint1_linear_143_368" x1="934.322" y1="314.696" x2="943.85" y2="314.696" gradientUnits="userSpaceOnUse">
<stop stop-color="#C6D6F8"/>
<stop offset="1" stop-color="#8CADF0"/>
</linearGradient>
<linearGradient id="paint2_linear_143_368" x1="964.869" y1="203.194" x2="988.118" y2="203.194" gradientUnits="userSpaceOnUse">
<stop stop-color="#5384E9"/>
<stop offset="1" stop-color="#195BE1"/>
</linearGradient>
<linearGradient id="paint3_linear_143_368" x1="964.889" y1="197.632" x2="988.111" y2="197.632" gradientUnits="userSpaceOnUse">
<stop stop-color="#8CADF0"/>
<stop offset="1" stop-color="#5384E9"/>
</linearGradient>
<linearGradient id="paint4_linear_143_368" x1="937.535" y1="251.776" x2="972.63" y2="251.776" gradientUnits="userSpaceOnUse">
<stop stop-color="#5384E9"/>
<stop offset="1" stop-color="#195BE1"/>
</linearGradient>
<linearGradient id="paint5_linear_143_368" x1="831.305" y1="428.467" x2="840.505" y2="428.467" gradientUnits="userSpaceOnUse">
<stop stop-color="#5384E9"/>
<stop offset="1" stop-color="#195BE1"/>
</linearGradient>
<linearGradient id="paint6_linear_143_368" x1="831.147" y1="373.281" x2="840.674" y2="373.281" gradientUnits="userSpaceOnUse">
<stop stop-color="#C6D6F8"/>
<stop offset="1" stop-color="#8CADF0"/>
</linearGradient>
<linearGradient id="paint7_linear_143_368" x1="861.695" y1="261.771" x2="884.936" y2="261.771" gradientUnits="userSpaceOnUse">
<stop stop-color="#5384E9"/>
<stop offset="1" stop-color="#195BE1"/>
</linearGradient>
<linearGradient id="paint8_linear_143_368" x1="861.715" y1="256.217" x2="884.936" y2="256.217" gradientUnits="userSpaceOnUse">
<stop stop-color="#8CADF0"/>
<stop offset="1" stop-color="#5384E9"/>
</linearGradient>
<linearGradient id="paint9_linear_143_368" x1="834.361" y1="310.36" x2="869.452" y2="310.36" gradientUnits="userSpaceOnUse">
<stop stop-color="#5384E9"/>
<stop offset="1" stop-color="#195BE1"/>
</linearGradient>
<linearGradient id="paint10_linear_143_368" x1="1747.54" y1="92.6826" x2="663.336" y2="665.306" gradientUnits="userSpaceOnUse">
<stop stop-color="#00A3E8"/>
<stop offset="1" stop-color="#3C58DD"/>
</linearGradient>
<linearGradient id="paint11_linear_143_368" x1="1020.92" y1="510.083" x2="1114.92" y2="477.519" gradientUnits="userSpaceOnUse">
<stop stop-color="#112349" stop-opacity="0"/>
<stop offset="0.154" stop-color="#33FFD2"/>
<stop offset="0.3557" stop-color="#29F2DB"/>
<stop offset="0.7287" stop-color="#10CFF1"/>
<stop offset="0.8106" stop-color="#0AC7F7"/>
<stop offset="0.8339" stop-color="#0BBBEA" stop-opacity="0.8774"/>
<stop offset="0.877" stop-color="#0C9AC7" stop-opacity="0.6497"/>
<stop offset="0.9353" stop-color="#0E658F" stop-opacity="0.3419"/>
<stop offset="1" stop-color="#112349" stop-opacity="0"/>
</linearGradient>
<linearGradient id="paint12_linear_143_368" x1="1071.21" y1="348.222" x2="1210.3" y2="348.222" gradientUnits="userSpaceOnUse">
<stop stop-color="white"/>
<stop offset="1" stop-color="#C6D6F8"/>
</linearGradient>
<linearGradient id="paint13_linear_143_368" x1="1071.19" y1="349.798" x2="1202.88" y2="349.798" gradientUnits="userSpaceOnUse">
<stop stop-color="#174DB9"/>
<stop offset="1" stop-color="#153F92"/>
</linearGradient>
<linearGradient id="paint14_linear_143_368" x1="1163.36" y1="526.002" x2="1115.23" y2="205.133" gradientUnits="userSpaceOnUse">
<stop stop-color="#33FFD2"/>
<stop offset="0.9957" stop-color="#0083F9"/>
</linearGradient>
<linearGradient id="paint15_linear_143_368" x1="1116.06" y1="495.672" x2="1157.79" y2="495.672" gradientUnits="userSpaceOnUse">
<stop stop-color="#174DB9"/>
<stop offset="1" stop-color="#153F92"/>
</linearGradient>
<linearGradient id="paint16_linear_143_368" x1="1145.26" y1="366.288" x2="1198.91" y2="366.288" gradientUnits="userSpaceOnUse">
<stop stop-color="#D0DFE4"/>
<stop offset="1" stop-color="white"/>
</linearGradient>
<linearGradient id="paint17_linear_143_368" x1="964.536" y1="542.926" x2="1043.03" y2="515.735" gradientUnits="userSpaceOnUse">
<stop stop-color="#112349" stop-opacity="0"/>
<stop offset="0.154" stop-color="#33FFD2"/>
<stop offset="0.3557" stop-color="#29F2DB"/>
<stop offset="0.7287" stop-color="#10CFF1"/>
<stop offset="0.8106" stop-color="#0AC7F7"/>
<stop offset="0.8339" stop-color="#0BBBEA" stop-opacity="0.8774"/>
<stop offset="0.877" stop-color="#0C9AC7" stop-opacity="0.6497"/>
<stop offset="0.9353" stop-color="#0E658F" stop-opacity="0.3419"/>
<stop offset="1" stop-color="#112349" stop-opacity="0"/>
</linearGradient>
<linearGradient id="paint18_linear_143_368" x1="1083.1" y1="427.485" x2="1181.11" y2="427.485" gradientUnits="userSpaceOnUse">
<stop stop-color="#195BE1"/>
<stop offset="1" stop-color="#174DB9"/>
</linearGradient>
<radialGradient id="paint19_radial_143_368" cx="0" cy="0" r="1" gradientUnits="userSpaceOnUse" gradientTransform="translate(1001.28 451.906) rotate(63.4131) scale(19.7437 22.7991)">
<stop stop-color="#C6F3DE"/>
<stop offset="0.237" stop-color="#6CBA9F"/>
<stop offset="0.4082" stop-color="#319577"/>
<stop offset="0.4898" stop-color="#1A8767"/>
<stop offset="0.5281" stop-color="#2D9374"/>
<stop offset="0.6469" stop-color="#63B59A"/>
<stop offset="0.7575" stop-color="#8ED0B7"/>
<stop offset="0.8567" stop-color="#ADE3CC"/>
<stop offset="0.9409" stop-color="#BFEFD9"/>
<stop offset="1" stop-color="#C6F3DE"/>
</radialGradient>
<linearGradient id="paint20_linear_143_368" x1="1058.76" y1="533.732" x2="1037.96" y2="533.732" gradientUnits="userSpaceOnUse">
<stop offset="0.0354" stop-color="#1E1F21"/>
<stop offset="0.4075" stop-color="#1D2930"/>
<stop offset="1" stop-color="#1B3F51"/>
</linearGradient>
<linearGradient id="paint21_linear_143_368" x1="1166.39" y1="464.875" x2="1141.63" y2="464.875" gradientUnits="userSpaceOnUse">
<stop offset="0.0354" stop-color="#1E1F21"/>
<stop offset="0.4075" stop-color="#1D2930"/>
<stop offset="1" stop-color="#1B3F51"/>
</linearGradient>
<linearGradient id="paint22_linear_143_368" x1="1165.42" y1="483.964" x2="1137.85" y2="483.964" gradientUnits="userSpaceOnUse">
<stop offset="0.0354" stop-color="#1E1F21"/>
<stop offset="0.4075" stop-color="#1D2930"/>
<stop offset="1" stop-color="#1B3F51"/>
</linearGradient>
<linearGradient id="paint23_linear_143_368" x1="1054.07" y1="545.709" x2="1026.51" y2="545.709" gradientUnits="userSpaceOnUse">
<stop offset="0.0354" stop-color="#1E1F21"/>
<stop offset="0.4075" stop-color="#1D2930"/>
<stop offset="1" stop-color="#1B3F51"/>
</linearGradient>
<linearGradient id="paint24_linear_143_368" x1="1171.97" y1="436.292" x2="1006.63" y2="498.532" gradientUnits="userSpaceOnUse">
<stop stop-color="#33FFD2"/>
<stop offset="0.9957" stop-color="#153F97"/>
</linearGradient>
<linearGradient id="paint25_linear_143_368" x1="1131.3" y1="455.249" x2="1122.67" y2="455.249" gradientUnits="userSpaceOnUse">
<stop stop-color="#8CE7BE"/>
<stop offset="0.0989" stop-color="#9DEAC7"/>
<stop offset="0.3796" stop-color="#C7F3DF"/>
<stop offset="0.6332" stop-color="#E6FAF1"/>
<stop offset="0.8486" stop-color="#F8FEFB"/>
<stop offset="1" stop-color="white"/>
</linearGradient>
<linearGradient id="paint26_linear_143_368" x1="1130.22" y1="455.082" x2="1125.68" y2="454.109" gradientUnits="userSpaceOnUse">
<stop stop-color="#8CE7BE"/>
<stop offset="0.0989" stop-color="#9DEAC7"/>
<stop offset="0.3796" stop-color="#C7F3DF"/>
<stop offset="0.6332" stop-color="#E6FAF1"/>
<stop offset="0.8486" stop-color="#F8FEFB"/>
<stop offset="1" stop-color="white"/>
</linearGradient>
<linearGradient id="paint27_linear_143_368" x1="1093.12" y1="481.119" x2="1085.05" y2="481.119" gradientUnits="userSpaceOnUse">
<stop stop-color="#8CE7BE"/>
<stop offset="0.0989" stop-color="#9DEAC7"/>
<stop offset="0.3796" stop-color="#C7F3DF"/>
<stop offset="0.6332" stop-color="#E6FAF1"/>
<stop offset="0.8486" stop-color="#F8FEFB"/>
<stop offset="1" stop-color="white"/>
</linearGradient>
<linearGradient id="paint28_linear_143_368" x1="1091.94" y1="481.371" x2="1087.7" y2="480.462" gradientUnits="userSpaceOnUse">
<stop stop-color="#8CE7BE"/>
<stop offset="0.0989" stop-color="#9DEAC7"/>
<stop offset="0.3796" stop-color="#C7F3DF"/>
<stop offset="0.6332" stop-color="#E6FAF1"/>
<stop offset="0.8486" stop-color="#F8FEFB"/>
<stop offset="1" stop-color="white"/>
</linearGradient>
<radialGradient id="paint29_radial_143_368" cx="0" cy="0" r="1" gradientUnits="userSpaceOnUse" gradientTransform="translate(1162.51 427.606) rotate(180) scale(12.0377 12.0377)">
<stop offset="0.1208" stop-color="#1A635C"/>
<stop offset="0.4949" stop-color="#1A635C"/>
<stop offset="0.7828" stop-color="#1A635C"/>
</radialGradient>
<linearGradient id="paint30_linear_143_368" x1="1146.14" y1="413.765" x2="1093.55" y2="413.765" gradientUnits="userSpaceOnUse">
<stop offset="0.0354" stop-color="#1E1F21"/>
<stop offset="0.4075" stop-color="#1D2930"/>
<stop offset="1" stop-color="#1B3F51"/>
</linearGradient>
<linearGradient id="paint31_linear_143_368" x1="1050.97" y1="459.367" x2="995.473" y2="459.367" gradientUnits="userSpaceOnUse">
<stop stop-color="#C6F3DE"/>
<stop offset="1" stop-color="white"/>
</linearGradient>
<linearGradient id="paint32_linear_143_368" x1="919.349" y1="511.807" x2="1033.34" y2="494.772" gradientUnits="userSpaceOnUse">
<stop stop-color="white" stop-opacity="0.5"/>
<stop offset="1" stop-color="white" stop-opacity="0"/>
</linearGradient>
<linearGradient id="paint33_linear_143_368" x1="1166.8" y1="477.532" x2="1019.7" y2="477.532" gradientUnits="userSpaceOnUse">
<stop stop-color="#C6F3DE"/>
<stop offset="0.7992" stop-color="#F3FCF8"/>
<stop offset="1" stop-color="white"/>
</linearGradient>
<linearGradient id="paint34_linear_143_368" x1="1123.03" y1="435.47" x2="1024.96" y2="435.47" gradientUnits="userSpaceOnUse">
<stop stop-color="white" stop-opacity="0.5"/>
<stop offset="1" stop-color="white" stop-opacity="0"/>
</linearGradient>
<linearGradient id="paint35_linear_143_368" x1="1023.61" y1="548.275" x2="986.474" y2="528.468" gradientUnits="userSpaceOnUse">
<stop offset="0.4148" stop-color="white"/>
<stop offset="1" stop-color="#1A8767"/>
</linearGradient>
<linearGradient id="paint36_linear_143_368" x1="962.482" y1="512.354" x2="973.126" y2="537.918" gradientUnits="userSpaceOnUse">
<stop offset="0.0354" stop-color="#1E1F21"/>
<stop offset="0.4075" stop-color="#1D2930"/>
<stop offset="1" stop-color="#1B3F51"/>
</linearGradient>
<linearGradient id="paint37_linear_143_368" x1="978.38" y1="533.518" x2="970.578" y2="537.814" gradientUnits="userSpaceOnUse">
<stop offset="0.4148" stop-color="white"/>
<stop offset="1" stop-color="#1A8767"/>
</linearGradient>
<linearGradient id="paint38_linear_143_368" x1="973.799" y1="531.162" x2="966.019" y2="535.442" gradientUnits="userSpaceOnUse">
<stop offset="0.4148" stop-color="white"/>
<stop offset="1" stop-color="#1A8767"/>
</linearGradient>
<linearGradient id="paint39_linear_143_368" x1="982.838" y1="535.542" x2="975.149" y2="539.774" gradientUnits="userSpaceOnUse">
<stop offset="0.4148" stop-color="white"/>
<stop offset="1" stop-color="#1A8767"/>
</linearGradient>
<linearGradient id="paint40_linear_143_368" x1="987.096" y1="537.244" x2="979.689" y2="541.32" gradientUnits="userSpaceOnUse">
<stop offset="0.4148" stop-color="white"/>
<stop offset="1" stop-color="#1A8767"/>
</linearGradient>
<linearGradient id="paint41_linear_143_368" x1="964.835" y1="525.625" x2="957.223" y2="529.816" gradientUnits="userSpaceOnUse">
<stop offset="0.4148" stop-color="white"/>
<stop offset="1" stop-color="#1A8767"/>
</linearGradient>
<linearGradient id="paint42_linear_143_368" x1="969.279" y1="528.54" x2="961.575" y2="532.783" gradientUnits="userSpaceOnUse">
<stop offset="0.4148" stop-color="white"/>
<stop offset="1" stop-color="#1A8767"/>
</linearGradient>
<linearGradient id="paint43_linear_143_368" x1="956.285" y1="518.603" x2="948.976" y2="522.625" gradientUnits="userSpaceOnUse">
<stop offset="0.4148" stop-color="white"/>
<stop offset="1" stop-color="#1A8767"/>
</linearGradient>
<linearGradient id="paint44_linear_143_368" x1="960.483" y1="522.347" x2="952.984" y2="526.473" gradientUnits="userSpaceOnUse">
<stop offset="0.4148" stop-color="white"/>
<stop offset="1" stop-color="#1A8767"/>
</linearGradient>
<linearGradient id="paint45_linear_143_368" x1="1008.76" y1="550.027" x2="936.943" y2="511.722" gradientUnits="userSpaceOnUse">
<stop offset="0.4148" stop-color="white"/>
<stop offset="1" stop-color="#1A8767"/>
</linearGradient>
<linearGradient id="paint46_linear_143_368" x1="954.137" y1="510.768" x2="943.606" y2="510.768" gradientUnits="userSpaceOnUse">
<stop stop-color="#C6F3DE"/>
<stop offset="0.7992" stop-color="#F3FCF8"/>
<stop offset="1" stop-color="white"/>
</linearGradient>
<radialGradient id="paint47_radial_143_368" cx="0" cy="0" r="1" gradientUnits="userSpaceOnUse" gradientTransform="translate(1065.29 490.072) rotate(169.668) scale(22.7717 22.9863)">
<stop stop-color="#C6F3DE"/>
<stop offset="0.237" stop-color="#6CBA9F"/>
<stop offset="0.4082" stop-color="#319577"/>
<stop offset="0.4898" stop-color="#1A8767"/>
<stop offset="0.5281" stop-color="#2D9374"/>
<stop offset="0.6469" stop-color="#63B59A"/>
<stop offset="0.7575" stop-color="#8ED0B7"/>
<stop offset="0.8567" stop-color="#ADE3CC"/>
<stop offset="0.9409" stop-color="#BFEFD9"/>
<stop offset="1" stop-color="#C6F3DE"/>
</radialGradient>
<linearGradient id="paint48_linear_143_368" x1="960.082" y1="516.142" x2="1038.58" y2="488.952" gradientUnits="userSpaceOnUse">
<stop stop-color="#112349" stop-opacity="0"/>
<stop offset="0.154" stop-color="#33FFD2"/>
<stop offset="0.3557" stop-color="#29F2DB"/>
<stop offset="0.7287" stop-color="#10CFF1"/>
<stop offset="0.8106" stop-color="#0AC7F7"/>
<stop offset="0.8339" stop-color="#0BBBEA" stop-opacity="0.8774"/>
<stop offset="0.877" stop-color="#0C9AC7" stop-opacity="0.6497"/>
<stop offset="0.9353" stop-color="#0E658F" stop-opacity="0.3419"/>
<stop offset="1" stop-color="#112349" stop-opacity="0"/>
</linearGradient>
<linearGradient id="paint49_linear_143_368" x1="1015.69" y1="478.277" x2="1110.11" y2="445.572" gradientUnits="userSpaceOnUse">
<stop stop-color="#112349" stop-opacity="0"/>
<stop offset="0.154" stop-color="#33FFD2"/>
<stop offset="0.3557" stop-color="#29F2DB"/>
<stop offset="0.7287" stop-color="#10CFF1"/>
<stop offset="0.8106" stop-color="#0AC7F7"/>
<stop offset="0.8339" stop-color="#0BBBEA" stop-opacity="0.8774"/>
<stop offset="0.877" stop-color="#0C9AC7" stop-opacity="0.6497"/>
<stop offset="0.9353" stop-color="#0E658F" stop-opacity="0.3419"/>
<stop offset="1" stop-color="#112349" stop-opacity="0"/>
</linearGradient>
<linearGradient id="paint50_linear_143_368" x1="1162.45" y1="270.452" x2="1042.83" y2="270.452" gradientUnits="userSpaceOnUse">
<stop stop-color="#88FCF6"/>
<stop offset="0.9983" stop-color="#88FCF6" stop-opacity="0.6"/>
</linearGradient>
<linearGradient id="paint51_linear_143_368" x1="1162.44" y1="219.224" x2="1042.83" y2="219.224" gradientUnits="userSpaceOnUse">
<stop stop-color="#88FCF6"/>
<stop offset="0.9983" stop-color="#0083F9"/>
</linearGradient>
<linearGradient id="paint52_linear_143_368" x1="1218.92" y1="578.804" x2="1235.56" y2="578.804" gradientUnits="userSpaceOnUse">
<stop stop-color="#C6D6F8"/>
<stop offset="1" stop-color="#8CADF0"/>
</linearGradient>
<linearGradient id="paint53_linear_143_368" x1="1181.09" y1="566.497" x2="1214.56" y2="566.497" gradientUnits="userSpaceOnUse">
<stop stop-color="#174DB9"/>
<stop offset="1" stop-color="#153F92"/>
</linearGradient>
<linearGradient id="paint54_linear_143_368" x1="1181.02" y1="558.918" x2="1214.38" y2="558.918" gradientUnits="userSpaceOnUse">
<stop stop-color="#195BE1"/>
<stop offset="1" stop-color="#174DB9"/>
</linearGradient>
<linearGradient id="paint55_linear_143_368" x1="1193.87" y1="527.962" x2="1245.19" y2="527.962" gradientUnits="userSpaceOnUse">
<stop stop-color="#174DB9"/>
<stop offset="1" stop-color="#153F92"/>
</linearGradient>
<linearGradient id="paint56_linear_143_368" x1="1193.75" y1="516.328" x2="1244.92" y2="516.328" gradientUnits="userSpaceOnUse">
<stop stop-color="#195BE1"/>
<stop offset="1" stop-color="#174DB9"/>
</linearGradient>
<linearGradient id="paint57_linear_143_368" x1="1223.37" y1="566.576" x2="1247.71" y2="566.576" gradientUnits="userSpaceOnUse">
<stop stop-color="#174DB9"/>
<stop offset="1" stop-color="#153F92"/>
</linearGradient>
<linearGradient id="paint58_linear_143_368" x1="1223.51" y1="561.066" x2="1247.76" y2="561.066" gradientUnits="userSpaceOnUse">
<stop stop-color="#195BE1"/>
<stop offset="1" stop-color="#174DB9"/>
</linearGradient>
<linearGradient id="paint59_linear_143_368" x1="1128.43" y1="643.756" x2="1145.07" y2="643.756" gradientUnits="userSpaceOnUse">
<stop stop-color="#C6D6F8"/>
<stop offset="1" stop-color="#8CADF0"/>
</linearGradient>
<linearGradient id="paint60_linear_143_368" x1="1090.61" y1="631.44" x2="1124.07" y2="631.44" gradientUnits="userSpaceOnUse">
<stop stop-color="#174DB9"/>
<stop offset="1" stop-color="#153F92"/>
</linearGradient>
<linearGradient id="paint61_linear_143_368" x1="1103.38" y1="592.906" x2="1154.7" y2="592.906" gradientUnits="userSpaceOnUse">
<stop stop-color="#174DB9"/>
<stop offset="1" stop-color="#153F92"/>
</linearGradient>
<linearGradient id="paint62_linear_143_368" x1="1103.27" y1="581.281" x2="1154.44" y2="581.281" gradientUnits="userSpaceOnUse">
<stop stop-color="#195BE1"/>
<stop offset="1" stop-color="#174DB9"/>
</linearGradient>
<linearGradient id="paint63_linear_143_368" x1="1090.53" y1="623.862" x2="1123.89" y2="623.862" gradientUnits="userSpaceOnUse">
<stop stop-color="#195BE1"/>
<stop offset="1" stop-color="#174DB9"/>
</linearGradient>
<linearGradient id="paint64_linear_143_368" x1="1132.88" y1="631.528" x2="1157.22" y2="631.528" gradientUnits="userSpaceOnUse">
<stop stop-color="#174DB9"/>
<stop offset="1" stop-color="#153F92"/>
</linearGradient>
<linearGradient id="paint65_linear_143_368" x1="1133.02" y1="626.018" x2="1157.27" y2="626.018" gradientUnits="userSpaceOnUse">
<stop stop-color="#195BE1"/>
<stop offset="1" stop-color="#174DB9"/>
</linearGradient>
<linearGradient id="paint66_linear_143_368" x1="523.232" y1="644.204" x2="523.232" y2="733.454" gradientUnits="userSpaceOnUse">
<stop stop-color="#5270FF"/>
<stop offset="1" stop-color="#76C9FF"/>
</linearGradient>
</defs>
</svg>
