<svg width="843" height="635" viewBox="0 0 843 635" fill="none" xmlns="http://www.w3.org/2000/svg">
<path d="M411.938 634.411C213.857 634.411 53.2802 630.041 53.2802 624.651C53.2802 619.261 213.857 614.891 411.938 614.891C610.019 614.891 770.596 619.261 770.596 624.651C770.596 630.041 610.019 634.411 411.938 634.411Z" fill="#6FBEF6"/>
<path d="M696.652 101.067C679.66 27.6822 600.874 -20.732 539.129 9.17185C479.289 38.1482 454.203 120.989 456.05 194.53C456.198 200.53 456.395 206.941 453.645 212.088C449.065 220.666 438.714 221.93 429.865 222.094C375.442 223.071 320.814 217.736 266.703 224.532C212.592 231.329 157.471 251.867 119.638 296.284C81.8126 340.692 66.1917 412.755 93.5344 465.914C115.369 508.352 159.622 530.983 202.93 534.694C246.247 538.404 289.301 525.943 331.148 512.563C360.125 503.296 389.561 493.446 419.629 494.307C480.939 496.072 533.408 541.055 588.972 570.27C644.536 599.484 720.843 608.12 758.331 553.048C783.991 515.346 778.344 455.251 746.257 424.699C706.199 386.562 600.045 381.078 627.552 294.65C650.725 221.889 717.896 192.798 696.652 101.067Z" fill="#091E53"/>
<path d="M568.567 559.481V417.3H599.587V559.481C599.587 591.453 625.51 617.376 657.482 617.376C657.482 622.244 653.534 626.184 648.675 626.184H599.595H568.575H511.484C506.617 626.184 502.677 622.235 502.677 617.376H510.688C542.652 617.376 568.567 591.453 568.567 559.481Z" fill="#1B207B"/>
<path d="M527.502 397.385H657.476C668.213 397.385 677.292 389.44 678.72 378.801L708.066 159.878C709.79 147.024 699.792 135.597 686.822 135.597H556.716C545.979 135.597 536.901 143.551 535.48 154.198L506.258 373.121C504.542 385.967 514.54 397.385 527.502 397.385Z" fill="#244393"/>
<path d="M527.5 397.385H633.604C644.332 397.385 653.411 389.44 654.839 378.801L684.185 159.878C685.909 147.024 675.911 135.597 662.95 135.597H556.714C545.977 135.597 536.898 143.551 535.478 154.198L506.256 373.121C504.54 385.967 514.538 397.385 527.5 397.385Z" fill="#007CE0"/>
<path d="M435.177 387.182V401.957C435.177 402.302 435.185 402.639 435.21 402.975C435.735 411.537 442.844 418.317 451.537 418.317H641.131C649.823 418.317 656.932 411.537 657.457 402.975C657.482 402.639 657.49 402.302 657.49 401.957V387.182C657.49 378.153 650.168 370.822 641.131 370.822H451.537C442.499 370.822 435.177 378.153 435.177 387.182Z" fill="#007CE0"/>
<path d="M435.21 402.976C435.735 411.538 442.844 418.318 451.536 418.318H641.13C649.823 418.318 656.932 411.538 657.457 402.976H435.21Z" fill="#244393"/>
<path d="M459.417 231.637L461.666 232.343L511.952 248.054V323.573H642.821L643.002 311.31L643.158 300.606C643.15 300.598 643.15 300.589 643.158 300.581L643.437 281.036L643.593 270.562L643.88 250.755L644.578 250.254L645.949 249.269L663.08 236.981L664.861 235.7L692.426 215.926L680.835 201.873L679.259 199.96L661.75 178.733L660.511 177.231L658.319 174.571C652.237 167.192 644.307 161.741 635.475 158.655C634.884 158.449 634.284 158.252 633.685 158.072C628.809 156.561 623.679 155.773 618.458 155.773H538.663C533.516 155.773 528.459 156.488 523.633 157.85C523.042 158.006 522.451 158.187 521.868 158.376C512.42 161.355 503.883 166.839 497.201 174.292C496.832 174.702 496.47 175.121 496.117 175.548C494.591 177.346 493.179 179.258 491.882 181.269L474.677 207.972L473.634 209.573L459.811 231.03L459.417 231.637Z" fill="#38D070"/>
<path d="M587.057 113.519L589.33 113.117C593.082 112.452 596.587 115.177 596.874 118.97L596.989 120.48C597.367 125.438 593.952 129.879 589.068 130.807L589.749 157.591L589.536 164.265C589.273 172.514 582.616 179.122 574.366 179.336C565.772 179.557 558.622 172.761 558.401 164.158L558.253 158.387L559.55 147.659C559.55 147.659 530.229 153.717 551.013 98.7849C551.021 98.7849 582.402 79.5439 587.057 113.519Z" fill="#C7D0FF"/>
<path d="M584.378 112.838C584.378 112.838 536.875 110.212 544.066 78.9287C544.985 74.9311 547.439 71.385 551.067 69.4642C555.878 66.9113 563.348 66.6158 571.819 79.3555C571.819 79.3555 577.458 72.2058 580.233 86.6037C580.233 86.6037 613.116 88.7462 589.402 143.76L584.378 112.838Z" fill="#00053C"/>
<path d="M545.621 98.3174C545.621 98.3174 540.343 102.151 545.449 112.986L549.225 101.593C549.233 101.593 546.622 99.5815 545.621 98.3174Z" fill="#00053C"/>
<path d="M588.524 108.388C588.221 104.916 587.728 102.043 587.301 99.9578C585.52 91.2403 583.427 89.0158 582.302 88.0307C581.284 87.1442 580.291 86.6025 579.618 86.2905L583.419 87.2263C583.419 87.2263 588.894 86.4219 591.299 109.307L588.524 108.388Z" fill="#5B72D8"/>
<path d="M588.039 133.626C583.792 133.543 580.459 127.825 580.594 120.854C580.729 113.883 584.282 108.299 588.529 108.381C592.776 108.463 596.109 114.181 595.974 121.153C595.839 128.124 592.286 133.708 588.039 133.626Z" fill="#244393"/>
<path d="M591.647 131.471C593.453 131.512 595.128 130.732 596.466 129.402C598.313 127.572 599.528 124.691 599.593 121.44C599.7 115.817 596.318 111.187 592.05 111.105C590.613 111.081 589.25 111.573 588.077 112.452C585.77 114.175 584.178 117.41 584.104 121.136C583.989 126.759 587.371 131.389 591.647 131.471Z" fill="#7DC6E8"/>
<path d="M592.509 130.723C593.938 130.756 595.292 130.263 596.466 129.393C598.313 127.563 599.528 124.682 599.593 121.431C599.7 115.808 596.318 111.178 592.05 111.096C590.613 111.072 589.25 111.564 588.077 112.443C586.246 114.265 585.031 117.146 584.966 120.397C584.851 126.02 588.233 130.649 592.509 130.723Z" fill="#74D7FF"/>
<path d="M592.535 128.75C589.389 128.689 586.905 125.284 586.985 121.146C587.065 117.008 589.68 113.703 592.826 113.764C595.971 113.825 598.456 117.229 598.376 121.367C598.296 125.505 595.681 128.811 592.535 128.75Z" fill="#5B72D8"/>
<path d="M593.433 126.658C591.153 126.613 589.352 124.149 589.41 121.153C589.468 118.157 591.364 115.764 593.643 115.808C595.923 115.852 597.724 118.317 597.666 121.313C597.608 124.309 595.713 126.702 593.433 126.658Z" fill="#74D7FF"/>
<path d="M596.727 120.446C596.915 120.437 597.08 120.306 597.129 120.117C597.178 119.888 597.039 119.666 596.809 119.608L591.867 118.459C591.637 118.402 591.416 118.549 591.358 118.779C591.309 119.009 591.448 119.231 591.678 119.288L596.62 120.437C596.661 120.437 596.694 120.446 596.727 120.446Z" fill="#5B72D8"/>
<path d="M596.436 122.32C596.624 122.311 596.789 122.18 596.838 121.991C596.887 121.762 596.747 121.54 596.518 121.482L591.576 120.333C591.346 120.276 591.125 120.424 591.067 120.653C591.018 120.883 591.157 121.105 591.387 121.162L596.329 122.312C596.362 122.32 596.395 122.328 596.436 122.32Z" fill="#5B72D8"/>
<path d="M596.059 124.198C596.247 124.19 596.412 124.059 596.461 123.87C596.51 123.64 596.371 123.418 596.141 123.361L591.199 122.212C590.969 122.154 590.748 122.302 590.69 122.532C590.641 122.762 590.781 122.983 591.01 123.041L595.952 124.19C595.993 124.198 596.026 124.206 596.059 124.198Z" fill="#5B72D8"/>
<path d="M562.566 130.419L550.926 131.773C550.417 131.831 550.162 132.405 550.45 132.824C552.149 135.237 557.304 140.885 563.206 131.453C563.51 130.969 563.124 130.353 562.566 130.419Z" fill="white"/>
<path d="M559.549 147.664C559.549 147.664 567.282 146.901 569.58 144.758C569.58 144.758 568.923 152.228 558.778 154.018L559.549 147.664Z" fill="#7990FF"/>
<path d="M511.955 218.856L510.609 221.664C506.381 230.488 498.124 236.71 488.47 238.335L483.512 239.173L511.955 248.063V218.856Z" fill="#2FBA63"/>
<path d="M626.177 228.28L627.482 253.448C629.001 282.769 608.134 308.511 579.125 313.075L512.521 323.566H642.824L643.883 250.747L626.177 228.28Z" fill="#2FBA63"/>
<path d="M643.589 270.595C640.478 284.041 640.454 297.897 643.007 311.31L643.163 300.606C643.154 300.598 643.154 300.59 643.163 300.581C642.604 294.08 642.678 287.538 643.442 281.037L643.598 270.562C643.598 270.571 643.589 270.587 643.589 270.595Z" fill="#007CE0"/>
<path d="M558.59 258.143V299.301L561.586 299.202L622.297 297.208L678.476 295.361C708.897 294.359 725.503 259.432 707.083 235.208L692.431 215.926L643.885 250.755L559.69 258.045L558.59 258.143Z" fill="#C7D0FF"/>
<path d="M692.425 215.926L694.346 218.455L672.453 236.136C668.374 239.436 669.178 245.871 673.956 248.055L643.879 250.755L692.425 215.926Z" fill="#2FBA63"/>
<path d="M319.048 579.001L318.868 581.415L417.732 588.515L419.144 578.763L422.698 554.244L423.609 547.997L378.093 544.722C377.058 548.416 375.491 551.396 373.504 553.793V553.801C364.36 564.882 346.572 563.627 333.438 564.628C325.73 565.203 319.598 571.293 319.048 579.001Z" fill="#244393"/>
<path d="M318.874 581.412L318.669 584.219C318.554 585.828 319.761 587.231 321.369 587.346L414.414 594.028C416.023 594.143 417.418 592.928 417.533 591.319L417.738 588.512L318.874 581.412Z" fill="#091E53"/>
<path d="M367.854 558.533L374.711 567.539L373.215 568.678L366.358 559.672L367.854 558.533Z" fill="white"/>
<path d="M362.883 560.749L368.855 569.422L367.307 570.488L361.335 561.815L362.883 560.749Z" fill="white"/>
<path d="M406.694 587.266C406.685 587.422 406.669 587.57 406.669 587.725C406.62 589.917 407.309 591.961 408.524 593.619L414.418 594.046C416.027 594.161 417.422 592.946 417.537 591.337L417.742 588.53L419.154 578.778C418.465 578.565 417.742 578.425 416.987 578.368C411.676 577.974 407.071 581.963 406.694 587.266Z" fill="#091E53"/>
<path d="M378.088 544.73L379.697 534.929L425.436 539.148L423.613 548.005L378.088 544.73Z" fill="#F7B4AE"/>
<path d="M454.061 617.228L454.841 619.543L549.576 587.529L547.073 577.909L540.801 553.71L539.209 547.545L495.588 562.28C496.073 566.121 495.777 569.503 494.866 572.508V572.516C490.688 586.397 473.655 592.175 461.826 598.233C454.89 601.78 451.566 609.832 454.061 617.228Z" fill="#244393"/>
<path d="M454.841 619.534L455.753 622.227C456.278 623.77 457.944 624.599 459.488 624.082L548.641 593.948C550.184 593.423 551.005 591.757 550.488 590.213L549.577 587.521L454.841 619.534Z" fill="#091E53"/>
<path d="M491.489 579.11L501.391 584.811L500.445 586.454L490.543 580.754L491.489 579.11Z" fill="white"/>
<path d="M487.663 583.088L496.611 588.826L495.588 590.423L486.639 584.684L487.663 583.088Z" fill="white"/>
<path d="M538.815 590.673C538.865 590.821 538.914 590.969 538.971 591.108C539.784 593.168 541.22 594.802 542.993 595.861L548.641 593.957C550.184 593.431 551.005 591.765 550.488 590.222L549.577 587.529L547.081 577.909C546.359 577.983 545.628 578.13 544.906 578.377C539.825 580.084 537.1 585.592 538.815 590.673Z" fill="#1B207B"/>
<path d="M495.599 562.28L493.259 552.536L537.446 538.59L539.211 547.545L495.599 562.28Z" fill="#F7B4AE"/>
<path d="M372.113 538.877L429.401 544.155L442.879 444.946L490.456 559.636L545.101 544.155L500.167 411.176L594.18 395.514C617.443 391.639 635.535 373.186 638.966 349.858L641.971 329.394L642.824 323.574H512.521L433.628 339.564C412.27 343.89 396 361.276 393.103 382.873L372.113 538.877Z" fill="#244393"/>
<path d="M491.507 398.855L577.451 380.705C595.625 376.864 611.476 365.848 621.408 350.145C625.406 343.833 621.301 335.525 613.856 334.861L504.78 325.142L512.521 323.574H642.824L641.971 329.394L638.966 349.858C635.535 373.186 617.443 391.639 594.18 395.514L500.167 411.176L545.101 544.155L490.456 559.636L507.514 549.811C521.986 541.471 528.372 523.945 522.667 508.25L486.303 408.237C484.825 404.174 487.288 399.749 491.507 398.855Z" fill="#1B207B"/>
<path d="M429.218 408.229L424.367 474.242C422.134 504.581 401.309 530.339 372.111 538.876L429.398 544.154L442.877 444.946L429.218 408.229Z" fill="#1B207B"/>
<path d="M431.713 416.677L432.932 416.854L432.223 421.728L431.005 421.551L431.713 416.677Z" fill="#74D7FF"/>
<path d="M418.645 515.195L419.999 505.846L418.785 505.673L417.43 515.023L418.645 515.195ZM421.362 496.504L422.716 487.155L421.502 486.982L420.147 496.332L421.362 496.504ZM424.071 477.805L425.425 468.455L424.21 468.283L422.856 477.633L424.071 477.805ZM426.788 459.114L428.142 449.764L426.927 449.592L425.573 458.942L426.788 459.114ZM429.505 440.423L430.859 431.073L429.644 430.901L428.29 440.251L429.505 440.423Z" fill="#74D7FF"/>
<path d="M416.051 524.354L417.27 524.531L416.561 529.405L415.342 529.228L416.051 524.354Z" fill="#74D7FF"/>
<path d="M442.304 445.159L443.453 444.724L430.582 410.371C427.151 401.21 427.808 390.99 432.38 382.347C436.952 373.695 445.029 367.407 454.543 365.092L542.703 343.627L542.416 342.428L454.256 363.894C444.405 366.291 436.041 372.808 431.296 381.764C426.552 390.719 425.879 401.308 429.433 410.798L442.304 445.159Z" fill="#102655"/>
<path d="M466.857 294.179C472.373 297.413 478.858 299.301 486.008 299.301H511.955V248.055L459.42 231.638L453.255 242.169C442.043 261.304 449.75 284.173 466.857 294.179Z" fill="#C7D0FF"/>
<path d="M683.226 247.432L683.311 248.66L643.91 251.357L643.826 250.129L683.226 247.432Z" fill="#7990FF"/>
<path d="M478.891 288.843L466.857 294.179C472.373 297.413 478.858 299.301 486.008 299.301H511.955V248.055L459.42 231.638L484.029 248.276C492.164 253.776 495.71 263.963 492.763 273.321C490.58 280.249 485.532 285.896 478.891 288.843Z" fill="#2FBA63"/>
<path d="M630.626 351.573H638.777V350.342H630.749C624.864 349.045 625.89 330.658 626.785 323.656L625.562 323.5C625.217 326.201 622.426 349.94 630.561 351.565L630.626 351.573Z" fill="#74D7FF"/>
<path d="M627.854 355.054C628.987 353.855 630.095 352.608 631.154 351.352L630.21 350.564C629.168 351.803 628.076 353.035 626.96 354.217L627.854 355.054Z" fill="#74D7FF"/>
<path d="M518.682 521.458L519.839 521.04L516.425 511.551L515.267 511.969L518.682 521.458ZM511.844 502.48L513.002 502.061L509.587 492.572L508.429 492.991L511.844 502.48ZM505.006 483.51L506.164 483.091L502.749 473.602L501.592 474.021L505.006 483.51ZM498.169 464.532L499.326 464.113L495.911 454.624L494.754 455.043L498.169 464.532ZM491.331 445.562L492.488 445.143L489.074 435.654L487.916 436.073L491.331 445.562ZM484.493 426.583L485.651 426.165L482.236 416.676L481.078 417.094L484.493 426.583ZM481.013 407.17C481.661 403.993 483.393 401.096 485.872 399.019L485.084 398.075C482.384 400.332 480.512 403.476 479.806 406.924L481.013 407.17ZM494.836 395.506L504.76 393.725L504.539 392.51L494.614 394.291L494.836 395.506ZM514.684 391.935L524.608 390.154L524.387 388.939L514.463 390.72L514.684 391.935ZM534.533 388.364L544.457 386.583L544.235 385.368L534.311 387.149L534.533 388.364ZM554.381 384.794L564.305 383.012L564.084 381.797L554.159 383.579L554.381 384.794ZM574.229 381.231L582.036 379.827C582.75 379.696 583.456 379.565 584.162 379.417L583.916 378.21C583.218 378.358 582.52 378.489 581.814 378.613L574.008 380.016L574.229 381.231ZM593.963 376.749C597.164 375.666 600.324 374.377 603.362 372.916L602.828 371.808C599.832 373.244 596.713 374.516 593.561 375.575L593.963 376.749ZM612.235 367.982C615.075 366.16 617.833 364.149 620.436 361.998L619.648 361.046C617.086 363.164 614.369 365.15 611.57 366.94L612.235 367.982Z" fill="#74D7FF"/>
<path d="M523.274 530.551L524.941 535.186L523.783 535.602L522.115 530.968L523.274 530.551Z" fill="#74D7FF"/>
<path d="M540.474 530.44L540.812 531.624L485.326 547.507L484.987 546.323L540.474 530.44Z" fill="#74D7FF"/>
<path d="M374.091 524.042L431.25 530.374L431.114 531.598L373.956 525.266L374.091 524.042Z" fill="#74D7FF"/>
<path d="M497.044 397.655L500.748 411.024L499.561 411.352L495.857 397.984L497.044 397.655Z" fill="#102655"/>
<path d="M492.583 268.01L496.909 258.882C510.19 271.712 527.617 271.712 540.899 258.882L545.225 268.01L540.004 273.05C529.218 283.466 522.758 300.852 522.758 319.445V320.881H515.033V319.445C515.033 300.852 508.573 283.475 497.787 273.05L492.583 268.01Z" fill="#244393"/>
<path d="M486.078 279.42V279.412C486.11 278.993 486.152 278.583 486.201 278.164C486.406 276.243 486.718 274.355 487.128 272.516C487.416 271.236 487.736 269.98 488.113 268.757C488.491 267.485 488.918 266.237 489.378 265.03C489.533 264.661 489.673 264.291 489.829 263.922C491.183 260.655 492.874 257.651 494.82 254.966C495.033 254.671 495.263 254.359 495.493 254.063C501.477 246.257 509.768 241.414 518.912 241.414C527.597 241.414 535.51 245.773 541.412 252.906C541.617 253.152 541.822 253.407 542.019 253.661C542.044 253.702 542.077 253.735 542.109 253.784C544.235 256.493 546.091 259.588 547.576 262.962C547.741 263.331 547.897 263.7 548.052 264.07C549.152 266.738 550.047 269.561 550.696 272.516C551.098 274.306 551.393 276.153 551.599 278.033C551.648 278.451 551.689 278.878 551.722 279.297C551.869 280.914 551.943 282.556 551.943 284.214C551.943 287.53 551.648 290.756 551.098 293.867C551.024 294.286 550.942 294.712 550.86 295.131C550.753 295.64 550.646 296.157 550.523 296.65C550.326 297.487 550.121 298.316 549.883 299.12C549.883 299.129 549.875 299.129 549.875 299.137C549.218 301.394 548.43 303.57 547.503 305.638C541.789 318.411 531.118 327.013 518.912 327.013C506.714 327.013 496.043 318.411 490.321 305.638C489.41 303.594 488.614 301.435 487.974 299.194C487.728 298.365 487.514 297.52 487.309 296.65C487.219 296.272 487.128 295.886 487.046 295.492C486.948 295.049 486.866 294.589 486.784 294.13C486.184 290.945 485.881 287.628 485.881 284.214C485.872 282.588 485.938 280.996 486.078 279.42ZM493.605 285.396C493.72 289.36 494.368 293.161 495.476 296.65C495.756 297.52 496.051 298.373 496.379 299.194C496.97 300.664 497.635 302.076 498.391 303.405C498.678 303.922 498.973 304.431 499.293 304.924C499.449 305.17 499.589 305.4 499.745 305.638C504.399 312.599 511.262 317.007 518.904 317.007C526.554 317.007 533.408 312.599 538.063 305.638C538.44 305.072 538.801 304.489 539.146 303.881C539.146 303.881 539.146 303.873 539.163 303.873C539.614 303.077 540.041 302.273 540.443 301.427C541.174 299.908 541.798 298.316 542.323 296.65C542.487 296.133 542.643 295.624 542.791 295.082V295.074C543.333 293.054 543.743 290.936 543.973 288.745V288.737C544.047 288.047 544.096 287.358 544.145 286.66V286.643C544.186 285.839 544.211 285.035 544.211 284.214C544.211 283.803 544.203 283.401 544.194 282.991C544.178 282.465 544.153 281.94 544.129 281.423C544.047 280.15 543.899 278.911 543.702 277.68C543.62 277.105 543.521 276.547 543.406 275.989V275.98C543.168 274.798 542.881 273.649 542.545 272.516C542.306 271.728 542.06 270.94 541.781 270.185C541.765 270.136 541.74 270.078 541.724 270.029C541.576 269.643 541.428 269.266 541.272 268.896C541.207 268.74 541.141 268.584 541.075 268.429C541.075 268.429 541.075 268.42 541.067 268.42C540.854 267.887 540.607 267.378 540.361 266.861C539.466 265.006 538.432 263.282 537.275 261.698L537.266 261.689C536.429 260.532 535.518 259.465 534.558 258.48C534.246 258.16 533.934 257.856 533.614 257.56C532.94 256.928 532.243 256.337 531.52 255.804C531.52 255.804 531.512 255.804 531.512 255.796C530.65 255.163 529.764 254.581 528.853 254.063C527.982 253.587 527.104 253.169 526.193 252.816H526.185C523.87 251.905 521.424 251.42 518.887 251.42C514.914 251.42 511.163 252.611 507.822 254.728C506.895 255.319 505.992 255.968 505.13 256.707C505.113 256.707 505.113 256.723 505.113 256.723C503.431 258.127 501.887 259.801 500.517 261.689L500.508 261.698C498.686 264.185 497.159 267.058 496.01 270.185V270.193C495.994 270.243 495.985 270.284 495.961 270.333C495.87 270.596 495.78 270.858 495.682 271.121C495.641 271.236 495.608 271.351 495.559 271.466C495.46 271.819 495.345 272.172 495.247 272.516C494.204 275.997 493.63 279.765 493.589 283.688V283.697C493.58 283.877 493.58 284.041 493.58 284.214C493.597 284.616 493.597 285.002 493.605 285.396Z" fill="#1B207B"/>
<path d="M527.586 270.791L530.459 271.325L529.31 274.772C528.998 275.716 529.047 276.693 529.392 277.547C529.86 278.729 530.87 279.673 532.208 279.993L534.079 280.436L533.25 284.032C532.807 285.961 533.858 287.922 535.713 288.604L538.635 289.687L538.356 290.746C537.904 292.429 538.627 294.194 540.096 295.08C540.145 295.121 540.195 295.146 540.252 295.179L543.191 296.788L543.691 297.124C545.366 298.241 547.279 298.922 549.265 299.135C549.692 299.176 550.127 299.201 550.562 299.201H561.586L622.297 297.206L559.69 258.043L557.884 256.919C552.22 253.381 545.407 252.199 539.086 253.66C536.837 254.169 534.662 255.022 532.61 256.213C531.904 256.623 531.214 257.075 530.566 257.567H530.558C530.172 257.854 529.803 258.158 529.45 258.478C527.537 260.177 526.018 262.32 525.247 265.004C525.066 265.595 524.935 266.211 524.836 266.859C524.557 268.682 525.772 270.446 527.586 270.791Z" fill="#C7D0FF"/>
<path d="M531.022 271.991C531.071 271.95 536.095 267.796 541.988 267.788V266.04C535.446 266.056 530.127 270.464 529.897 270.653L531.022 271.991Z" fill="#7990FF"/>
<path d="M534.628 281.11C534.678 281.069 539.841 276.842 543.387 277.671L543.789 275.964C539.397 274.938 533.75 279.567 533.512 279.764L534.628 281.11Z" fill="#7990FF"/>
<path d="M539.181 290.361C540.462 289.326 544.32 286.773 546.7 287.438L547.168 285.747C543.417 284.697 538.286 288.817 538.073 288.99L539.181 290.361Z" fill="#7990FF"/>
<path d="M488.872 255.886C499.764 257.585 507.292 260.77 507.201 263.536C507.119 266.163 500.15 268.667 491.022 269.947C500.298 269.98 507.119 271.457 507.374 273.567C507.62 275.66 501.431 278.656 492.697 280.856C500.117 280.241 505.609 282.129 505.962 284.296C506.323 286.471 501.71 290.058 494.38 291.856C499.986 291.183 504.016 293.875 504.197 296.075C504.378 298.201 501.102 301.32 495.923 301.928L493.838 302.207C489.561 302.79 485.35 300.762 483.134 297.06C479.259 290.575 474.589 279.198 477.355 264.71C478.242 260.039 482.157 256.542 486.893 256.083L488.872 255.886Z" fill="#C7D0FF"/>
<path d="M478.298 288.991L479.488 288.688C476.829 278.156 477.395 269.874 481.171 264.062C485.103 258.012 491.243 256.888 491.309 256.879L491.103 255.665C490.832 255.714 484.389 256.871 480.153 263.364C476.172 269.48 475.548 278.099 478.298 288.991Z" fill="#7990FF"/>
<path d="M490.11 270.957C491.768 270.957 492.844 270.349 493.501 269.98C493.648 269.898 493.829 269.791 493.895 269.775L493.837 268.552C493.525 268.552 493.246 268.708 492.893 268.905C491.875 269.479 489.979 270.546 486.146 268.617L485.587 269.717C487.443 270.645 488.928 270.957 490.11 270.957Z" fill="#7990FF"/>
<path d="M490.11 282.318C491.768 282.318 492.844 281.71 493.501 281.341C493.648 281.259 493.829 281.152 493.895 281.136L493.837 279.913C493.525 279.913 493.246 280.069 492.893 280.266C491.875 280.84 489.987 281.907 486.146 279.978L485.587 281.078C487.443 282.006 488.928 282.318 490.11 282.318Z" fill="#7990FF"/>
<path d="M492.837 292.931C494.495 292.931 495.57 292.323 496.227 291.954C496.375 291.872 496.555 291.765 496.621 291.748L496.564 290.525C496.252 290.525 495.973 290.681 495.62 290.878C494.602 291.453 492.706 292.52 488.872 290.591L488.314 291.691C490.169 292.619 491.655 292.931 492.837 292.931Z" fill="#7990FF"/>
<path d="M98.0372 521.741C98.0372 579.423 135.879 626.179 182.553 626.179C189.415 626.179 196.089 625.169 202.475 623.257C209.502 621.163 216.192 617.979 222.405 613.858C233.643 606.421 243.354 595.947 250.824 583.305V583.297C260.575 566.814 266.51 546.687 267.027 524.86H126.267C116.375 524.86 106.845 522.964 98.0618 519.484C98.0454 520.231 98.0372 520.986 98.0372 521.741Z" fill="#244393"/>
<path d="M182.556 524.86H222.408V626.178H182.556V524.86Z" fill="#244393"/>
<path d="M137.934 524.86C138.845 563.415 156.666 596.726 182.556 613.857C188.769 617.978 195.451 621.155 202.478 623.256C208.864 625.169 215.546 626.178 222.408 626.178C268.237 626.178 305.553 581.097 306.883 524.86H137.934Z" fill="#007CE0"/>
<path d="M173.494 524.86C173.954 537.501 177.221 549.239 182.557 559.139C191.356 575.498 205.779 586.851 222.409 588.993C224.297 589.24 226.218 589.363 228.155 589.363C236.241 589.363 243.916 587.196 250.828 583.305V583.297C269.018 573.06 281.872 550.881 282.816 524.86H173.494Z" fill="#091E53"/>
<g opacity="0.3">
<path d="M668.262 125.207L643.415 249.428L317.229 241.842L369.604 119.055C377.932 99.5424 397.098 86.8743 418.313 86.8743H636.841C657.061 86.8743 672.232 105.375 668.262 125.207Z" fill="#74D7FF"/>
</g>
<g opacity="0.5">
<path d="M280.066 244.63L345.978 107.042C358.68 80.5261 385.474 63.6521 414.873 63.6521H781.811L707.58 70.6984L662.066 269.014L517.398 305.434H0.482361L280.066 244.63ZM638.769 250.05L663.608 125.83C667.578 105.997 652.407 87.4965 632.187 87.4965H413.668C392.453 87.4965 373.286 100.156 364.959 119.677L312.584 242.464L638.769 250.05Z" fill="#007CE0"/>
</g>
<path d="M23.0266 396.634H525.31C535.53 396.634 543.82 388.343 543.82 378.123V317.634C543.82 307.414 535.53 299.124 525.31 299.124H23.0266C12.8068 299.124 4.51617 307.414 4.51617 317.634V378.123C4.51617 388.343 12.8068 396.634 23.0266 396.634Z" fill="#007CE0"/>
<g opacity="0.5">
<path d="M666.781 263.654H772.844L668.898 254.411" fill="#007CE0"/>
</g>
<path d="M418.578 375.259H493.859C499.276 375.259 503.709 370.826 503.709 365.408V335.242C503.709 329.824 499.276 325.391 493.859 325.391H418.578C413.16 325.391 408.727 329.824 408.727 335.242V365.408C408.727 370.826 413.16 375.259 418.578 375.259Z" fill="white"/>
<path d="M42.8687 375.259H118.15C123.567 375.259 128 370.826 128 365.408V335.242C128 329.824 123.567 325.391 118.15 325.391H42.8687C37.4511 325.391 33.0184 329.824 33.0184 335.242V365.408C33.0184 370.826 37.4511 375.259 42.8687 375.259Z" fill="white"/>
<path d="M158.608 329.085H377.072C379.116 329.085 380.766 327.435 380.766 325.391C380.766 323.347 379.116 321.697 377.072 321.697H158.608C156.564 321.697 154.915 323.347 154.915 325.391C154.915 327.435 156.564 329.085 158.608 329.085Z" fill="#244393"/>
<path d="M158.608 351.576H377.072C379.116 351.576 380.766 349.927 380.766 347.883C380.766 345.839 379.116 344.189 377.072 344.189H158.608C156.564 344.189 154.915 345.839 154.915 347.883C154.915 349.927 156.564 351.576 158.608 351.576Z" fill="#244393"/>
<path d="M158.608 374.06H377.072C379.116 374.06 380.766 372.41 380.766 370.366C380.766 368.323 379.116 366.673 377.072 366.673H158.608C156.564 366.673 154.915 368.323 154.915 370.366C154.915 372.41 156.564 374.06 158.608 374.06Z" fill="#244393"/>
<g opacity="0.5">
<path d="M23.0222 396.633L27.5533 420.323C30.7218 436.897 45.21 448.873 62.0786 448.873H500.048C502.486 448.873 504.924 448.618 507.304 448.118L802.92 385.716L687.351 396.633L535.377 426.71L525.314 396.633H23.0222Z" fill="#74D7FF"/>
</g>
<g opacity="0.5">
<path d="M47.7938 448.873L51.5616 465.34C57.3405 490.524 75.1366 510.405 98.0632 519.483C106.846 522.964 116.377 524.86 126.268 524.86H842.5L719.814 513.778L578.717 433.039L500.054 448.873H47.7938Z" fill="#007CE0"/>
</g>
<path d="M192.207 501.112H307.062C312.479 501.112 316.912 496.68 316.912 491.262V458.723C316.912 453.305 312.479 448.873 307.062 448.873H192.199C186.781 448.873 182.349 453.305 182.349 458.723V491.262C182.357 496.68 186.79 501.112 192.207 501.112Z" fill="white"/>
<path d="M663.805 626.177C617.128 626.177 579.289 579.419 579.289 521.739C579.289 464.06 617.128 417.302 663.805 417.302C710.481 417.302 748.32 464.06 748.32 521.739C748.32 579.419 710.481 626.177 663.805 626.177Z" fill="#244393"/>
<path d="M663.813 417.294H703.666V626.178H663.813V417.294Z" fill="#244393"/>
<path d="M703.67 626.178C656.993 626.178 619.154 579.42 619.154 521.74C619.154 464.061 656.993 417.302 703.67 417.302C750.347 417.302 788.186 464.061 788.186 521.74C788.186 579.42 750.347 626.178 703.67 626.178Z" fill="#007CE0"/>
<path d="M709.412 589.371C679.187 589.371 654.685 559.091 654.685 521.74C654.685 484.389 679.187 454.11 709.412 454.11C739.637 454.11 764.139 484.389 764.139 521.74C764.139 559.091 739.637 589.371 709.412 589.371Z" fill="#091E53"/>
<path d="M828.23 183.136V73.543C828.23 61.5175 816.935 52.9149 803.457 54.3267L697.648 65.3837C687.634 66.4344 679.68 75.3736 679.68 85.3388V176.191C679.68 186.157 687.626 194.841 697.648 195.564L803.457 203.165C816.944 204.133 828.23 195.161 828.23 183.136ZM803.457 55.7468C816.024 54.4581 826.531 62.4861 826.531 73.6826V183.062C826.531 194.259 816.024 202.631 803.457 201.753L697.648 194.332C688.29 193.676 680.854 185.574 680.854 176.257V85.2485C680.854 75.9317 688.29 67.5836 697.648 66.6232L803.457 55.7468Z" fill="#74D7FF"/>
<path d="M794.646 104.236V209.593C794.646 220.789 784.566 228.801 772.467 227.537L673.833 217.227C664.746 216.275 657.547 207.943 657.547 198.585V110.523C657.547 101.166 664.746 93.0801 673.833 92.4399L772.467 85.52C784.566 84.6745 794.646 93.0391 794.646 104.236Z" fill="#244393"/>
<path d="M794.646 156.91V209.584C794.646 220.781 784.566 228.792 772.467 227.528L673.833 217.218C664.746 216.266 657.547 207.934 657.547 198.577V154.546L794.646 156.91Z" fill="#007CE0"/>
<path d="M794.646 116.836V180.822C781.628 189.318 768.042 196.599 754.293 202.649C736.489 210.496 718.463 216.283 700.987 220.067L676.492 217.506C676.443 217.317 676.402 217.12 676.369 216.932C676.197 216.004 676.106 215.093 676.098 214.19L690.11 195.483C695.002 193.028 700.231 191.107 704.631 187.422C701.66 184.623 704.007 179.271 706.708 176.365C711.978 170.717 718.241 166.079 725.161 162.755C726.753 161.983 728.387 161.294 730.045 160.67C728.608 148.037 741.159 136.069 752.586 139.582C752.733 133.278 757.544 127.392 763.413 126.424C769.364 125.439 775.709 129.617 777.507 135.806C778.032 131.111 779.305 126.489 781.234 122.172C782.941 118.363 788.334 118.503 789.606 122.443C789.615 122.467 789.623 122.5 789.631 122.517C790.756 120.152 792.52 118.24 794.646 116.836Z" fill="#6FBEF6"/>
<path d="M794.646 165.652V209.592C794.646 220.789 784.566 228.8 772.467 227.536L698.442 219.795C699.131 218.679 700.01 217.669 700.921 216.873C708.333 210.421 717.486 205.586 727.673 202.853C726.573 194.431 732.516 186.756 740.478 183.727C744.582 182.159 749.237 181.814 753.751 183.251C753.932 176.947 759.53 171.348 766.36 170.725C773.321 170.101 780.749 174.689 782.851 181.026C783.466 176.339 784.952 171.759 787.226 167.531C788.63 164.929 792.135 164.363 794.646 165.652Z" fill="#74D7FF"/>
<path d="M657.549 121.053V174.532C666.906 182.79 677.29 190.522 688.487 197.664C704.132 207.662 721.485 216.568 739.946 224.128L769.054 227.174C769.111 226.968 769.169 226.763 769.21 226.55C769.432 225.548 769.546 224.53 769.555 223.521L752.366 199.979C746.686 196.564 740.784 193.756 735.949 189.299C739.199 186.738 736.63 180.869 733.708 177.577C728.134 171.314 721.699 166.184 714.844 162.473C713.301 161.636 711.733 160.881 710.149 160.192C711.52 147.903 699.897 136.403 689.923 139.81C689.8 134.006 685.77 128.753 680.976 128.071C676.248 127.406 671.347 131.264 669.993 136.69C669.599 132.627 668.647 128.654 667.202 124.993C665.938 121.792 662.022 122.161 661.111 125.551C661.103 125.576 661.103 125.601 661.095 125.617C660.282 123.663 659.034 122.128 657.549 121.053Z" fill="#6FBEF6"/>
<path d="M657.551 161.86V198.585C657.551 207.943 664.758 216.274 673.837 217.226L742.789 224.434C742.017 223.096 741.032 221.831 740.023 220.789C731.978 212.556 722.465 206.005 712.417 201.655C713.476 193.545 707.82 185.344 700.515 181.618C696.854 179.746 692.799 179.007 688.949 179.935C688.801 174.131 684.147 168.64 678.623 167.671C673.18 166.719 667.566 170.273 666.006 175.576C665.554 171.513 664.463 167.507 662.813 163.78C661.803 161.507 659.316 160.891 657.551 161.86Z" fill="#74D7FF"/>
<path d="M772.469 227.536L673.834 217.226L676.108 214.189L690.12 195.473L719.967 155.629L725.171 162.754L740.48 183.727L754.295 202.639L772.469 227.536Z" fill="#007CE0"/>
<path d="M720.627 155.637L720.791 159.471L719.149 159.438L719.313 155.613L720.627 155.637Z" fill="#244393"/>
<path d="M721.16 167.885L721.529 176.315L718.418 176.175L718.779 167.811L721.16 167.885Z" fill="#244393"/>
<path d="M721.896 184.745L722.266 193.183L717.677 192.88L718.046 184.531L721.896 184.745Z" fill="#244393"/>
<path d="M722.644 201.638L723.014 210.093L716.948 209.559L717.317 201.228L722.644 201.638Z" fill="#244393"/>
<path d="M723.386 218.564L723.559 222.422L716.417 221.675L716.589 217.883L723.386 218.564Z" fill="#244393"/>
<path d="M705.199 121.678L668.991 122.688C668.531 121.867 668.269 120.907 668.269 119.872C668.269 116.745 670.699 114.102 673.719 113.987C674.639 113.954 675.501 114.151 676.264 114.537C676.609 109.973 680.294 106.205 684.85 105.975C689.693 105.729 693.674 109.579 693.674 114.561C693.674 115.858 693.403 117.106 692.911 118.239C696.958 119.413 700.972 120.882 705.199 121.678Z" fill="white"/>
<path d="M718.736 116.203L776.655 114.192C777.493 112.854 777.969 111.311 777.969 109.686C777.969 104.752 773.585 100.976 768.242 101.247C766.641 101.329 765.139 101.764 763.825 102.47C763.243 95.5423 756.996 90.4776 749.51 90.9619C741.794 91.4627 735.653 97.7012 735.653 104.892C735.653 106.772 736.072 108.528 736.819 110.113C730.695 112.222 724.794 114.709 718.736 116.203Z" fill="white"/>
<path d="M257.735 149.374L401.919 148.159C413.427 148.061 422.588 138.399 422.588 126.612V94.5242C422.588 82.7367 413.427 72.5006 401.919 71.6797L257.735 61.3944C242.106 60.278 229.054 70.9163 229.054 85.1254V123.829C229.054 138.054 242.106 149.505 257.735 149.374ZM401.919 73.2722C412.598 74.0192 421.119 83.5165 421.119 94.4586V126.595C421.119 137.545 412.606 146.501 401.919 146.575L257.735 147.552C243.255 147.65 231.188 137.028 231.188 123.87V85.2321C231.188 72.0738 243.255 62.207 257.735 63.2167L401.919 73.2722Z" fill="#74D7FF"/>
<path d="M295.808 216.085L413.593 207.68C426.12 206.785 436.027 195.564 436.027 182.594V125.643C436.027 112.673 426.12 101.748 413.593 101.239L295.808 96.404C279.522 95.7391 265.945 107.625 265.945 122.983V190.409C265.945 205.767 279.522 217.243 295.808 216.085Z" fill="#244393"/>
<path d="M297.247 200.062L350.964 197.033C356.768 196.705 361.422 191.845 361.422 186.181V158.921C361.422 153.249 356.768 148.693 350.964 148.742L297.247 149.202C290.738 149.259 285.402 154.25 285.402 160.349V189.678C285.402 195.785 290.738 200.432 297.247 200.062Z" fill="#007CE0"/>
<path d="M266.159 192.912L307.398 190.926V189.481L266.159 191.418C256.71 191.861 248.904 185.212 248.904 176.593C248.904 167.974 256.71 160.817 266.159 160.636V159.134C255.783 159.314 247.188 167.17 247.188 176.651C247.188 186.132 255.775 193.413 266.159 192.912Z" fill="#74D7FF"/>
<path d="M311.807 189.99C311.807 191.402 313.013 192.486 314.507 192.412C315.993 192.338 317.191 191.14 317.191 189.736C317.191 188.332 315.993 187.249 314.507 187.314C313.021 187.372 311.807 188.578 311.807 189.99Z" fill="#74D7FF"/>
<path d="M320.061 189.596C320.061 191 321.251 192.075 322.72 192.001C324.181 191.928 325.363 190.737 325.363 189.342C325.363 187.946 324.181 186.871 322.72 186.937C321.251 187.002 320.061 188.193 320.061 189.596Z" fill="#74D7FF"/>
<path d="M328.188 189.21C328.188 190.597 329.361 191.672 330.806 191.598C332.243 191.524 333.408 190.351 333.408 188.963C333.408 187.576 332.243 186.509 330.806 186.575C329.361 186.64 328.188 187.814 328.188 189.21Z" fill="#74D7FF"/>
<path d="M391.408 110.309C391.408 128.056 405.272 142.413 421.845 142.372C437.852 142.33 450.428 128.786 450.428 112.123C450.428 95.4594 437.852 81.1354 421.845 80.1176C405.28 79.0587 391.408 92.5618 391.408 110.309Z" fill="#007CE0"/>
<path d="M409.627 103.537C411.764 99.9741 416.753 100.01 419.101 103.561L421.755 107.575L424.391 103.79C426.69 100.486 431.468 100.907 433.473 104.542C434.646 106.667 434.478 109.303 433.057 111.144L421.755 125.817L410.067 110.404C408.55 108.388 408.37 105.637 409.627 103.537Z" fill="white"/>
<path d="M287.178 119.437L383.055 121.276V115.366L287.178 112.936V119.437Z" fill="white"/>
<path d="M287.178 136.339L383.055 136.675V130.757L287.178 129.846V136.339Z" fill="white"/>
<path d="M376.18 160.875L426.777 159.808V154.152L376.18 154.915V160.875Z" fill="white"/>
<path d="M376.18 175.387L426.777 173.573V167.925L376.18 169.427V175.387Z" fill="white"/>
<path d="M376.18 189.908L426.777 187.347V181.691L376.18 183.949V189.908Z" fill="white"/>
</svg>
