<svg width="99" height="48" viewBox="0 0 99 48" fill="none" xmlns="http://www.w3.org/2000/svg">
<path fill-rule="evenodd" clip-rule="evenodd" d="M54.699 30.0396C55.8372 31.0079 56.9741 31.9777 58.111 32.9475C59.9771 34.5392 61.8432 36.131 63.7153 37.7165C64.5075 38.4512 65.3302 39.1524 66.1531 39.8538L66.1567 39.8568L66.1602 39.8597C66.3639 40.0334 66.5676 40.207 66.7708 40.3811C70.8507 36.1113 73.2295 30.2555 73.2223 24.3458C73.2724 20.17 72.1589 15.9903 70.0559 12.3832C68.3168 9.38396 65.9042 6.77818 63.0476 4.81239C58.8039 1.86483 53.5647 0.40666 48.4094 0.706489C44.4355 0.912337 40.5215 2.1588 37.1613 4.28947C34.0839 6.22828 31.4661 8.89194 29.5842 12.0053C27.4256 15.5526 26.2403 19.6841 26.1954 23.8369C26.1375 27.1542 26.7921 30.4822 28.1144 33.5257C29.1686 35.9673 30.6479 38.2192 32.4479 40.1753C35.125 38.008 37.793 35.8294 40.4611 33.6508L40.4612 33.6507L40.4613 33.6506L40.4615 33.6505L40.4616 33.6504L40.4618 33.6503C42.8825 31.6736 45.3032 29.697 47.7307 27.7288C45.2706 30.6881 42.8021 33.6403 40.3336 36.5925L40.3317 36.5948L40.3285 36.5986C38.5435 38.7334 36.7585 40.8682 34.9766 43.0057C38.4019 45.5842 42.5426 47.2033 46.8133 47.6024C46.8733 47.0841 46.924 46.5648 46.9748 46.0454L46.9748 46.045C47.0195 45.5878 47.0641 45.1305 47.1151 44.674C48.3515 44.7189 49.5889 44.7049 50.8262 44.6789C50.8898 45.2708 50.9482 45.8634 51.0066 46.4563L51.0066 46.4572C51.0446 46.8432 51.0827 47.2293 51.1221 47.6154C55.7906 47.2346 60.3193 45.3855 63.9413 42.4191C60.9892 39.0073 58.0273 35.6041 55.0655 32.201C53.6674 30.5947 52.2694 28.9884 50.8724 27.3812C50.8149 27.3132 50.7554 27.2468 50.6959 27.1805L50.6959 27.1804L50.6959 27.1804L50.6958 27.1804L50.6958 27.1803L50.6958 27.1803L50.6958 27.1803C50.5359 27.002 50.3762 26.8239 50.2568 26.6157C50.464 26.7377 50.6533 26.8872 50.8426 27.0366L50.8426 27.0367L50.8427 27.0367L50.8427 27.0368C50.8935 27.0769 50.9442 27.1169 50.9953 27.1565C51.5014 27.5521 52.0094 27.9456 52.5174 28.3391L52.5176 28.3393L52.5178 28.3394L52.5179 28.3395L52.5181 28.3397L52.5183 28.3398C53.2468 28.9042 53.9755 29.4686 54.699 30.0396ZM68.7675 30.2107C68.4088 31.29 68.0218 32.3755 67.4202 33.3468C66.8846 34.3052 66.2807 35.2229 65.6242 36.1012C64.3333 35.257 63.0449 34.4089 61.7566 33.5608L61.7564 33.5607L61.7563 33.5607L61.7562 33.5606L61.756 33.5605L61.7532 33.5586C59.7987 32.2721 57.8444 30.9856 55.8814 29.7125C55.9194 29.6214 55.9662 29.5356 56.0222 29.4556C57.2085 27.9444 58.7837 26.763 60.5167 25.9474C61.9016 25.3019 63.3885 24.93 64.867 24.5602C65.0095 24.5246 65.1519 24.489 65.2941 24.4531C66.7484 24.1042 68.2065 23.7725 69.6686 23.4567C69.773 25.737 69.4501 28.0338 68.7675 30.2107ZM57.6875 22.6346C57.8315 21.954 58.3792 21.3872 59.0439 21.1924C59.9954 20.8835 61.0997 21.5004 61.3976 22.4418C61.6984 23.2675 61.2997 24.2609 60.544 24.6915C60.0601 24.9952 59.4315 25.0511 58.9008 24.8414C58.0384 24.5295 57.4706 23.5341 57.6875 22.6346ZM35.4013 10.3381C37.811 7.84449 40.8795 5.98926 44.2147 5.03287C47.0572 4.21143 50.0845 4.0355 53.004 4.52719C57.3838 5.24067 61.4864 7.49361 64.4648 10.7787C66.4768 12.9695 67.9799 15.6202 68.8426 18.4666C66.6079 18.8874 64.365 19.276 62.1052 19.5271C59.9154 19.7889 57.6498 19.6292 55.5636 18.8874C54.974 18.662 54.4068 18.3835 53.8397 18.1052L53.8396 18.1052L53.8396 18.1052C53.0668 17.7259 52.2945 17.3468 51.4669 17.1024C50.4522 16.7824 49.368 16.8046 48.3216 16.9067C46.9737 17.0981 45.7578 17.6766 44.541 18.2555C43.7999 18.6081 43.0586 18.9608 42.287 19.2263C41.0491 19.6149 39.7399 19.6522 38.4529 19.6888L38.411 19.69C35.7493 19.665 33.0957 19.395 30.4662 18.9973C31.3354 15.7522 33.0625 12.7468 35.4013 10.3381ZM39.6249 24.6047C38.5963 24.7325 37.583 23.8759 37.518 22.8457C37.4191 21.9003 38.1365 20.9787 39.061 20.7966C40.1036 20.5677 41.232 21.3813 41.3439 22.4428C41.5091 23.4753 40.6516 24.5055 39.6249 24.6047ZM32.5334 34.3387L32.5334 34.3386L32.5266 34.3273C30.6375 31.1502 29.6841 27.4381 29.765 23.7439C30.1645 23.8014 30.5648 23.8552 30.9653 23.9089L30.9657 23.909L30.9657 23.909C32.3929 24.1006 33.8217 24.2924 35.2172 24.6583C37.2061 25.1611 39.143 26.0017 40.7254 27.3298C41.594 28.0914 42.4486 28.8858 43.166 29.7944C41.6787 30.7841 40.1867 31.7667 38.6946 32.7494C37.0291 33.8462 35.3637 34.943 33.7051 36.0495C33.2482 35.528 32.8892 34.9307 32.5334 34.3387ZM48.1218 43.7863H48.1215C47.817 43.7837 47.5125 43.7811 47.2078 43.7804C47.2706 43.0619 47.3428 42.3443 47.415 41.6267L47.4152 41.6252C47.4671 41.1093 47.5191 40.5934 47.5675 40.0774C48.5011 40.1092 49.4373 40.1353 50.369 40.0702C50.4449 40.7457 50.5099 41.4223 50.5748 42.0988L50.5749 42.099L50.5749 42.0992L50.5749 42.0994L50.5749 42.0996L50.575 42.0997C50.6283 42.6553 50.6817 43.2107 50.741 43.7654C49.8674 43.8011 48.9951 43.7937 48.1221 43.7863H48.122H48.122H48.1219H48.1218ZM50.2874 39.1808C49.411 39.1798 48.5352 39.1798 47.6598 39.1808C47.7342 38.3589 47.8176 37.5385 47.9009 36.7178C47.9429 36.305 47.9848 35.892 48.0257 35.4788C48.6464 35.5139 49.276 35.5419 49.8945 35.4678C50.0028 36.2089 50.0713 36.9551 50.1398 37.7013C50.1852 38.1949 50.2305 38.6886 50.2874 39.1808ZM49.4708 30.9072C49.5178 31.3756 49.5629 31.8443 49.608 32.3131L49.608 32.3135L49.6081 32.3138L49.6081 32.3141L49.6081 32.3144L49.6082 32.3147C49.681 33.0717 49.7538 33.8288 49.8347 34.5852C49.2613 34.5803 48.689 34.5823 48.1156 34.5842H48.1148C48.1664 34.0661 48.2169 33.5477 48.2674 33.0294L48.2675 33.0283L48.2675 33.0277L48.2676 33.0271L48.2676 33.0265L48.2677 33.0259C48.3364 32.3206 48.4052 31.6152 48.4767 30.9102C48.8081 30.9111 49.1391 30.9102 49.4708 30.9072ZM48.5694 29.9856C48.5932 29.7398 48.6167 29.4939 48.6402 29.2479C48.7159 28.4552 48.7917 27.6623 48.8803 26.8713C48.9251 26.8452 49.0152 26.7942 49.0601 26.7691C49.1603 27.6935 49.2469 28.6194 49.3335 29.5454L49.3335 29.5455L49.3335 29.5457L49.3335 29.5458L49.3335 29.546L49.3335 29.5461L49.3749 29.9876C49.1059 29.9847 48.837 29.9847 48.5694 29.9856ZM49.0789 26.1708C48.9362 26.2388 48.7762 26.2398 48.617 26.2408C48.4183 26.242 48.2209 26.2433 48.0595 26.3747L47.7116 26.6285C46.8965 27.2236 46.0806 27.8193 45.2391 28.3776C44.2687 27.2221 43.8427 25.6381 44.0836 24.1507C44.3106 22.5416 45.2222 21.0064 46.6263 20.158C47.6198 19.5973 48.7752 19.2555 49.9235 19.3905C51.6737 19.5863 53.2876 20.6448 54.2102 22.1381C55.3636 23.9871 55.1656 26.5587 53.7874 28.2367C53.3771 27.9571 52.9694 27.6738 52.5618 27.3906C51.9744 26.9824 51.3872 26.5744 50.793 26.1779C50.5267 26.1456 50.2589 26.1641 49.9912 26.1827C49.6862 26.2039 49.3813 26.225 49.0789 26.1708ZM96.8916 19.1232C93.3902 19.1294 89.8889 19.1307 86.3878 19.1303V19.13L83.642 19.1292H83.6419H83.6418H83.6416H83.6415H83.6414C80.896 19.1283 78.1505 19.1275 75.4047 19.1277C75.7238 20.7514 75.886 22.3953 75.8886 24.0365C75.889 24.1393 75.8883 24.242 75.8873 24.3445V24.3575V24.3754C75.8873 24.4843 75.8867 24.5929 75.885 24.7012L75.8845 24.7323L75.8844 24.75C75.8828 24.8547 75.8805 24.9594 75.8776 25.0641L75.8772 25.0731L75.8769 25.082C75.8707 25.2927 75.8616 25.4983 75.8503 25.7096L75.8495 25.7269V25.727L75.8487 25.7453C75.8484 25.7526 75.848 25.7586 75.8476 25.7618C75.8474 25.7632 75.8472 25.764 75.847 25.764L75.8473 25.7633L75.8476 25.7618L75.8474 25.7668L75.847 25.776C78.5738 25.7838 81.3002 25.7835 84.0273 25.7825C85.4656 25.7831 86.9039 25.7851 88.3423 25.7896C88.579 25.7913 88.8131 25.7727 89.0453 25.7399C89.0951 25.7392 89.1643 25.7376 89.2518 25.7334C89.7848 25.7184 90.3139 25.67 90.8306 25.5327C93.0026 25.0944 96.4181 23.7341 97.461 19.5176C97.4912 19.408 97.5173 19.2968 97.5374 19.1833C97.3222 19.1833 97.1069 19.183 96.8916 19.1827V19.1232ZM73.523 35.0896C74.4771 33.0054 75.1574 30.8002 75.5366 28.545C79.5971 28.519 83.6576 28.5249 87.7183 28.5307H87.7183H87.7184H87.7185H87.7186L87.7253 28.5307C89.0451 28.5326 90.3649 28.5345 91.6847 28.5353C91.6646 28.6491 91.6385 28.7606 91.6083 28.8705C90.5654 33.0961 87.1499 34.4597 84.9779 34.899C84.4612 35.0365 83.9321 35.085 83.3991 35.1C83.2105 35.1091 83.1042 35.1071 83.1042 35.1071L83.1068 35.1052C82.8838 35.107 82.6604 35.1048 82.4374 35.1026H82.4373H82.4371H82.437H82.4369H82.4367H82.4366H82.4365H82.4364C82.1404 35.0996 81.8449 35.0967 81.5514 35.1032C80.5147 35.0949 79.3532 35.0987 78.1688 35.1026H78.168C76.5789 35.1078 74.9486 35.1132 73.523 35.0896ZM88.0783 9.68051V9.66718H71.5584L71.6423 9.73221H71.5575C71.8368 10.155 72.1038 10.5933 72.3571 11.0301C73.3418 12.7191 74.1324 14.5252 74.7154 16.4029C76.3318 16.4019 77.9483 16.4029 79.5648 16.404H79.5664C81.4954 16.4053 83.4243 16.4065 85.3528 16.4042C85.3678 16.4031 85.3827 16.4022 85.3976 16.4013C85.4124 16.4004 85.4273 16.3995 85.4423 16.3984L86.4257 16.3984C87.41 16.3986 88.3944 16.3987 89.3787 16.3977C89.6919 16.3945 90.0044 16.3756 90.315 16.3411C90.3507 16.3411 90.3865 16.3411 90.422 16.3408L90.4194 16.3428C90.4194 16.3428 90.5257 16.3447 90.7143 16.3356C91.2473 16.3206 91.7764 16.2712 92.2931 16.132C94.4651 15.6872 97.8806 14.3067 98.9235 10.0278C98.9537 9.9166 98.9798 9.80343 98.9999 9.68831C97.6352 9.6877 96.2703 9.68586 94.9055 9.68402H94.9053H94.9051H94.9049H94.9039H94.903H94.902C92.6276 9.68094 90.353 9.67787 88.0783 9.68051ZM10.3606 25.8059C10.3109 25.8052 10.2416 25.8036 10.1541 25.7994C9.62114 25.7844 9.09205 25.736 8.57532 25.5991C6.40335 25.1607 2.98784 23.8004 1.94495 19.584C1.9147 19.4744 1.89161 19.3632 1.87113 19.2497L2.19558 19.2493L2.51956 19.249V19.1885C6.03166 19.1944 9.51123 19.196 13.0233 19.1957V19.1954L15.7314 19.1945L15.7447 19.1945C18.4923 19.1937 21.2525 19.1928 24.0038 19.1931C23.6848 20.8168 23.5212 22.4606 23.5186 24.1019L23.5186 24.1569C23.5186 24.2488 23.5185 24.3407 23.5196 24.4326C23.5193 24.9054 23.5329 25.3724 23.5596 25.8443C21.0091 25.8516 18.458 25.8506 15.9071 25.8497L15.3794 25.8495C13.941 25.8498 12.5024 25.8514 11.064 25.856C10.8273 25.8576 10.5928 25.8387 10.3606 25.8059ZM7.72282 28.6C7.74331 28.7138 7.769 28.8253 7.79924 28.9352C8.84214 33.1611 12.2576 34.5247 14.4296 34.9637C14.946 35.1012 15.4754 35.1497 16.0084 35.1646C16.197 35.1734 16.3034 35.1718 16.3034 35.1718L16.3008 35.1699C16.5261 35.1718 16.7518 35.1696 16.9773 35.1673H16.9774H16.9775C17.2714 35.1644 17.5648 35.1615 17.8562 35.1679C18.8932 35.1596 20.055 35.1634 21.2397 35.1673C22.8287 35.1725 24.459 35.1779 25.8846 35.1542C24.9304 33.0701 24.2501 30.8653 23.871 28.6097C19.8337 28.5841 15.7965 28.5898 11.7594 28.5954H11.7594C10.4139 28.5973 9.06835 28.5992 7.72282 28.6ZM27.8471 9.73222L27.7632 9.79726H27.8481C27.5687 10.22 27.3017 10.6584 27.0484 11.0951C26.064 12.7838 25.2735 14.5929 24.6901 16.4706C23.0946 16.4695 21.4989 16.4703 19.9032 16.471C17.9529 16.472 16.0026 16.4729 14.0527 16.4706C14.0228 16.4686 13.9928 16.4663 13.9633 16.4641C12.6511 16.4644 11.3389 16.4644 10.0268 16.4631C9.71362 16.4598 9.40111 16.441 9.09055 16.4065C9.0551 16.4065 9.01933 16.4065 8.98356 16.4062L8.98616 16.4081C8.98616 16.4081 8.87983 16.4097 8.69121 16.401C8.15822 16.386 7.62881 16.3366 7.1124 16.1974C4.94043 15.7529 1.52492 14.3721 0.482022 10.0932C0.451779 9.98197 0.42869 9.8688 0.408203 9.75368C1.74115 9.75297 3.07428 9.75112 4.40753 9.74927C6.71564 9.74608 9.02414 9.74288 11.3328 9.74555V9.73222H27.8471Z" fill="url(#paint0_linear_1_2893)"/>
<defs>
<linearGradient id="paint0_linear_1_2893" x1="0.408203" y1="47.6153" x2="99" y2="47.6153" gradientUnits="userSpaceOnUse">
<stop stop-color="#3C58DD"/>
<stop offset="1" stop-color="#3AA1E4"/>
</linearGradient>
</defs>
</svg>
