<?xml version="1.0" standalone="no"?>
<!DOCTYPE svg PUBLIC "-//W3C//DTD SVG 20010904//EN"
 "http://www.w3.org/TR/2001/REC-SVG-20010904/DTD/svg10.dtd">
<svg version="1.0" xmlns="http://www.w3.org/2000/svg"
 width="198.000000pt" height="198.000000pt" viewBox="0 0 198.000000 198.000000"
 preserveAspectRatio="xMidYMid meet">
<metadata>
Created by potrace 1.14, written by Peter Selinger 2001-2017
</metadata>
<g transform="translate(0.000000,198.000000) scale(0.100000,-0.100000)"
fill="#000000" stroke="none">
<path d="M893 1434 c-88 -18 -173 -66 -238 -135 -106 -111 -150 -260 -123
-412 11 -59 55 -157 91 -202 l25 -29 122 99 c204 167 203 172 8 -59 l-77 -91
27 -23 c31 -26 115 -59 171 -68 38 -6 40 -5 43 22 3 26 7 29 38 29 31 0 35 -3
38 -29 3 -27 4 -28 50 -21 51 7 154 51 189 81 l23 19 -38 41 c-20 22 -62 69
-92 105 -30 35 -73 83 -95 108 -22 24 -31 39 -20 33 19 -10 206 -166 269 -224
l30 -27 23 25 c30 32 77 126 92 182 18 64 19 150 4 217 -59 257 -303 414 -560
359z m209 -75 c60 -14 156 -75 194 -123 16 -20 41 -59 56 -88 l27 -53 -22 -8
c-12 -5 -65 -11 -118 -14 -90 -5 -100 -4 -155 22 -71 34 -114 34 -195 0 -66
-28 -149 -35 -237 -20 -50 8 -50 16 1 104 91 153 267 224 449 180z m-56 -305
c48 -32 68 -101 40 -139 -13 -18 -14 -18 -42 2 -36 24 -72 23 -112 -5 l-30
-22 -12 30 c-39 95 70 189 156 134z m-221 -49 c0 -26 -31 -43 -52 -29 -25 15
-27 38 -7 58 14 15 19 15 38 3 11 -8 21 -22 21 -32z m386 25 c38 -21 12 -79
-30 -65 -27 8 -34 35 -15 56 20 22 20 22 45 9z m180 -52 c7 -88 -53 -243 -89
-230 -7 2 -50 30 -96 61 -68 46 -82 60 -75 73 16 28 81 62 164 84 97 27 95 27
96 12z m-688 -13 c62 -16 113 -45 139 -80 17 -22 16 -23 -50 -67 -134 -89
-117 -83 -140 -46 -24 39 -49 117 -55 171 -5 35 -3 37 22 37 15 0 52 -7 84
-15z m282 -65 c3 -5 1 -10 -4 -10 -6 0 -11 5 -11 10 0 6 2 10 4 10 3 0 8 -4
11 -10z m0 -30 c3 -5 1 -10 -4 -10 -6 0 -11 5 -11 10 0 6 2 10 4 10 3 0 8 -4
11 -10z m5 -49 c0 -11 3 -26 6 -35 4 -12 0 -16 -15 -16 -16 0 -20 5 -17 23 3
12 5 28 5 35 1 20 21 14 21 -7z m12 -106 c5 -42 4 -43 -25 -38 -19 4 -22 10
-19 39 6 49 38 48 44 -1z m6 -96 c3 -35 2 -37 -27 -35 -29 1 -31 3 -31 39 0
36 2 38 28 35 23 -3 27 -8 30 -39z"/>
<path d="M10 1254 c0 -26 48 -81 90 -101 41 -21 58 -23 222 -23 136 0 178 3
178 13 0 6 12 35 25 62 14 28 25 52 25 55 0 3 -121 5 -270 5 -194 1 -270 -3
-270 -11z"/>
<path d="M1461 1209 c16 -31 29 -62 29 -69 0 -9 45 -11 188 -8 174 3 190 5
223 26 38 23 61 51 73 88 6 20 4 20 -268 20 l-274 0 29 -57z"/>
<path d="M40 1065 c0 -23 45 -79 80 -99 30 -18 55 -21 192 -23 l158 -2 1 37
c1 20 2 51 3 67 l1 30 -217 1 c-164 1 -218 -2 -218 -11z"/>
<path d="M1514 1020 c2 -32 6 -62 9 -67 4 -5 71 -9 154 -8 128 1 154 4 188 21
40 21 69 54 80 91 l6 22 -220 -1 -220 0 3 -58z"/>
<path d="M165 863 c9 -38 51 -80 93 -94 32 -11 224 -20 248 -12 6 2 3 27 -10
68 l-21 65 -159 0 -158 0 7 -27z"/>
<path d="M1505 863 c-4 -16 -12 -45 -20 -65 -10 -28 -10 -38 -2 -39 7 -1 58
-1 115 0 122 0 180 20 212 73 35 58 35 58 -140 58 l-160 0 -5 -27z"/>
</g>
</svg>
